%TF.GenerationSoftware,KiCad,Pcbnew,9.0.6*%
%TF.CreationDate,2026-03-12T21:42:51+05:30*%
%TF.ProjectId,Macropad,4d616372-6f70-4616-942e-6b696361645f,rev?*%
%TF.SameCoordinates,Original*%
%TF.FileFunction,Copper,L1,Top*%
%TF.FilePolarity,Positive*%
%FSLAX46Y46*%
G04 Gerber Fmt 4.6, Leading zero omitted, Abs format (unit mm)*
G04 Created by KiCad (PCBNEW 9.0.6) date 2026-03-12 21:42:51*
%MOMM*%
%LPD*%
G01*
G04 APERTURE LIST*
G04 Aperture macros list*
%AMRoundRect*
0 Rectangle with rounded corners*
0 $1 Rounding radius*
0 $2 $3 $4 $5 $6 $7 $8 $9 X,Y pos of 4 corners*
0 Add a 4 corners polygon primitive as box body*
4,1,4,$2,$3,$4,$5,$6,$7,$8,$9,$2,$3,0*
0 Add four circle primitives for the rounded corners*
1,1,$1+$1,$2,$3*
1,1,$1+$1,$4,$5*
1,1,$1+$1,$6,$7*
1,1,$1+$1,$8,$9*
0 Add four rect primitives between the rounded corners*
20,1,$1+$1,$2,$3,$4,$5,0*
20,1,$1+$1,$4,$5,$6,$7,0*
20,1,$1+$1,$6,$7,$8,$9,0*
20,1,$1+$1,$8,$9,$2,$3,0*%
%AMHorizOval*
0 Thick line with rounded ends*
0 $1 width*
0 $2 $3 position (X,Y) of the first rounded end (center of the circle)*
0 $4 $5 position (X,Y) of the second rounded end (center of the circle)*
0 Add line between two ends*
20,1,$1,$2,$3,$4,$5,0*
0 Add two circle primitives to create the rounded ends*
1,1,$1,$2,$3*
1,1,$1,$4,$5*%
G04 Aperture macros list end*
%TA.AperFunction,SMDPad,CuDef*%
%ADD10RoundRect,0.250000X0.850000X-1.650000X0.850000X1.650000X-0.850000X1.650000X-0.850000X-1.650000X0*%
%TD*%
%TA.AperFunction,ComponentPad*%
%ADD11C,3.000000*%
%TD*%
%TA.AperFunction,ComponentPad*%
%ADD12RoundRect,0.250000X0.600000X0.750000X-0.600000X0.750000X-0.600000X-0.750000X0.600000X-0.750000X0*%
%TD*%
%TA.AperFunction,ComponentPad*%
%ADD13O,1.700000X2.000000*%
%TD*%
%TA.AperFunction,ComponentPad*%
%ADD14RoundRect,0.250000X-0.936916X-0.088388X-0.088388X-0.936916X0.936916X0.088388X0.088388X0.936916X0*%
%TD*%
%TA.AperFunction,ComponentPad*%
%ADD15HorizOval,1.700000X-0.088388X-0.088388X0.088388X0.088388X0*%
%TD*%
%TA.AperFunction,ComponentPad*%
%ADD16RoundRect,0.250000X0.088388X-0.936916X0.936916X-0.088388X-0.088388X0.936916X-0.936916X0.088388X0*%
%TD*%
%TA.AperFunction,ComponentPad*%
%ADD17HorizOval,1.700000X-0.088388X0.088388X0.088388X-0.088388X0*%
%TD*%
%TA.AperFunction,ComponentPad*%
%ADD18RoundRect,0.250000X0.600000X0.725000X-0.600000X0.725000X-0.600000X-0.725000X0.600000X-0.725000X0*%
%TD*%
%TA.AperFunction,ComponentPad*%
%ADD19O,1.700000X1.950000*%
%TD*%
%TA.AperFunction,ComponentPad*%
%ADD20RoundRect,0.250000X0.550000X-0.550000X0.550000X0.550000X-0.550000X0.550000X-0.550000X-0.550000X0*%
%TD*%
%TA.AperFunction,ComponentPad*%
%ADD21C,1.600000*%
%TD*%
%TA.AperFunction,ViaPad*%
%ADD22C,0.600000*%
%TD*%
%TA.AperFunction,Conductor*%
%ADD23C,0.200000*%
%TD*%
%TA.AperFunction,Conductor*%
%ADD24C,0.400000*%
%TD*%
G04 APERTURE END LIST*
D10*
%TO.P,Pi_Pico_1,40,VBUS*%
%TO.N,unconnected-(Pico_1-VBUS-Pad40)*%
X110490000Y-39078000D03*
%TO.P,Pi_Pico_1,39,VSYS*%
%TO.N,unconnected-(Pico_1-VSYS-Pad39)*%
X113030000Y-39078000D03*
%TO.P,Pi_Pico_1,38,GND*%
%TO.N,GND*%
X115570000Y-39078000D03*
%TO.P,Pi_Pico_1,37,3V3_EN*%
%TO.N,unconnected-(Pico_1-3V3_EN-Pad37)*%
X118110000Y-39078000D03*
%TO.P,Pi_Pico_1,36,3V3*%
%TO.N,Net-(BFEncoder_1-Pin_4)*%
X120650000Y-39078000D03*
%TO.P,Pi_Pico_1,35,ADC_VREF*%
%TO.N,unconnected-(Pico_1-ADC_VREF-Pad35)*%
X123190000Y-39078000D03*
%TO.P,Pi_Pico_1,34,GP28_A2*%
%TO.N,unconnected-(Pico_1-GP28_A2-Pad34)*%
X125730000Y-39078000D03*
%TO.P,Pi_Pico_1,33,AGND*%
%TO.N,unconnected-(Pico_1-AGND-Pad33)*%
X128270000Y-39078000D03*
%TO.P,Pi_Pico_1,32,GP27_A1*%
%TO.N,unconnected-(Pico_1-GP27_A1-Pad32)*%
X130810000Y-39078000D03*
%TO.P,Pi_Pico_1,31,GP26_A0*%
%TO.N,unconnected-(Pico_1-GP26_A0-Pad31)*%
X133350000Y-39078000D03*
%TO.P,Pi_Pico_1,30,RUN*%
%TO.N,unconnected-(Pico_1-RUN-Pad30)*%
X135890000Y-39078000D03*
%TO.P,Pi_Pico_1,29,GP22*%
%TO.N,Net-(Pico_1-GP22)*%
X138430000Y-39078000D03*
%TO.P,Pi_Pico_1,28,GND*%
%TO.N,GND*%
X140970000Y-39078000D03*
%TO.P,Pi_Pico_1,27,GP21*%
%TO.N,Net-(Pico_1-GP21)*%
X143510000Y-39078000D03*
%TO.P,Pi_Pico_1,26,GP20*%
%TO.N,Net-(Pico_1-GP20)*%
X146050000Y-39078000D03*
%TO.P,Pi_Pico_1,25,GP19*%
%TO.N,Net-(Pico_1-GP19)*%
X148590000Y-39078000D03*
%TO.P,Pi_Pico_1,24,GP18*%
%TO.N,Net-(Pico_1-GP18)*%
X151130000Y-39078000D03*
%TO.P,Pi_Pico_1,23,GND*%
%TO.N,GND*%
X153670000Y-39078000D03*
%TO.P,Pi_Pico_1,22,GP17*%
%TO.N,Net-(Pico_1-GP17)*%
X156210000Y-39078000D03*
%TO.P,Pi_Pico_1,21,GP16*%
%TO.N,Net-(Pico_1-GP16)*%
X158750000Y-39078000D03*
%TO.P,Pi_Pico_1,20,GP15*%
%TO.N,Net-(BFEncoder_2-Pin_3)*%
X158750000Y-58458000D03*
%TO.P,Pi_Pico_1,19,GP14*%
%TO.N,Net-(BFEncoder_2-Pin_2)*%
X156210000Y-58458000D03*
%TO.P,Pi_Pico_1,18,GND*%
%TO.N,GND*%
X153670000Y-58458000D03*
%TO.P,Pi_Pico_1,17,GP13*%
%TO.N,Net-(Pico_1-GP13)*%
X151130000Y-58458000D03*
%TO.P,Pi_Pico_1,16,GP12*%
%TO.N,unconnected-(Pico_1-GP12-Pad16)*%
X148590000Y-58458000D03*
%TO.P,Pi_Pico_1,15,GP11*%
%TO.N,unconnected-(Pico_1-GP11-Pad15)*%
X146050000Y-58458000D03*
%TO.P,Pi_Pico_1,14,GP10*%
%TO.N,Net-(Pico_1-GP10)*%
X143510000Y-58458000D03*
%TO.P,Pi_Pico_1,13,GND*%
%TO.N,GND*%
X140970000Y-58458000D03*
%TO.P,Pi_Pico_1,12,GP9*%
%TO.N,Net-(Pico_1-GP9)*%
X138430000Y-58458000D03*
%TO.P,Pi_Pico_1,11,GP8*%
%TO.N,Net-(Pico_1-GP8)*%
X135890000Y-58458000D03*
%TO.P,Pi_Pico_1,10,GP7*%
%TO.N,Net-(Pico_1-GP7)*%
X133350000Y-58458000D03*
%TO.P,Pi_Pico_1,9,GP6*%
%TO.N,Net-(Pico_1-GP6)*%
X130810000Y-58458000D03*
%TO.P,Pi_Pico_1,8,GND*%
%TO.N,GND*%
X128270000Y-58458000D03*
%TO.P,Pi_Pico_1,7,GP5*%
%TO.N,Net-(D1-K)*%
X125730000Y-58458000D03*
%TO.P,Pi_Pico_1,6,GP4*%
%TO.N,Net-(D10-K)*%
X123190000Y-58458000D03*
%TO.P,Pi_Pico_1,5,GP3*%
%TO.N,Net-(D11-K)*%
X120650000Y-58458000D03*
%TO.P,Pi_Pico_1,4,GP2*%
%TO.N,Net-(D16-K)*%
X118110000Y-58458000D03*
%TO.P,Pi_Pico_1,3,GND*%
%TO.N,GND*%
X115570000Y-58458000D03*
%TO.P,Pi_Pico_1,2,GP1*%
%TO.N,Net-(BFEncoder_1-Pin_3)*%
X113030000Y-58458000D03*
%TO.P,Pi_Pico_1,1,GP0*%
%TO.N,Net-(BFEncoder_1-Pin_2)*%
X110490000Y-58458000D03*
%TD*%
D11*
%TO.P,SW5,1,IN*%
%TO.N,Net-(D5-A)*%
X168910000Y-69850000D03*
%TO.P,SW5,2,GND*%
%TO.N,Net-(Pico_1-GP10)*%
X175260000Y-67310000D03*
%TD*%
%TO.P,SW16,1,IN*%
%TO.N,Net-(D16-A)*%
X92710000Y-127000000D03*
%TO.P,SW16,2,GND*%
%TO.N,Net-(Pico_1-GP6)*%
X99060000Y-124460000D03*
%TD*%
%TO.P,SW2,1,IN*%
%TO.N,Net-(D2-A)*%
X111760000Y-69850000D03*
%TO.P,SW2,2,GND*%
%TO.N,Net-(Pico_1-GP7)*%
X118110000Y-67310000D03*
%TD*%
D12*
%TO.P,TSW_1,1,Pin_1*%
%TO.N,GND*%
X117308000Y-31496000D03*
D13*
%TO.P,TSW_1,2,Pin_2*%
%TO.N,Net-(Pico_1-GP22)*%
X114808000Y-31496000D03*
%TD*%
D11*
%TO.P,SW10,1,IN*%
%TO.N,Net-(D10-A)*%
X168910000Y-88900000D03*
%TO.P,SW10,2,GND*%
%TO.N,Net-(Pico_1-GP10)*%
X175260000Y-86360000D03*
%TD*%
%TO.P,SW13,1,IN*%
%TO.N,Net-(D13-A)*%
X130810000Y-107950000D03*
%TO.P,SW13,2,GND*%
%TO.N,Net-(Pico_1-GP8)*%
X137160000Y-105410000D03*
%TD*%
%TO.P,SW12,1,IN*%
%TO.N,Net-(D12-A)*%
X111760000Y-107950000D03*
%TO.P,SW12,2,GND*%
%TO.N,Net-(Pico_1-GP7)*%
X118110000Y-105410000D03*
%TD*%
%TO.P,SW3,1,IN*%
%TO.N,Net-(D3-A)*%
X130810000Y-69850000D03*
%TO.P,SW3,2,GND*%
%TO.N,Net-(Pico_1-GP8)*%
X137160000Y-67310000D03*
%TD*%
%TO.P,SW14,1,IN*%
%TO.N,Net-(D14-A)*%
X149860000Y-107950000D03*
%TO.P,SW14,2,GND*%
%TO.N,Net-(Pico_1-GP9)*%
X156210000Y-105410000D03*
%TD*%
%TO.P,SW4,1,IN*%
%TO.N,Net-(D4-A)*%
X149860000Y-69850000D03*
%TO.P,SW4,2,GND*%
%TO.N,Net-(Pico_1-GP9)*%
X156210000Y-67310000D03*
%TD*%
%TO.P,SW1,1,IN*%
%TO.N,Net-(D1-A)*%
X92710000Y-69850000D03*
%TO.P,SW1,2,GND*%
%TO.N,Net-(Pico_1-GP6)*%
X99060000Y-67310000D03*
%TD*%
%TO.P,SW11,1,IN*%
%TO.N,Net-(D11-A)*%
X92710000Y-107950000D03*
%TO.P,SW11,2,GND*%
%TO.N,Net-(Pico_1-GP6)*%
X99060000Y-105410000D03*
%TD*%
%TO.P,SW15,1,IN*%
%TO.N,Net-(D15-A)*%
X168910000Y-107950000D03*
%TO.P,SW15,2,GND*%
%TO.N,Net-(Pico_1-GP10)*%
X175260000Y-105410000D03*
%TD*%
D14*
%TO.P,BFEncoder_1,1,Pin_1*%
%TO.N,GND*%
X80068614Y-144244086D03*
D15*
%TO.P,BFEncoder_1,2,Pin_2*%
%TO.N,Net-(BFEncoder_1-Pin_2)*%
X81836381Y-146011853D03*
%TO.P,BFEncoder_1,3,Pin_3*%
%TO.N,Net-(BFEncoder_1-Pin_3)*%
X83604148Y-147779620D03*
%TO.P,BFEncoder_1,4,Pin_4*%
%TO.N,Net-(BFEncoder_1-Pin_4)*%
X85371915Y-149547387D03*
%TD*%
D11*
%TO.P,SW6,1,IN*%
%TO.N,Net-(D6-A)*%
X92710000Y-88900000D03*
%TO.P,SW6,2,GND*%
%TO.N,Net-(Pico_1-GP6)*%
X99060000Y-86360000D03*
%TD*%
%TO.P,SW18,1,IN*%
%TO.N,Net-(D18-A)*%
X130810000Y-127000000D03*
%TO.P,SW18,2,GND*%
%TO.N,Net-(Pico_1-GP8)*%
X137160000Y-124460000D03*
%TD*%
D16*
%TO.P,BFEncoder_2,1,Pin_1*%
%TO.N,GND*%
X183868086Y-149547386D03*
D17*
%TO.P,BFEncoder_2,2,Pin_2*%
%TO.N,Net-(BFEncoder_2-Pin_2)*%
X185635853Y-147779619D03*
%TO.P,BFEncoder_2,3,Pin_3*%
%TO.N,Net-(BFEncoder_2-Pin_3)*%
X187403620Y-146011852D03*
%TO.P,BFEncoder_2,4,Pin_4*%
%TO.N,Net-(BFEncoder_1-Pin_4)*%
X189171387Y-144244085D03*
%TD*%
D11*
%TO.P,SW9,1,IN*%
%TO.N,Net-(D9-A)*%
X149860000Y-88900000D03*
%TO.P,SW9,2,GND*%
%TO.N,Net-(Pico_1-GP9)*%
X156210000Y-86360000D03*
%TD*%
%TO.P,SW17,1,IN*%
%TO.N,Net-(D17-A)*%
X111760000Y-127000000D03*
%TO.P,SW17,2,GND*%
%TO.N,Net-(Pico_1-GP7)*%
X118110000Y-124460000D03*
%TD*%
%TO.P,SW20,1,IN*%
%TO.N,Net-(D20-A)*%
X168910000Y-127000000D03*
%TO.P,SW20,2,GND*%
%TO.N,Net-(Pico_1-GP10)*%
X175260000Y-124460000D03*
%TD*%
%TO.P,SW8,1,IN*%
%TO.N,Net-(D8-A)*%
X130810000Y-88900000D03*
%TO.P,SW8,2,GND*%
%TO.N,Net-(Pico_1-GP8)*%
X137160000Y-86360000D03*
%TD*%
D18*
%TO.P,SPI_Screen_1,1,Pin_1*%
%TO.N,GND*%
X137628000Y-31496000D03*
D19*
%TO.P,SPI_Screen_1,2,Pin_2*%
%TO.N,Net-(Pico_1-GP18)*%
X135128000Y-31496000D03*
%TO.P,SPI_Screen_1,3,Pin_3*%
%TO.N,Net-(Pico_1-GP19)*%
X132628000Y-31496000D03*
%TO.P,SPI_Screen_1,4,Pin_4*%
%TO.N,Net-(Pico_1-GP20)*%
X130128000Y-31496000D03*
%TO.P,SPI_Screen_1,5,Pin_5*%
%TO.N,Net-(Pico_1-GP21)*%
X127628000Y-31496000D03*
%TO.P,SPI_Screen_1,6,Pin_6*%
%TO.N,Net-(BFEncoder_1-Pin_4)*%
X125128000Y-31496000D03*
%TD*%
D11*
%TO.P,SW19,1,IN*%
%TO.N,Net-(D19-A)*%
X149860000Y-127000000D03*
%TO.P,SW19,2,GND*%
%TO.N,Net-(Pico_1-GP9)*%
X156210000Y-124460000D03*
%TD*%
D18*
%TO.P,Vol_Encoder_1,1,Pin_1*%
%TO.N,GND*%
X155408000Y-31496000D03*
D19*
%TO.P,Vol_Encoder_1,2,Pin_2*%
%TO.N,Net-(Pico_1-GP13)*%
X152908000Y-31496000D03*
%TO.P,Vol_Encoder_1,3,Pin_3*%
%TO.N,Net-(Pico_1-GP16)*%
X150408000Y-31496000D03*
%TO.P,Vol_Encoder_1,4,Pin_4*%
%TO.N,Net-(Pico_1-GP17)*%
X147908000Y-31496000D03*
%TO.P,Vol_Encoder_1,5,Pin_5*%
%TO.N,Net-(BFEncoder_1-Pin_4)*%
X145408000Y-31496000D03*
%TD*%
D11*
%TO.P,SW7,1,IN*%
%TO.N,Net-(D7-A)*%
X111760000Y-88900000D03*
%TO.P,SW7,2,GND*%
%TO.N,Net-(Pico_1-GP7)*%
X118110000Y-86360000D03*
%TD*%
D20*
%TO.P,D9,1,K*%
%TO.N,Net-(D10-K)*%
X144526000Y-99060000D03*
D21*
%TO.P,D9,2,A*%
%TO.N,Net-(D9-A)*%
X144526000Y-91440000D03*
%TD*%
D20*
%TO.P,D11,1,K*%
%TO.N,Net-(D11-K)*%
X87376000Y-118110000D03*
D21*
%TO.P,D11,2,A*%
%TO.N,Net-(D11-A)*%
X87376000Y-110490000D03*
%TD*%
D20*
%TO.P,D12,1,K*%
%TO.N,Net-(D11-K)*%
X106426000Y-118110000D03*
D21*
%TO.P,D12,2,A*%
%TO.N,Net-(D12-A)*%
X106426000Y-110490000D03*
%TD*%
D20*
%TO.P,D16,1,K*%
%TO.N,Net-(D16-K)*%
X87376000Y-137160000D03*
D21*
%TO.P,D16,2,A*%
%TO.N,Net-(D16-A)*%
X87376000Y-129540000D03*
%TD*%
D20*
%TO.P,D17,1,K*%
%TO.N,Net-(D16-K)*%
X106426000Y-137160000D03*
D21*
%TO.P,D17,2,A*%
%TO.N,Net-(D17-A)*%
X106426000Y-129540000D03*
%TD*%
D20*
%TO.P,D19,1,K*%
%TO.N,Net-(D16-K)*%
X144526000Y-137160000D03*
D21*
%TO.P,D19,2,A*%
%TO.N,Net-(D19-A)*%
X144526000Y-129540000D03*
%TD*%
D20*
%TO.P,D7,1,K*%
%TO.N,Net-(D10-K)*%
X106426000Y-99060000D03*
D21*
%TO.P,D7,2,A*%
%TO.N,Net-(D7-A)*%
X106426000Y-91440000D03*
%TD*%
D20*
%TO.P,D2,1,K*%
%TO.N,Net-(D1-K)*%
X106426000Y-80010000D03*
D21*
%TO.P,D2,2,A*%
%TO.N,Net-(D2-A)*%
X106426000Y-72390000D03*
%TD*%
D20*
%TO.P,D4,1,K*%
%TO.N,Net-(D1-K)*%
X144526000Y-80010000D03*
D21*
%TO.P,D4,2,A*%
%TO.N,Net-(D4-A)*%
X144526000Y-72390000D03*
%TD*%
D20*
%TO.P,D13,1,K*%
%TO.N,Net-(D11-K)*%
X125476000Y-118110000D03*
D21*
%TO.P,D13,2,A*%
%TO.N,Net-(D13-A)*%
X125476000Y-110490000D03*
%TD*%
D20*
%TO.P,D15,1,K*%
%TO.N,Net-(D11-K)*%
X163576000Y-118110000D03*
D21*
%TO.P,D15,2,A*%
%TO.N,Net-(D15-A)*%
X163576000Y-110490000D03*
%TD*%
D20*
%TO.P,D10,1,K*%
%TO.N,Net-(D10-K)*%
X163576000Y-99060000D03*
D21*
%TO.P,D10,2,A*%
%TO.N,Net-(D10-A)*%
X163576000Y-91440000D03*
%TD*%
D20*
%TO.P,D6,1,K*%
%TO.N,Net-(D10-K)*%
X87376000Y-99060000D03*
D21*
%TO.P,D6,2,A*%
%TO.N,Net-(D6-A)*%
X87376000Y-91440000D03*
%TD*%
D20*
%TO.P,D14,1,K*%
%TO.N,Net-(D11-K)*%
X144526000Y-118110000D03*
D21*
%TO.P,D14,2,A*%
%TO.N,Net-(D14-A)*%
X144526000Y-110490000D03*
%TD*%
D20*
%TO.P,D20,1,K*%
%TO.N,Net-(D16-K)*%
X163576000Y-137160000D03*
D21*
%TO.P,D20,2,A*%
%TO.N,Net-(D20-A)*%
X163576000Y-129540000D03*
%TD*%
D20*
%TO.P,D8,1,K*%
%TO.N,Net-(D10-K)*%
X125476000Y-99060000D03*
D21*
%TO.P,D8,2,A*%
%TO.N,Net-(D8-A)*%
X125476000Y-91440000D03*
%TD*%
D20*
%TO.P,D1,1,K*%
%TO.N,Net-(D1-K)*%
X87376000Y-80010000D03*
D21*
%TO.P,D1,2,A*%
%TO.N,Net-(D1-A)*%
X87376000Y-72390000D03*
%TD*%
D20*
%TO.P,D3,1,K*%
%TO.N,Net-(D1-K)*%
X125476000Y-80010000D03*
D21*
%TO.P,D3,2,A*%
%TO.N,Net-(D3-A)*%
X125476000Y-72390000D03*
%TD*%
D20*
%TO.P,D18,1,K*%
%TO.N,Net-(D16-K)*%
X125476000Y-137160000D03*
D21*
%TO.P,D18,2,A*%
%TO.N,Net-(D18-A)*%
X125476000Y-129540000D03*
%TD*%
D20*
%TO.P,D5,1,K*%
%TO.N,Net-(D1-K)*%
X163576000Y-80010000D03*
D21*
%TO.P,D5,2,A*%
%TO.N,Net-(D5-A)*%
X163576000Y-72390000D03*
%TD*%
D22*
%TO.N,Net-(D1-K)*%
X125730000Y-61976000D03*
%TO.N,Net-(D10-K)*%
X123190000Y-61976000D03*
%TO.N,Net-(D11-K)*%
X120650000Y-61976000D03*
%TO.N,Net-(D16-K)*%
X118110000Y-61976000D03*
%TO.N,GND*%
X140970000Y-42164000D03*
X115570000Y-41910000D03*
X153670000Y-42164000D03*
X115570000Y-54610000D03*
X140970000Y-54610000D03*
X153670000Y-61722000D03*
X128270000Y-54610000D03*
%TD*%
D23*
%TO.N,Net-(D1-K)*%
X125730000Y-58458000D02*
X125730000Y-61976000D01*
%TO.N,Net-(D10-K)*%
X123190000Y-58458000D02*
X123190000Y-61976000D01*
X123190000Y-58458000D02*
X122974000Y-58458000D01*
X122974000Y-58458000D02*
X122936000Y-58420000D01*
%TO.N,Net-(D11-K)*%
X120650000Y-58458000D02*
X120650000Y-61976000D01*
%TO.N,Net-(D16-K)*%
X118110000Y-58458000D02*
X118110000Y-61976000D01*
%TO.N,GND*%
X115570000Y-58458000D02*
X115570000Y-54610000D01*
X153670000Y-58458000D02*
X153670000Y-61722000D01*
X115570000Y-39078000D02*
X115570000Y-41910000D01*
X128270000Y-58458000D02*
X128270000Y-54610000D01*
X140970000Y-39078000D02*
X140970000Y-42164000D01*
X140970000Y-58458000D02*
X140970000Y-54610000D01*
X153670000Y-42164000D02*
X153670000Y-42418000D01*
X153670000Y-39078000D02*
X153670000Y-42164000D01*
%TO.N,Net-(BFEncoder_1-Pin_3)*%
X82931000Y-135001000D02*
X82931000Y-64135000D01*
X113030000Y-59204160D02*
X113030000Y-58458000D01*
X86106000Y-60960000D02*
X111274160Y-60960000D01*
X83604148Y-147779620D02*
X83604148Y-135674148D01*
X82931000Y-64135000D02*
X86106000Y-60960000D01*
X111274160Y-60960000D02*
X113030000Y-59204160D01*
X83604148Y-135674148D02*
X82931000Y-135001000D01*
%TO.N,Net-(BFEncoder_1-Pin_2)*%
X85344000Y-59436000D02*
X82042000Y-62738000D01*
X82042000Y-62738000D02*
X82042000Y-135382000D01*
X82042000Y-135382000D02*
X81836381Y-135587619D01*
X81836381Y-135587619D02*
X81836381Y-146011853D01*
X109512000Y-59436000D02*
X85344000Y-59436000D01*
X110490000Y-58458000D02*
X109512000Y-59436000D01*
D24*
%TO.N,Net-(BFEncoder_1-Pin_4)*%
X89377302Y-145542000D02*
X85371915Y-149547387D01*
X146784000Y-30120000D02*
X145408000Y-31496000D01*
X189171387Y-148140613D02*
X185420000Y-151892000D01*
X181356000Y-151892000D02*
X175006000Y-145542000D01*
X163576000Y-56388000D02*
X163576000Y-37411420D01*
X185420000Y-62230000D02*
X181864000Y-58674000D01*
X125128000Y-31496000D02*
X126652000Y-29972000D01*
X126652000Y-29972000D02*
X143884000Y-29972000D01*
X181864000Y-58674000D02*
X165862000Y-58674000D01*
X120650000Y-39078000D02*
X120650000Y-35974000D01*
X163576000Y-37411420D02*
X156284580Y-30120000D01*
X185420000Y-140492698D02*
X185420000Y-62230000D01*
X189171387Y-144244085D02*
X189171387Y-148140613D01*
X165862000Y-58674000D02*
X163576000Y-56388000D01*
X120650000Y-35974000D02*
X125128000Y-31496000D01*
X156284580Y-30120000D02*
X146784000Y-30120000D01*
X175006000Y-145542000D02*
X89377302Y-145542000D01*
X189171387Y-144244085D02*
X185420000Y-140492698D01*
X143884000Y-29972000D02*
X145408000Y-31496000D01*
X185420000Y-151892000D02*
X181356000Y-151892000D01*
D23*
%TO.N,Net-(BFEncoder_2-Pin_3)*%
X183134000Y-62738000D02*
X180340000Y-59944000D01*
X180340000Y-59944000D02*
X160236000Y-59944000D01*
X183134000Y-141742232D02*
X183134000Y-62738000D01*
X160236000Y-59944000D02*
X158750000Y-58458000D01*
X187403620Y-146011852D02*
X183134000Y-141742232D01*
%TO.N,Net-(BFEncoder_2-Pin_2)*%
X157320000Y-61468000D02*
X156210000Y-60358000D01*
X156210000Y-60358000D02*
X156210000Y-58458000D01*
X185635853Y-147779619D02*
X181610000Y-143753766D01*
X178816000Y-61468000D02*
X157320000Y-61468000D01*
X181610000Y-64262000D02*
X178816000Y-61468000D01*
X181610000Y-143753766D02*
X181610000Y-64262000D01*
%TO.N,unconnected-(Pico_1-VBUS-Pad40)*%
X110490000Y-39370000D02*
X110744000Y-39624000D01*
X110490000Y-39078000D02*
X110490000Y-39370000D01*
%TO.N,Net-(Pico_1-GP13)*%
X162052000Y-46789840D02*
X162052000Y-38608000D01*
X151130000Y-57711840D02*
X162052000Y-46789840D01*
X151130000Y-58458000D02*
X151130000Y-57711840D01*
X162052000Y-38608000D02*
X156972000Y-33528000D01*
X156972000Y-33528000D02*
X154940000Y-33528000D01*
X154940000Y-33528000D02*
X152908000Y-31496000D01*
%TO.N,Net-(Pico_1-GP9)*%
X138430000Y-61214000D02*
X144526000Y-67310000D01*
X138430000Y-58458000D02*
X138430000Y-61214000D01*
X156210000Y-67310000D02*
X156210000Y-124460000D01*
X144526000Y-67310000D02*
X156210000Y-67310000D01*
%TO.N,Net-(Pico_1-GP10)*%
X146652000Y-63500000D02*
X171450000Y-63500000D01*
X175260000Y-67310000D02*
X175260000Y-124460000D01*
X171450000Y-63500000D02*
X175260000Y-67310000D01*
X143510000Y-60358000D02*
X146652000Y-63500000D01*
X143510000Y-58458000D02*
X143510000Y-60358000D01*
%TO.N,Net-(Pico_1-GP16)*%
X150408000Y-31496000D02*
X152948000Y-34036000D01*
X158750000Y-37846000D02*
X158750000Y-39078000D01*
X152948000Y-34036000D02*
X154940000Y-34036000D01*
X154940000Y-34036000D02*
X158750000Y-37846000D01*
%TO.N,Net-(Pico_1-GP6)*%
X99060000Y-67310000D02*
X99060000Y-124460000D01*
X100861000Y-65509000D02*
X99060000Y-67310000D01*
X130810000Y-58458000D02*
X130810000Y-60358000D01*
X130810000Y-60358000D02*
X125659000Y-65509000D01*
X125659000Y-65509000D02*
X100861000Y-65509000D01*
%TO.N,Net-(Pico_1-GP17)*%
X151464000Y-35052000D02*
X153924000Y-35052000D01*
X153924000Y-35052000D02*
X156210000Y-37338000D01*
X156210000Y-37338000D02*
X156210000Y-39078000D01*
X147908000Y-31496000D02*
X151464000Y-35052000D01*
%TO.N,Net-(Pico_1-GP19)*%
X148590000Y-37178000D02*
X148590000Y-39078000D01*
X145448000Y-34036000D02*
X148590000Y-37178000D01*
X135168000Y-34036000D02*
X145448000Y-34036000D01*
X132628000Y-31496000D02*
X135168000Y-34036000D01*
%TO.N,Net-(Pico_1-GP20)*%
X130128000Y-31496000D02*
X133684000Y-35052000D01*
X146050000Y-37178000D02*
X146050000Y-39078000D01*
X143924000Y-35052000D02*
X146050000Y-37178000D01*
X133684000Y-35052000D02*
X143924000Y-35052000D01*
%TO.N,Net-(Pico_1-GP21)*%
X142400000Y-36068000D02*
X143510000Y-37178000D01*
X143510000Y-37178000D02*
X143510000Y-39078000D01*
X127628000Y-31496000D02*
X132200000Y-36068000D01*
X132200000Y-36068000D02*
X142400000Y-36068000D01*
%TO.N,Net-(Pico_1-GP7)*%
X118110000Y-67310000D02*
X118110000Y-124460000D01*
X126746000Y-67310000D02*
X118110000Y-67310000D01*
X133350000Y-60706000D02*
X126746000Y-67310000D01*
X133350000Y-58458000D02*
X133350000Y-60706000D01*
%TO.N,Net-(Pico_1-GP8)*%
X135890000Y-58458000D02*
X135890000Y-61214000D01*
X135890000Y-61214000D02*
X137160000Y-62484000D01*
X137160000Y-62484000D02*
X137160000Y-67310000D01*
X137160000Y-67310000D02*
X137160000Y-124460000D01*
%TO.N,Net-(Pico_1-GP18)*%
X147028000Y-33020000D02*
X151130000Y-37122000D01*
X151130000Y-37122000D02*
X151130000Y-39078000D01*
X136652000Y-33020000D02*
X147028000Y-33020000D01*
X135128000Y-31496000D02*
X136652000Y-33020000D01*
%TO.N,Net-(Pico_1-GP22)*%
X138430000Y-40978000D02*
X138430000Y-39078000D01*
X111760000Y-44196000D02*
X135212000Y-44196000D01*
X135212000Y-44196000D02*
X138430000Y-40978000D01*
X108204000Y-40640000D02*
X111760000Y-44196000D01*
X108204000Y-36830000D02*
X108204000Y-40640000D01*
X113538000Y-31496000D02*
X108204000Y-36830000D01*
X114808000Y-31496000D02*
X113538000Y-31496000D01*
%TD*%
M02*
