%TF.GenerationSoftware,KiCad,Pcbnew,9.0.6*%
%TF.CreationDate,2026-03-12T21:42:51+05:30*%
%TF.ProjectId,Macropad,4d616372-6f70-4616-942e-6b696361645f,rev?*%
%TF.SameCoordinates,Original*%
%TF.FileFunction,Profile,NP*%
%FSLAX46Y46*%
G04 Gerber Fmt 4.6, Leading zero omitted, Abs format (unit mm)*
G04 Created by KiCad (PCBNEW 9.0.6) date 2026-03-12 21:42:51*
%MOMM*%
%LPD*%
G01*
G04 APERTURE LIST*
%TA.AperFunction,Profile*%
%ADD10C,0.050000*%
%TD*%
G04 APERTURE END LIST*
D10*
X71120000Y-147320000D02*
X82042000Y-158242000D01*
X106680000Y-40640000D02*
X106680000Y-33020000D01*
X165100000Y-33020000D02*
G75*
G02*
X167640000Y-35560000I0J-2540000D01*
G01*
X157321000Y-142240000D02*
G75*
G02*
X154019000Y-142240000I-1651000J0D01*
G01*
X154019000Y-142240000D02*
G75*
G02*
X157321000Y-142240000I1651000J0D01*
G01*
X187960000Y-132080000D02*
X187960000Y-63500000D01*
X68580000Y-144780000D02*
G75*
G02*
X76200000Y-137160000I7620000J0D01*
G01*
X160020000Y-24130000D02*
X160020000Y-30480000D01*
X187198000Y-158242000D02*
X184912000Y-160528000D01*
X91948000Y-152908000D02*
G75*
G02*
X84328000Y-160528000I-7620000J0D01*
G01*
X81280000Y-132080000D02*
X81280000Y-63500000D01*
X106680000Y-33020000D02*
G75*
G02*
X107950000Y-31750000I1270000J0D01*
G01*
X162560000Y-33020000D02*
X165100000Y-33020000D01*
X109220000Y-30480000D02*
G75*
G02*
X107950000Y-31750000I-1270000J0D01*
G01*
X98171000Y-142240000D02*
G75*
G02*
X94869000Y-142240000I-1651000J0D01*
G01*
X94869000Y-142240000D02*
G75*
G02*
X98171000Y-142240000I1651000J0D01*
G01*
X174371000Y-142240000D02*
G75*
G02*
X171069000Y-142240000I-1651000J0D01*
G01*
X171069000Y-142240000D02*
G75*
G02*
X174371000Y-142240000I1651000J0D01*
G01*
X107696000Y-41656000D02*
G75*
G02*
X106680000Y-40640000I0J1016000D01*
G01*
X172212000Y-147828000D02*
X134620000Y-147828000D01*
X91948000Y-152908000D02*
G75*
G02*
X97028000Y-147828000I5080000J0D01*
G01*
X71120000Y-147320000D02*
X68580000Y-144780000D01*
X158750000Y-22860000D02*
G75*
G02*
X160020000Y-24130000I0J-1270000D01*
G01*
X177800000Y-53340000D02*
G75*
G02*
X187960000Y-63500000I0J-10160000D01*
G01*
X81280000Y-63500000D02*
G75*
G02*
X86360000Y-58420000I5080000J0D01*
G01*
X198120000Y-147320000D02*
X187198000Y-158242000D01*
X170180000Y-53340000D02*
G75*
G02*
X167640000Y-50800000I0J2540000D01*
G01*
X81280000Y-132080000D02*
G75*
G02*
X76200000Y-137160000I-5080000J0D01*
G01*
X109220000Y-24130000D02*
G75*
G02*
X110490000Y-22860000I1270000J0D01*
G01*
X82042000Y-158242000D02*
X84328000Y-160528000D01*
X86360000Y-58420000D02*
X106680000Y-58420000D01*
X162560000Y-33020000D02*
G75*
G02*
X160020000Y-30480000I0J2540000D01*
G01*
X170180000Y-53340000D02*
X177800000Y-53340000D01*
X193040000Y-137160000D02*
G75*
G02*
X187960000Y-132080000I0J5080000D01*
G01*
X198120000Y-147320000D02*
X200660000Y-144780000D01*
X177800000Y-55880000D02*
G75*
G02*
X174498000Y-55880000I-1651000J0D01*
G01*
X174498000Y-55880000D02*
G75*
G02*
X177800000Y-55880000I1651000J0D01*
G01*
X184912000Y-160528000D02*
G75*
G02*
X177292000Y-152908000I0J7620000D01*
G01*
X193040000Y-137160000D02*
G75*
G02*
X200660000Y-144780000I0J-7620000D01*
G01*
X97028000Y-147828000D02*
X134620000Y-147828000D01*
X167640000Y-35560000D02*
X167640000Y-50800000D01*
X109220000Y-24130000D02*
X109220000Y-30480000D01*
X108966000Y-56134000D02*
G75*
G02*
X106680000Y-58420000I-2286000J0D01*
G01*
X172212000Y-147828000D02*
G75*
G02*
X177292000Y-152908000I0J-5080000D01*
G01*
X110490000Y-22860000D02*
X134620000Y-22860000D01*
X108966000Y-42926000D02*
X108966000Y-56134000D01*
X115221000Y-142240000D02*
G75*
G02*
X111919000Y-142240000I-1651000J0D01*
G01*
X111919000Y-142240000D02*
G75*
G02*
X115221000Y-142240000I1651000J0D01*
G01*
X170561000Y-55880000D02*
G75*
G02*
X167259000Y-55880000I-1651000J0D01*
G01*
X167259000Y-55880000D02*
G75*
G02*
X170561000Y-55880000I1651000J0D01*
G01*
X158750000Y-22860000D02*
X134620000Y-22860000D01*
X107696000Y-41656000D02*
G75*
G02*
X108966000Y-42926000I0J-1270000D01*
G01*
M02*
