M48
; DRILL file {KiCad 9.0.6} date 2026-03-12T21:42:54+0530
; FORMAT={-:-/ absolute / metric / decimal}
; #@! TF.CreationDate,2026-03-12T21:42:54+05:30
; #@! TF.GenerationSoftware,Kicad,Pcbnew,9.0.6
; #@! TF.FileFunction,Plated,1,2,PTH
FMAT,2
METRIC
; #@! TA.AperFunction,Plated,PTH,ViaDrill
T1C0.300
; #@! TA.AperFunction,Plated,PTH,ComponentDrill
T2C0.800
; #@! TA.AperFunction,Plated,PTH,ComponentDrill
T3C0.950
; #@! TA.AperFunction,Plated,PTH,ComponentDrill
T4C1.000
; #@! TA.AperFunction,Plated,PTH,ComponentDrill
T5C1.550
%
G90
G05
T1
X115.57Y-41.91
X115.57Y-54.61
X118.11Y-61.976
X120.65Y-61.976
X123.19Y-61.976
X125.73Y-61.976
X128.27Y-54.61
X140.97Y-42.164
X140.97Y-54.61
X153.67Y-42.164
X153.67Y-61.722
T2
X87.376Y-72.39
X87.376Y-80.01
X87.376Y-91.44
X87.376Y-99.06
X87.376Y-110.49
X87.376Y-118.11
X87.376Y-129.54
X87.376Y-137.16
X106.426Y-72.39
X106.426Y-80.01
X106.426Y-91.44
X106.426Y-99.06
X106.426Y-110.49
X106.426Y-118.11
X106.426Y-129.54
X106.426Y-137.16
X125.476Y-72.39
X125.476Y-80.01
X125.476Y-91.44
X125.476Y-99.06
X125.476Y-110.49
X125.476Y-118.11
X125.476Y-129.54
X125.476Y-137.16
X144.526Y-72.39
X144.526Y-80.01
X144.526Y-91.44
X144.526Y-99.06
X144.526Y-110.49
X144.526Y-118.11
X144.526Y-129.54
X144.526Y-137.16
X163.576Y-72.39
X163.576Y-80.01
X163.576Y-91.44
X163.576Y-99.06
X163.576Y-110.49
X163.576Y-118.11
X163.576Y-129.54
X163.576Y-137.16
T3
X80.069Y-144.244
X81.836Y-146.012
X83.604Y-147.78
X85.372Y-149.547
X125.128Y-31.496
X127.628Y-31.496
X130.128Y-31.496
X132.628Y-31.496
X135.128Y-31.496
X137.628Y-31.496
X145.408Y-31.496
X147.908Y-31.496
X150.408Y-31.496
X152.908Y-31.496
X155.408Y-31.496
X183.868Y-149.547
X185.636Y-147.78
X187.404Y-146.012
X189.171Y-144.244
T4
X114.808Y-31.496
X117.308Y-31.496
T5
X92.71Y-69.85
X92.71Y-88.9
X92.71Y-107.95
X92.71Y-127.0
X99.06Y-67.31
X99.06Y-86.36
X99.06Y-105.41
X99.06Y-124.46
X111.76Y-69.85
X111.76Y-88.9
X111.76Y-107.95
X111.76Y-127.0
X118.11Y-67.31
X118.11Y-86.36
X118.11Y-105.41
X118.11Y-124.46
X130.81Y-69.85
X130.81Y-88.9
X130.81Y-107.95
X130.81Y-127.0
X137.16Y-67.31
X137.16Y-86.36
X137.16Y-105.41
X137.16Y-124.46
X149.86Y-69.85
X149.86Y-88.9
X149.86Y-107.95
X149.86Y-127.0
X156.21Y-67.31
X156.21Y-86.36
X156.21Y-105.41
X156.21Y-124.46
X168.91Y-69.85
X168.91Y-88.9
X168.91Y-107.95
X168.91Y-127.0
X175.26Y-67.31
X175.26Y-86.36
X175.26Y-105.41
X175.26Y-124.46
M30
