%TF.GenerationSoftware,KiCad,Pcbnew,9.0.6*%
%TF.CreationDate,2026-03-12T21:42:51+05:30*%
%TF.ProjectId,Macropad,4d616372-6f70-4616-942e-6b696361645f,rev?*%
%TF.SameCoordinates,Original*%
%TF.FileFunction,Soldermask,Top*%
%TF.FilePolarity,Negative*%
%FSLAX46Y46*%
G04 Gerber Fmt 4.6, Leading zero omitted, Abs format (unit mm)*
G04 Created by KiCad (PCBNEW 9.0.6) date 2026-03-12 21:42:51*
%MOMM*%
%LPD*%
G01*
G04 APERTURE LIST*
G04 Aperture macros list*
%AMRoundRect*
0 Rectangle with rounded corners*
0 $1 Rounding radius*
0 $2 $3 $4 $5 $6 $7 $8 $9 X,Y pos of 4 corners*
0 Add a 4 corners polygon primitive as box body*
4,1,4,$2,$3,$4,$5,$6,$7,$8,$9,$2,$3,0*
0 Add four circle primitives for the rounded corners*
1,1,$1+$1,$2,$3*
1,1,$1+$1,$4,$5*
1,1,$1+$1,$6,$7*
1,1,$1+$1,$8,$9*
0 Add four rect primitives between the rounded corners*
20,1,$1+$1,$2,$3,$4,$5,0*
20,1,$1+$1,$4,$5,$6,$7,0*
20,1,$1+$1,$6,$7,$8,$9,0*
20,1,$1+$1,$8,$9,$2,$3,0*%
%AMHorizOval*
0 Thick line with rounded ends*
0 $1 width*
0 $2 $3 position (X,Y) of the first rounded end (center of the circle)*
0 $4 $5 position (X,Y) of the second rounded end (center of the circle)*
0 Add line between two ends*
20,1,$1,$2,$3,$4,$5,0*
0 Add two circle primitives to create the rounded ends*
1,1,$1,$2,$3*
1,1,$1,$4,$5*%
G04 Aperture macros list end*
%ADD10RoundRect,0.250000X0.850000X-1.650000X0.850000X1.650000X-0.850000X1.650000X-0.850000X-1.650000X0*%
%ADD11C,4.100000*%
%ADD12C,3.000000*%
%ADD13RoundRect,0.250000X0.600000X0.750000X-0.600000X0.750000X-0.600000X-0.750000X0.600000X-0.750000X0*%
%ADD14O,1.700000X2.000000*%
%ADD15RoundRect,0.250000X-0.936916X-0.088388X-0.088388X-0.936916X0.936916X0.088388X0.088388X0.936916X0*%
%ADD16HorizOval,1.700000X-0.088388X-0.088388X0.088388X0.088388X0*%
%ADD17RoundRect,0.250000X0.088388X-0.936916X0.936916X-0.088388X-0.088388X0.936916X-0.936916X0.088388X0*%
%ADD18HorizOval,1.700000X-0.088388X0.088388X0.088388X-0.088388X0*%
%ADD19RoundRect,0.250000X0.600000X0.725000X-0.600000X0.725000X-0.600000X-0.725000X0.600000X-0.725000X0*%
%ADD20O,1.700000X1.950000*%
%ADD21RoundRect,0.250000X0.550000X-0.550000X0.550000X0.550000X-0.550000X0.550000X-0.550000X-0.550000X0*%
%ADD22C,1.600000*%
G04 APERTURE END LIST*
D10*
%TO.C,Pi_Pico_1*%
X110490000Y-39078000D03*
X113030000Y-39078000D03*
X115570000Y-39078000D03*
X118110000Y-39078000D03*
X120650000Y-39078000D03*
X123190000Y-39078000D03*
X125730000Y-39078000D03*
X128270000Y-39078000D03*
X130810000Y-39078000D03*
X133350000Y-39078000D03*
X135890000Y-39078000D03*
X138430000Y-39078000D03*
X140970000Y-39078000D03*
X143510000Y-39078000D03*
X146050000Y-39078000D03*
X148590000Y-39078000D03*
X151130000Y-39078000D03*
X153670000Y-39078000D03*
X156210000Y-39078000D03*
X158750000Y-39078000D03*
X158750000Y-58458000D03*
X156210000Y-58458000D03*
X153670000Y-58458000D03*
X151130000Y-58458000D03*
X148590000Y-58458000D03*
X146050000Y-58458000D03*
X143510000Y-58458000D03*
X140970000Y-58458000D03*
X138430000Y-58458000D03*
X135890000Y-58458000D03*
X133350000Y-58458000D03*
X130810000Y-58458000D03*
X128270000Y-58458000D03*
X125730000Y-58458000D03*
X123190000Y-58458000D03*
X120650000Y-58458000D03*
X118110000Y-58458000D03*
X115570000Y-58458000D03*
X113030000Y-58458000D03*
X110490000Y-58458000D03*
%TD*%
D11*
%TO.C,SW5*%
X172720000Y-72390000D03*
D12*
X168910000Y-69850000D03*
X175260000Y-67310000D03*
%TD*%
D11*
%TO.C,SW16*%
X96520000Y-129540000D03*
D12*
X92710000Y-127000000D03*
X99060000Y-124460000D03*
%TD*%
D11*
%TO.C,SW2*%
X115570000Y-72390000D03*
D12*
X111760000Y-69850000D03*
X118110000Y-67310000D03*
%TD*%
D13*
%TO.C,TSW_1*%
X117308000Y-31496000D03*
D14*
X114808000Y-31496000D03*
%TD*%
D11*
%TO.C,SW10*%
X172720000Y-91440000D03*
D12*
X168910000Y-88900000D03*
X175260000Y-86360000D03*
%TD*%
D11*
%TO.C,SW13*%
X134620000Y-110490000D03*
D12*
X130810000Y-107950000D03*
X137160000Y-105410000D03*
%TD*%
D11*
%TO.C,SW12*%
X115570000Y-110490000D03*
D12*
X111760000Y-107950000D03*
X118110000Y-105410000D03*
%TD*%
D11*
%TO.C,SW3*%
X134620000Y-72390000D03*
D12*
X130810000Y-69850000D03*
X137160000Y-67310000D03*
%TD*%
D11*
%TO.C,SW14*%
X153670000Y-110490000D03*
D12*
X149860000Y-107950000D03*
X156210000Y-105410000D03*
%TD*%
D11*
%TO.C,SW4*%
X153670000Y-72390000D03*
D12*
X149860000Y-69850000D03*
X156210000Y-67310000D03*
%TD*%
D11*
%TO.C,SW1*%
X96520000Y-72390000D03*
D12*
X92710000Y-69850000D03*
X99060000Y-67310000D03*
%TD*%
D11*
%TO.C,SW11*%
X96520000Y-110490000D03*
D12*
X92710000Y-107950000D03*
X99060000Y-105410000D03*
%TD*%
D11*
%TO.C,SW15*%
X172720000Y-110490000D03*
D12*
X168910000Y-107950000D03*
X175260000Y-105410000D03*
%TD*%
D15*
%TO.C,BFEncoder_1*%
X80068614Y-144244086D03*
D16*
X81836381Y-146011853D03*
X83604148Y-147779620D03*
X85371915Y-149547387D03*
%TD*%
D11*
%TO.C,SW6*%
X96520000Y-91440000D03*
D12*
X92710000Y-88900000D03*
X99060000Y-86360000D03*
%TD*%
D11*
%TO.C,SW18*%
X134620000Y-129540000D03*
D12*
X130810000Y-127000000D03*
X137160000Y-124460000D03*
%TD*%
D17*
%TO.C,BFEncoder_2*%
X183868086Y-149547386D03*
D18*
X185635853Y-147779619D03*
X187403620Y-146011852D03*
X189171387Y-144244085D03*
%TD*%
D11*
%TO.C,SW9*%
X153670000Y-91440000D03*
D12*
X149860000Y-88900000D03*
X156210000Y-86360000D03*
%TD*%
D11*
%TO.C,SW17*%
X115570000Y-129540000D03*
D12*
X111760000Y-127000000D03*
X118110000Y-124460000D03*
%TD*%
D11*
%TO.C,SW20*%
X172720000Y-129540000D03*
D12*
X168910000Y-127000000D03*
X175260000Y-124460000D03*
%TD*%
D11*
%TO.C,SW8*%
X134620000Y-91440000D03*
D12*
X130810000Y-88900000D03*
X137160000Y-86360000D03*
%TD*%
D19*
%TO.C,SPI_Screen_1*%
X137628000Y-31496000D03*
D20*
X135128000Y-31496000D03*
X132628000Y-31496000D03*
X130128000Y-31496000D03*
X127628000Y-31496000D03*
X125128000Y-31496000D03*
%TD*%
D11*
%TO.C,SW19*%
X153670000Y-129540000D03*
D12*
X149860000Y-127000000D03*
X156210000Y-124460000D03*
%TD*%
D19*
%TO.C,Vol_Encoder_1*%
X155408000Y-31496000D03*
D20*
X152908000Y-31496000D03*
X150408000Y-31496000D03*
X147908000Y-31496000D03*
X145408000Y-31496000D03*
%TD*%
D11*
%TO.C,SW7*%
X115570000Y-91440000D03*
D12*
X111760000Y-88900000D03*
X118110000Y-86360000D03*
%TD*%
D21*
%TO.C,D9*%
X144526000Y-99060000D03*
D22*
X144526000Y-91440000D03*
%TD*%
D21*
%TO.C,D11*%
X87376000Y-118110000D03*
D22*
X87376000Y-110490000D03*
%TD*%
D21*
%TO.C,D12*%
X106426000Y-118110000D03*
D22*
X106426000Y-110490000D03*
%TD*%
D21*
%TO.C,D16*%
X87376000Y-137160000D03*
D22*
X87376000Y-129540000D03*
%TD*%
D21*
%TO.C,D17*%
X106426000Y-137160000D03*
D22*
X106426000Y-129540000D03*
%TD*%
D21*
%TO.C,D19*%
X144526000Y-137160000D03*
D22*
X144526000Y-129540000D03*
%TD*%
D21*
%TO.C,D7*%
X106426000Y-99060000D03*
D22*
X106426000Y-91440000D03*
%TD*%
D21*
%TO.C,D2*%
X106426000Y-80010000D03*
D22*
X106426000Y-72390000D03*
%TD*%
D21*
%TO.C,D4*%
X144526000Y-80010000D03*
D22*
X144526000Y-72390000D03*
%TD*%
D21*
%TO.C,D13*%
X125476000Y-118110000D03*
D22*
X125476000Y-110490000D03*
%TD*%
D21*
%TO.C,D15*%
X163576000Y-118110000D03*
D22*
X163576000Y-110490000D03*
%TD*%
D21*
%TO.C,D10*%
X163576000Y-99060000D03*
D22*
X163576000Y-91440000D03*
%TD*%
D21*
%TO.C,D6*%
X87376000Y-99060000D03*
D22*
X87376000Y-91440000D03*
%TD*%
D21*
%TO.C,D14*%
X144526000Y-118110000D03*
D22*
X144526000Y-110490000D03*
%TD*%
D21*
%TO.C,D20*%
X163576000Y-137160000D03*
D22*
X163576000Y-129540000D03*
%TD*%
D21*
%TO.C,D8*%
X125476000Y-99060000D03*
D22*
X125476000Y-91440000D03*
%TD*%
D21*
%TO.C,D1*%
X87376000Y-80010000D03*
D22*
X87376000Y-72390000D03*
%TD*%
D21*
%TO.C,D3*%
X125476000Y-80010000D03*
D22*
X125476000Y-72390000D03*
%TD*%
D21*
%TO.C,D18*%
X125476000Y-137160000D03*
D22*
X125476000Y-129540000D03*
%TD*%
D21*
%TO.C,D5*%
X163576000Y-80010000D03*
D22*
X163576000Y-72390000D03*
%TD*%
M02*
