M48
; DRILL file {KiCad 9.0.6} date 2026-03-12T21:42:54+0530
; FORMAT={-:-/ absolute / metric / decimal}
; #@! TF.CreationDate,2026-03-12T21:42:54+05:30
; #@! TF.GenerationSoftware,Kicad,Pcbnew,9.0.6
; #@! TF.FileFunction,NonPlated,1,2,NPTH
FMAT,2
METRIC
; #@! TA.AperFunction,NonPlated,NPTH,ComponentDrill
T1C4.100
%
G90
G05
T1
X96.52Y-72.39
X96.52Y-91.44
X96.52Y-110.49
X96.52Y-129.54
X115.57Y-72.39
X115.57Y-91.44
X115.57Y-110.49
X115.57Y-129.54
X134.62Y-72.39
X134.62Y-91.44
X134.62Y-110.49
X134.62Y-129.54
X153.67Y-72.39
X153.67Y-91.44
X153.67Y-110.49
X153.67Y-129.54
X172.72Y-72.39
X172.72Y-91.44
X172.72Y-110.49
X172.72Y-129.54
M30
