%TF.GenerationSoftware,KiCad,Pcbnew,9.0.6*%
%TF.CreationDate,2026-03-12T21:42:51+05:30*%
%TF.ProjectId,Macropad,4d616372-6f70-4616-942e-6b696361645f,rev?*%
%TF.SameCoordinates,Original*%
%TF.FileFunction,Legend,Top*%
%TF.FilePolarity,Positive*%
%FSLAX46Y46*%
G04 Gerber Fmt 4.6, Leading zero omitted, Abs format (unit mm)*
G04 Created by KiCad (PCBNEW 9.0.6) date 2026-03-12 21:42:51*
%MOMM*%
%LPD*%
G01*
G04 APERTURE LIST*
%ADD10C,0.400000*%
%ADD11C,0.300000*%
%ADD12C,0.100000*%
%ADD13C,0.150000*%
%ADD14C,1.050000*%
%ADD15C,0.120000*%
G04 APERTURE END LIST*
D10*
X163432819Y-55815238D02*
X163432819Y-56481905D01*
X164480438Y-56481905D02*
X162480438Y-56481905D01*
X162480438Y-56481905D02*
X162480438Y-55529524D01*
X164480438Y-54767619D02*
X163147104Y-54767619D01*
X162480438Y-54767619D02*
X162575676Y-54862857D01*
X162575676Y-54862857D02*
X162670914Y-54767619D01*
X162670914Y-54767619D02*
X162575676Y-54672381D01*
X162575676Y-54672381D02*
X162480438Y-54767619D01*
X162480438Y-54767619D02*
X162670914Y-54767619D01*
X163147104Y-53815238D02*
X164480438Y-53815238D01*
X163337580Y-53815238D02*
X163242342Y-53720000D01*
X163242342Y-53720000D02*
X163147104Y-53529524D01*
X163147104Y-53529524D02*
X163147104Y-53243809D01*
X163147104Y-53243809D02*
X163242342Y-53053333D01*
X163242342Y-53053333D02*
X163432819Y-52958095D01*
X163432819Y-52958095D02*
X164480438Y-52958095D01*
X164385200Y-51243809D02*
X164480438Y-51434285D01*
X164480438Y-51434285D02*
X164480438Y-51815238D01*
X164480438Y-51815238D02*
X164385200Y-52005714D01*
X164385200Y-52005714D02*
X164194723Y-52100952D01*
X164194723Y-52100952D02*
X163432819Y-52100952D01*
X163432819Y-52100952D02*
X163242342Y-52005714D01*
X163242342Y-52005714D02*
X163147104Y-51815238D01*
X163147104Y-51815238D02*
X163147104Y-51434285D01*
X163147104Y-51434285D02*
X163242342Y-51243809D01*
X163242342Y-51243809D02*
X163432819Y-51148571D01*
X163432819Y-51148571D02*
X163623295Y-51148571D01*
X163623295Y-51148571D02*
X163813771Y-52100952D01*
X164480438Y-50291428D02*
X162480438Y-50291428D01*
X162480438Y-50291428D02*
X162480438Y-49529523D01*
X162480438Y-49529523D02*
X162575676Y-49339047D01*
X162575676Y-49339047D02*
X162670914Y-49243809D01*
X162670914Y-49243809D02*
X162861390Y-49148571D01*
X162861390Y-49148571D02*
X163147104Y-49148571D01*
X163147104Y-49148571D02*
X163337580Y-49243809D01*
X163337580Y-49243809D02*
X163432819Y-49339047D01*
X163432819Y-49339047D02*
X163528057Y-49529523D01*
X163528057Y-49529523D02*
X163528057Y-50291428D01*
X164480438Y-47434285D02*
X163432819Y-47434285D01*
X163432819Y-47434285D02*
X163242342Y-47529523D01*
X163242342Y-47529523D02*
X163147104Y-47719999D01*
X163147104Y-47719999D02*
X163147104Y-48100952D01*
X163147104Y-48100952D02*
X163242342Y-48291428D01*
X164385200Y-47434285D02*
X164480438Y-47624761D01*
X164480438Y-47624761D02*
X164480438Y-48100952D01*
X164480438Y-48100952D02*
X164385200Y-48291428D01*
X164385200Y-48291428D02*
X164194723Y-48386666D01*
X164194723Y-48386666D02*
X164004247Y-48386666D01*
X164004247Y-48386666D02*
X163813771Y-48291428D01*
X163813771Y-48291428D02*
X163718533Y-48100952D01*
X163718533Y-48100952D02*
X163718533Y-47624761D01*
X163718533Y-47624761D02*
X163623295Y-47434285D01*
X164480438Y-45624761D02*
X162480438Y-45624761D01*
X164385200Y-45624761D02*
X164480438Y-45815237D01*
X164480438Y-45815237D02*
X164480438Y-46196190D01*
X164480438Y-46196190D02*
X164385200Y-46386666D01*
X164385200Y-46386666D02*
X164289961Y-46481904D01*
X164289961Y-46481904D02*
X164099485Y-46577142D01*
X164099485Y-46577142D02*
X163528057Y-46577142D01*
X163528057Y-46577142D02*
X163337580Y-46481904D01*
X163337580Y-46481904D02*
X163242342Y-46386666D01*
X163242342Y-46386666D02*
X163147104Y-46196190D01*
X163147104Y-46196190D02*
X163147104Y-45815237D01*
X163147104Y-45815237D02*
X163242342Y-45624761D01*
X164670914Y-45148571D02*
X164670914Y-43624761D01*
X163147104Y-43339046D02*
X164480438Y-42862856D01*
X164480438Y-42862856D02*
X163147104Y-42386665D01*
X164480438Y-40577141D02*
X164480438Y-41719998D01*
X164480438Y-41148570D02*
X162480438Y-41148570D01*
X162480438Y-41148570D02*
X162766152Y-41339046D01*
X162766152Y-41339046D02*
X162956628Y-41529522D01*
X162956628Y-41529522D02*
X163051866Y-41719998D01*
X164289961Y-39719998D02*
X164385200Y-39624760D01*
X164385200Y-39624760D02*
X164480438Y-39719998D01*
X164480438Y-39719998D02*
X164385200Y-39815236D01*
X164385200Y-39815236D02*
X164289961Y-39719998D01*
X164289961Y-39719998D02*
X164480438Y-39719998D01*
X162480438Y-38386665D02*
X162480438Y-38196188D01*
X162480438Y-38196188D02*
X162575676Y-38005712D01*
X162575676Y-38005712D02*
X162670914Y-37910474D01*
X162670914Y-37910474D02*
X162861390Y-37815236D01*
X162861390Y-37815236D02*
X163242342Y-37719998D01*
X163242342Y-37719998D02*
X163718533Y-37719998D01*
X163718533Y-37719998D02*
X164099485Y-37815236D01*
X164099485Y-37815236D02*
X164289961Y-37910474D01*
X164289961Y-37910474D02*
X164385200Y-38005712D01*
X164385200Y-38005712D02*
X164480438Y-38196188D01*
X164480438Y-38196188D02*
X164480438Y-38386665D01*
X164480438Y-38386665D02*
X164385200Y-38577141D01*
X164385200Y-38577141D02*
X164289961Y-38672379D01*
X164289961Y-38672379D02*
X164099485Y-38767617D01*
X164099485Y-38767617D02*
X163718533Y-38862855D01*
X163718533Y-38862855D02*
X163242342Y-38862855D01*
X163242342Y-38862855D02*
X162861390Y-38767617D01*
X162861390Y-38767617D02*
X162670914Y-38672379D01*
X162670914Y-38672379D02*
X162575676Y-38577141D01*
X162575676Y-38577141D02*
X162480438Y-38386665D01*
X164289961Y-36862855D02*
X164385200Y-36767617D01*
X164385200Y-36767617D02*
X164480438Y-36862855D01*
X164480438Y-36862855D02*
X164385200Y-36958093D01*
X164385200Y-36958093D02*
X164289961Y-36862855D01*
X164289961Y-36862855D02*
X164480438Y-36862855D01*
X162480438Y-35529522D02*
X162480438Y-35339045D01*
X162480438Y-35339045D02*
X162575676Y-35148569D01*
X162575676Y-35148569D02*
X162670914Y-35053331D01*
X162670914Y-35053331D02*
X162861390Y-34958093D01*
X162861390Y-34958093D02*
X163242342Y-34862855D01*
X163242342Y-34862855D02*
X163718533Y-34862855D01*
X163718533Y-34862855D02*
X164099485Y-34958093D01*
X164099485Y-34958093D02*
X164289961Y-35053331D01*
X164289961Y-35053331D02*
X164385200Y-35148569D01*
X164385200Y-35148569D02*
X164480438Y-35339045D01*
X164480438Y-35339045D02*
X164480438Y-35529522D01*
X164480438Y-35529522D02*
X164385200Y-35719998D01*
X164385200Y-35719998D02*
X164289961Y-35815236D01*
X164289961Y-35815236D02*
X164099485Y-35910474D01*
X164099485Y-35910474D02*
X163718533Y-36005712D01*
X163718533Y-36005712D02*
X163242342Y-36005712D01*
X163242342Y-36005712D02*
X162861390Y-35910474D01*
X162861390Y-35910474D02*
X162670914Y-35815236D01*
X162670914Y-35815236D02*
X162575676Y-35719998D01*
X162575676Y-35719998D02*
X162480438Y-35529522D01*
D11*
X151200225Y-62192019D02*
X150533558Y-62192019D01*
X150533558Y-63239638D02*
X150533558Y-61239638D01*
X150533558Y-61239638D02*
X151485939Y-61239638D01*
X152247844Y-63239638D02*
X152247844Y-61906304D01*
X152247844Y-61239638D02*
X152152606Y-61334876D01*
X152152606Y-61334876D02*
X152247844Y-61430114D01*
X152247844Y-61430114D02*
X152343082Y-61334876D01*
X152343082Y-61334876D02*
X152247844Y-61239638D01*
X152247844Y-61239638D02*
X152247844Y-61430114D01*
X153200225Y-63239638D02*
X153200225Y-61906304D01*
X153200225Y-62287257D02*
X153295463Y-62096780D01*
X153295463Y-62096780D02*
X153390701Y-62001542D01*
X153390701Y-62001542D02*
X153581177Y-61906304D01*
X153581177Y-61906304D02*
X153771654Y-61906304D01*
X154438320Y-63239638D02*
X154438320Y-61906304D01*
X154438320Y-62096780D02*
X154533558Y-62001542D01*
X154533558Y-62001542D02*
X154724034Y-61906304D01*
X154724034Y-61906304D02*
X155009749Y-61906304D01*
X155009749Y-61906304D02*
X155200225Y-62001542D01*
X155200225Y-62001542D02*
X155295463Y-62192019D01*
X155295463Y-62192019D02*
X155295463Y-63239638D01*
X155295463Y-62192019D02*
X155390701Y-62001542D01*
X155390701Y-62001542D02*
X155581177Y-61906304D01*
X155581177Y-61906304D02*
X155866891Y-61906304D01*
X155866891Y-61906304D02*
X156057368Y-62001542D01*
X156057368Y-62001542D02*
X156152606Y-62192019D01*
X156152606Y-62192019D02*
X156152606Y-63239638D01*
X156914511Y-61906304D02*
X157295463Y-63239638D01*
X157295463Y-63239638D02*
X157676416Y-62287257D01*
X157676416Y-62287257D02*
X158057368Y-63239638D01*
X158057368Y-63239638D02*
X158438320Y-61906304D01*
X160057368Y-63239638D02*
X160057368Y-62192019D01*
X160057368Y-62192019D02*
X159962130Y-62001542D01*
X159962130Y-62001542D02*
X159771654Y-61906304D01*
X159771654Y-61906304D02*
X159390701Y-61906304D01*
X159390701Y-61906304D02*
X159200225Y-62001542D01*
X160057368Y-63144400D02*
X159866892Y-63239638D01*
X159866892Y-63239638D02*
X159390701Y-63239638D01*
X159390701Y-63239638D02*
X159200225Y-63144400D01*
X159200225Y-63144400D02*
X159104987Y-62953923D01*
X159104987Y-62953923D02*
X159104987Y-62763447D01*
X159104987Y-62763447D02*
X159200225Y-62572971D01*
X159200225Y-62572971D02*
X159390701Y-62477733D01*
X159390701Y-62477733D02*
X159866892Y-62477733D01*
X159866892Y-62477733D02*
X160057368Y-62382495D01*
X161009749Y-63239638D02*
X161009749Y-61906304D01*
X161009749Y-62287257D02*
X161104987Y-62096780D01*
X161104987Y-62096780D02*
X161200225Y-62001542D01*
X161200225Y-62001542D02*
X161390701Y-61906304D01*
X161390701Y-61906304D02*
X161581178Y-61906304D01*
X163009749Y-63144400D02*
X162819273Y-63239638D01*
X162819273Y-63239638D02*
X162438320Y-63239638D01*
X162438320Y-63239638D02*
X162247844Y-63144400D01*
X162247844Y-63144400D02*
X162152606Y-62953923D01*
X162152606Y-62953923D02*
X162152606Y-62192019D01*
X162152606Y-62192019D02*
X162247844Y-62001542D01*
X162247844Y-62001542D02*
X162438320Y-61906304D01*
X162438320Y-61906304D02*
X162819273Y-61906304D01*
X162819273Y-61906304D02*
X163009749Y-62001542D01*
X163009749Y-62001542D02*
X163104987Y-62192019D01*
X163104987Y-62192019D02*
X163104987Y-62382495D01*
X163104987Y-62382495D02*
X162152606Y-62572971D01*
X165485940Y-63239638D02*
X165485940Y-61239638D01*
X165485940Y-62001542D02*
X165676416Y-61906304D01*
X165676416Y-61906304D02*
X166057369Y-61906304D01*
X166057369Y-61906304D02*
X166247845Y-62001542D01*
X166247845Y-62001542D02*
X166343083Y-62096780D01*
X166343083Y-62096780D02*
X166438321Y-62287257D01*
X166438321Y-62287257D02*
X166438321Y-62858685D01*
X166438321Y-62858685D02*
X166343083Y-63049161D01*
X166343083Y-63049161D02*
X166247845Y-63144400D01*
X166247845Y-63144400D02*
X166057369Y-63239638D01*
X166057369Y-63239638D02*
X165676416Y-63239638D01*
X165676416Y-63239638D02*
X165485940Y-63144400D01*
X167104988Y-61906304D02*
X167581178Y-63239638D01*
X168057369Y-61906304D02*
X167581178Y-63239638D01*
X167581178Y-63239638D02*
X167390702Y-63715828D01*
X167390702Y-63715828D02*
X167295464Y-63811066D01*
X167295464Y-63811066D02*
X167104988Y-63906304D01*
X170343084Y-63239638D02*
X170343084Y-61239638D01*
X170533560Y-62477733D02*
X171104989Y-63239638D01*
X171104989Y-61906304D02*
X170343084Y-62668209D01*
X171962132Y-63239638D02*
X171962132Y-61906304D01*
X171962132Y-61239638D02*
X171866894Y-61334876D01*
X171866894Y-61334876D02*
X171962132Y-61430114D01*
X171962132Y-61430114D02*
X172057370Y-61334876D01*
X172057370Y-61334876D02*
X171962132Y-61239638D01*
X171962132Y-61239638D02*
X171962132Y-61430114D01*
X172914513Y-61906304D02*
X172914513Y-63239638D01*
X172914513Y-62096780D02*
X173009751Y-62001542D01*
X173009751Y-62001542D02*
X173200227Y-61906304D01*
X173200227Y-61906304D02*
X173485942Y-61906304D01*
X173485942Y-61906304D02*
X173676418Y-62001542D01*
X173676418Y-62001542D02*
X173771656Y-62192019D01*
X173771656Y-62192019D02*
X173771656Y-63239638D01*
X174724037Y-61906304D02*
X174724037Y-63906304D01*
X174724037Y-62001542D02*
X174914513Y-61906304D01*
X174914513Y-61906304D02*
X175295466Y-61906304D01*
X175295466Y-61906304D02*
X175485942Y-62001542D01*
X175485942Y-62001542D02*
X175581180Y-62096780D01*
X175581180Y-62096780D02*
X175676418Y-62287257D01*
X175676418Y-62287257D02*
X175676418Y-62858685D01*
X175676418Y-62858685D02*
X175581180Y-63049161D01*
X175581180Y-63049161D02*
X175485942Y-63144400D01*
X175485942Y-63144400D02*
X175295466Y-63239638D01*
X175295466Y-63239638D02*
X174914513Y-63239638D01*
X174914513Y-63239638D02*
X174724037Y-63144400D01*
X176533561Y-63239638D02*
X176533561Y-61906304D01*
X176533561Y-62287257D02*
X176628799Y-62096780D01*
X176628799Y-62096780D02*
X176724037Y-62001542D01*
X176724037Y-62001542D02*
X176914513Y-61906304D01*
X176914513Y-61906304D02*
X177104990Y-61906304D01*
X178057370Y-63239638D02*
X177866894Y-63144400D01*
X177866894Y-63144400D02*
X177771656Y-63049161D01*
X177771656Y-63049161D02*
X177676418Y-62858685D01*
X177676418Y-62858685D02*
X177676418Y-62287257D01*
X177676418Y-62287257D02*
X177771656Y-62096780D01*
X177771656Y-62096780D02*
X177866894Y-62001542D01*
X177866894Y-62001542D02*
X178057370Y-61906304D01*
X178057370Y-61906304D02*
X178343085Y-61906304D01*
X178343085Y-61906304D02*
X178533561Y-62001542D01*
X178533561Y-62001542D02*
X178628799Y-62096780D01*
X178628799Y-62096780D02*
X178724037Y-62287257D01*
X178724037Y-62287257D02*
X178724037Y-62858685D01*
X178724037Y-62858685D02*
X178628799Y-63049161D01*
X178628799Y-63049161D02*
X178533561Y-63144400D01*
X178533561Y-63144400D02*
X178343085Y-63239638D01*
X178343085Y-63239638D02*
X178057370Y-63239638D01*
X180628799Y-63239638D02*
X179485942Y-63239638D01*
X180057370Y-63239638D02*
X180057370Y-61239638D01*
X180057370Y-61239638D02*
X179866894Y-61525352D01*
X179866894Y-61525352D02*
X179676418Y-61715828D01*
X179676418Y-61715828D02*
X179485942Y-61811066D01*
X181866894Y-61239638D02*
X182057371Y-61239638D01*
X182057371Y-61239638D02*
X182247847Y-61334876D01*
X182247847Y-61334876D02*
X182343085Y-61430114D01*
X182343085Y-61430114D02*
X182438323Y-61620590D01*
X182438323Y-61620590D02*
X182533561Y-62001542D01*
X182533561Y-62001542D02*
X182533561Y-62477733D01*
X182533561Y-62477733D02*
X182438323Y-62858685D01*
X182438323Y-62858685D02*
X182343085Y-63049161D01*
X182343085Y-63049161D02*
X182247847Y-63144400D01*
X182247847Y-63144400D02*
X182057371Y-63239638D01*
X182057371Y-63239638D02*
X181866894Y-63239638D01*
X181866894Y-63239638D02*
X181676418Y-63144400D01*
X181676418Y-63144400D02*
X181581180Y-63049161D01*
X181581180Y-63049161D02*
X181485942Y-62858685D01*
X181485942Y-62858685D02*
X181390704Y-62477733D01*
X181390704Y-62477733D02*
X181390704Y-62001542D01*
X181390704Y-62001542D02*
X181485942Y-61620590D01*
X181485942Y-61620590D02*
X181581180Y-61430114D01*
X181581180Y-61430114D02*
X181676418Y-61334876D01*
X181676418Y-61334876D02*
X181866894Y-61239638D01*
X183295466Y-61430114D02*
X183390704Y-61334876D01*
X183390704Y-61334876D02*
X183581180Y-61239638D01*
X183581180Y-61239638D02*
X184057371Y-61239638D01*
X184057371Y-61239638D02*
X184247847Y-61334876D01*
X184247847Y-61334876D02*
X184343085Y-61430114D01*
X184343085Y-61430114D02*
X184438323Y-61620590D01*
X184438323Y-61620590D02*
X184438323Y-61811066D01*
X184438323Y-61811066D02*
X184343085Y-62096780D01*
X184343085Y-62096780D02*
X183200228Y-63239638D01*
X183200228Y-63239638D02*
X184438323Y-63239638D01*
X186152609Y-61906304D02*
X186152609Y-63239638D01*
X185676418Y-61144400D02*
X185200228Y-62572971D01*
X185200228Y-62572971D02*
X186438323Y-62572971D01*
D10*
X112429522Y-145330628D02*
X112239045Y-145235390D01*
X112239045Y-145235390D02*
X111858093Y-145235390D01*
X111858093Y-145235390D02*
X111667617Y-145330628D01*
X111667617Y-145330628D02*
X111477141Y-145521104D01*
X111477141Y-145521104D02*
X111381903Y-145711580D01*
X111381903Y-145711580D02*
X111381903Y-146092533D01*
X111381903Y-146092533D02*
X111477141Y-146283009D01*
X111477141Y-146283009D02*
X111667617Y-146473485D01*
X111667617Y-146473485D02*
X111858093Y-146568723D01*
X111858093Y-146568723D02*
X112239045Y-146568723D01*
X112239045Y-146568723D02*
X112429522Y-146473485D01*
X112048569Y-144568723D02*
X111572379Y-144663961D01*
X111572379Y-144663961D02*
X111096188Y-144949676D01*
X111096188Y-144949676D02*
X110810474Y-145425866D01*
X110810474Y-145425866D02*
X110715236Y-145902057D01*
X110715236Y-145902057D02*
X110810474Y-146378247D01*
X110810474Y-146378247D02*
X111096188Y-146854438D01*
X111096188Y-146854438D02*
X111572379Y-147140152D01*
X111572379Y-147140152D02*
X112048569Y-147235390D01*
X112048569Y-147235390D02*
X112524760Y-147140152D01*
X112524760Y-147140152D02*
X113000950Y-146854438D01*
X113000950Y-146854438D02*
X113286664Y-146378247D01*
X113286664Y-146378247D02*
X113381903Y-145902057D01*
X113381903Y-145902057D02*
X113286664Y-145425866D01*
X113286664Y-145425866D02*
X113000950Y-144949676D01*
X113000950Y-144949676D02*
X112524760Y-144663961D01*
X112524760Y-144663961D02*
X112048569Y-144568723D01*
X114143807Y-145044914D02*
X114239045Y-144949676D01*
X114239045Y-144949676D02*
X114429521Y-144854438D01*
X114429521Y-144854438D02*
X114905712Y-144854438D01*
X114905712Y-144854438D02*
X115096188Y-144949676D01*
X115096188Y-144949676D02*
X115191426Y-145044914D01*
X115191426Y-145044914D02*
X115286664Y-145235390D01*
X115286664Y-145235390D02*
X115286664Y-145425866D01*
X115286664Y-145425866D02*
X115191426Y-145711580D01*
X115191426Y-145711580D02*
X114048569Y-146854438D01*
X114048569Y-146854438D02*
X115286664Y-146854438D01*
X116524759Y-144854438D02*
X116715236Y-144854438D01*
X116715236Y-144854438D02*
X116905712Y-144949676D01*
X116905712Y-144949676D02*
X117000950Y-145044914D01*
X117000950Y-145044914D02*
X117096188Y-145235390D01*
X117096188Y-145235390D02*
X117191426Y-145616342D01*
X117191426Y-145616342D02*
X117191426Y-146092533D01*
X117191426Y-146092533D02*
X117096188Y-146473485D01*
X117096188Y-146473485D02*
X117000950Y-146663961D01*
X117000950Y-146663961D02*
X116905712Y-146759200D01*
X116905712Y-146759200D02*
X116715236Y-146854438D01*
X116715236Y-146854438D02*
X116524759Y-146854438D01*
X116524759Y-146854438D02*
X116334283Y-146759200D01*
X116334283Y-146759200D02*
X116239045Y-146663961D01*
X116239045Y-146663961D02*
X116143807Y-146473485D01*
X116143807Y-146473485D02*
X116048569Y-146092533D01*
X116048569Y-146092533D02*
X116048569Y-145616342D01*
X116048569Y-145616342D02*
X116143807Y-145235390D01*
X116143807Y-145235390D02*
X116239045Y-145044914D01*
X116239045Y-145044914D02*
X116334283Y-144949676D01*
X116334283Y-144949676D02*
X116524759Y-144854438D01*
X117953331Y-145044914D02*
X118048569Y-144949676D01*
X118048569Y-144949676D02*
X118239045Y-144854438D01*
X118239045Y-144854438D02*
X118715236Y-144854438D01*
X118715236Y-144854438D02*
X118905712Y-144949676D01*
X118905712Y-144949676D02*
X119000950Y-145044914D01*
X119000950Y-145044914D02*
X119096188Y-145235390D01*
X119096188Y-145235390D02*
X119096188Y-145425866D01*
X119096188Y-145425866D02*
X119000950Y-145711580D01*
X119000950Y-145711580D02*
X117858093Y-146854438D01*
X117858093Y-146854438D02*
X119096188Y-146854438D01*
X120905712Y-144854438D02*
X119953331Y-144854438D01*
X119953331Y-144854438D02*
X119858093Y-145806819D01*
X119858093Y-145806819D02*
X119953331Y-145711580D01*
X119953331Y-145711580D02*
X120143807Y-145616342D01*
X120143807Y-145616342D02*
X120619998Y-145616342D01*
X120619998Y-145616342D02*
X120810474Y-145711580D01*
X120810474Y-145711580D02*
X120905712Y-145806819D01*
X120905712Y-145806819D02*
X121000950Y-145997295D01*
X121000950Y-145997295D02*
X121000950Y-146473485D01*
X121000950Y-146473485D02*
X120905712Y-146663961D01*
X120905712Y-146663961D02*
X120810474Y-146759200D01*
X120810474Y-146759200D02*
X120619998Y-146854438D01*
X120619998Y-146854438D02*
X120143807Y-146854438D01*
X120143807Y-146854438D02*
X119953331Y-146759200D01*
X119953331Y-146759200D02*
X119858093Y-146663961D01*
X123381903Y-146854438D02*
X123381903Y-144854438D01*
X123381903Y-145616342D02*
X123572379Y-145521104D01*
X123572379Y-145521104D02*
X123953332Y-145521104D01*
X123953332Y-145521104D02*
X124143808Y-145616342D01*
X124143808Y-145616342D02*
X124239046Y-145711580D01*
X124239046Y-145711580D02*
X124334284Y-145902057D01*
X124334284Y-145902057D02*
X124334284Y-146473485D01*
X124334284Y-146473485D02*
X124239046Y-146663961D01*
X124239046Y-146663961D02*
X124143808Y-146759200D01*
X124143808Y-146759200D02*
X123953332Y-146854438D01*
X123953332Y-146854438D02*
X123572379Y-146854438D01*
X123572379Y-146854438D02*
X123381903Y-146759200D01*
X125000951Y-145521104D02*
X125477141Y-146854438D01*
X125953332Y-145521104D02*
X125477141Y-146854438D01*
X125477141Y-146854438D02*
X125286665Y-147330628D01*
X125286665Y-147330628D02*
X125191427Y-147425866D01*
X125191427Y-147425866D02*
X125000951Y-147521104D01*
X128239047Y-146854438D02*
X128239047Y-144854438D01*
X128429523Y-146092533D02*
X129000952Y-146854438D01*
X129000952Y-145521104D02*
X128239047Y-146283009D01*
X129858095Y-146854438D02*
X129858095Y-145521104D01*
X129858095Y-144854438D02*
X129762857Y-144949676D01*
X129762857Y-144949676D02*
X129858095Y-145044914D01*
X129858095Y-145044914D02*
X129953333Y-144949676D01*
X129953333Y-144949676D02*
X129858095Y-144854438D01*
X129858095Y-144854438D02*
X129858095Y-145044914D01*
X130810476Y-145521104D02*
X130810476Y-146854438D01*
X130810476Y-145711580D02*
X130905714Y-145616342D01*
X130905714Y-145616342D02*
X131096190Y-145521104D01*
X131096190Y-145521104D02*
X131381905Y-145521104D01*
X131381905Y-145521104D02*
X131572381Y-145616342D01*
X131572381Y-145616342D02*
X131667619Y-145806819D01*
X131667619Y-145806819D02*
X131667619Y-146854438D01*
X132620000Y-145521104D02*
X132620000Y-147521104D01*
X132620000Y-145616342D02*
X132810476Y-145521104D01*
X132810476Y-145521104D02*
X133191429Y-145521104D01*
X133191429Y-145521104D02*
X133381905Y-145616342D01*
X133381905Y-145616342D02*
X133477143Y-145711580D01*
X133477143Y-145711580D02*
X133572381Y-145902057D01*
X133572381Y-145902057D02*
X133572381Y-146473485D01*
X133572381Y-146473485D02*
X133477143Y-146663961D01*
X133477143Y-146663961D02*
X133381905Y-146759200D01*
X133381905Y-146759200D02*
X133191429Y-146854438D01*
X133191429Y-146854438D02*
X132810476Y-146854438D01*
X132810476Y-146854438D02*
X132620000Y-146759200D01*
X134429524Y-146854438D02*
X134429524Y-145521104D01*
X134429524Y-145902057D02*
X134524762Y-145711580D01*
X134524762Y-145711580D02*
X134620000Y-145616342D01*
X134620000Y-145616342D02*
X134810476Y-145521104D01*
X134810476Y-145521104D02*
X135000953Y-145521104D01*
X135953333Y-146854438D02*
X135762857Y-146759200D01*
X135762857Y-146759200D02*
X135667619Y-146663961D01*
X135667619Y-146663961D02*
X135572381Y-146473485D01*
X135572381Y-146473485D02*
X135572381Y-145902057D01*
X135572381Y-145902057D02*
X135667619Y-145711580D01*
X135667619Y-145711580D02*
X135762857Y-145616342D01*
X135762857Y-145616342D02*
X135953333Y-145521104D01*
X135953333Y-145521104D02*
X136239048Y-145521104D01*
X136239048Y-145521104D02*
X136429524Y-145616342D01*
X136429524Y-145616342D02*
X136524762Y-145711580D01*
X136524762Y-145711580D02*
X136620000Y-145902057D01*
X136620000Y-145902057D02*
X136620000Y-146473485D01*
X136620000Y-146473485D02*
X136524762Y-146663961D01*
X136524762Y-146663961D02*
X136429524Y-146759200D01*
X136429524Y-146759200D02*
X136239048Y-146854438D01*
X136239048Y-146854438D02*
X135953333Y-146854438D01*
X138524762Y-146854438D02*
X137381905Y-146854438D01*
X137953333Y-146854438D02*
X137953333Y-144854438D01*
X137953333Y-144854438D02*
X137762857Y-145140152D01*
X137762857Y-145140152D02*
X137572381Y-145330628D01*
X137572381Y-145330628D02*
X137381905Y-145425866D01*
X139762857Y-144854438D02*
X139953334Y-144854438D01*
X139953334Y-144854438D02*
X140143810Y-144949676D01*
X140143810Y-144949676D02*
X140239048Y-145044914D01*
X140239048Y-145044914D02*
X140334286Y-145235390D01*
X140334286Y-145235390D02*
X140429524Y-145616342D01*
X140429524Y-145616342D02*
X140429524Y-146092533D01*
X140429524Y-146092533D02*
X140334286Y-146473485D01*
X140334286Y-146473485D02*
X140239048Y-146663961D01*
X140239048Y-146663961D02*
X140143810Y-146759200D01*
X140143810Y-146759200D02*
X139953334Y-146854438D01*
X139953334Y-146854438D02*
X139762857Y-146854438D01*
X139762857Y-146854438D02*
X139572381Y-146759200D01*
X139572381Y-146759200D02*
X139477143Y-146663961D01*
X139477143Y-146663961D02*
X139381905Y-146473485D01*
X139381905Y-146473485D02*
X139286667Y-146092533D01*
X139286667Y-146092533D02*
X139286667Y-145616342D01*
X139286667Y-145616342D02*
X139381905Y-145235390D01*
X139381905Y-145235390D02*
X139477143Y-145044914D01*
X139477143Y-145044914D02*
X139572381Y-144949676D01*
X139572381Y-144949676D02*
X139762857Y-144854438D01*
X141191429Y-145044914D02*
X141286667Y-144949676D01*
X141286667Y-144949676D02*
X141477143Y-144854438D01*
X141477143Y-144854438D02*
X141953334Y-144854438D01*
X141953334Y-144854438D02*
X142143810Y-144949676D01*
X142143810Y-144949676D02*
X142239048Y-145044914D01*
X142239048Y-145044914D02*
X142334286Y-145235390D01*
X142334286Y-145235390D02*
X142334286Y-145425866D01*
X142334286Y-145425866D02*
X142239048Y-145711580D01*
X142239048Y-145711580D02*
X141096191Y-146854438D01*
X141096191Y-146854438D02*
X142334286Y-146854438D01*
X144048572Y-145521104D02*
X144048572Y-146854438D01*
X143572381Y-144759200D02*
X143096191Y-146187771D01*
X143096191Y-146187771D02*
X144334286Y-146187771D01*
X146429525Y-146854438D02*
X147477144Y-145521104D01*
X146429525Y-145521104D02*
X147477144Y-146854438D01*
X150905716Y-146854438D02*
X150239049Y-145902057D01*
X149762859Y-146854438D02*
X149762859Y-144854438D01*
X149762859Y-144854438D02*
X150524764Y-144854438D01*
X150524764Y-144854438D02*
X150715240Y-144949676D01*
X150715240Y-144949676D02*
X150810478Y-145044914D01*
X150810478Y-145044914D02*
X150905716Y-145235390D01*
X150905716Y-145235390D02*
X150905716Y-145521104D01*
X150905716Y-145521104D02*
X150810478Y-145711580D01*
X150810478Y-145711580D02*
X150715240Y-145806819D01*
X150715240Y-145806819D02*
X150524764Y-145902057D01*
X150524764Y-145902057D02*
X149762859Y-145902057D01*
X152143811Y-144854438D02*
X152524764Y-144854438D01*
X152524764Y-144854438D02*
X152715240Y-144949676D01*
X152715240Y-144949676D02*
X152905716Y-145140152D01*
X152905716Y-145140152D02*
X153000954Y-145521104D01*
X153000954Y-145521104D02*
X153000954Y-146187771D01*
X153000954Y-146187771D02*
X152905716Y-146568723D01*
X152905716Y-146568723D02*
X152715240Y-146759200D01*
X152715240Y-146759200D02*
X152524764Y-146854438D01*
X152524764Y-146854438D02*
X152143811Y-146854438D01*
X152143811Y-146854438D02*
X151953335Y-146759200D01*
X151953335Y-146759200D02*
X151762859Y-146568723D01*
X151762859Y-146568723D02*
X151667621Y-146187771D01*
X151667621Y-146187771D02*
X151667621Y-145521104D01*
X151667621Y-145521104D02*
X151762859Y-145140152D01*
X151762859Y-145140152D02*
X151953335Y-144949676D01*
X151953335Y-144949676D02*
X152143811Y-144854438D01*
X154239049Y-145902057D02*
X154239049Y-146854438D01*
X153572383Y-144854438D02*
X154239049Y-145902057D01*
X154239049Y-145902057D02*
X154905716Y-144854438D01*
X155477145Y-145044914D02*
X155572383Y-144949676D01*
X155572383Y-144949676D02*
X155762859Y-144854438D01*
X155762859Y-144854438D02*
X156239050Y-144854438D01*
X156239050Y-144854438D02*
X156429526Y-144949676D01*
X156429526Y-144949676D02*
X156524764Y-145044914D01*
X156524764Y-145044914D02*
X156620002Y-145235390D01*
X156620002Y-145235390D02*
X156620002Y-145425866D01*
X156620002Y-145425866D02*
X156524764Y-145711580D01*
X156524764Y-145711580D02*
X155381907Y-146854438D01*
X155381907Y-146854438D02*
X156620002Y-146854438D01*
X158524764Y-146854438D02*
X157381907Y-146854438D01*
X157953335Y-146854438D02*
X157953335Y-144854438D01*
X157953335Y-144854438D02*
X157762859Y-145140152D01*
X157762859Y-145140152D02*
X157572383Y-145330628D01*
X157572383Y-145330628D02*
X157381907Y-145425866D01*
D11*
X84493558Y-61239638D02*
X84493558Y-62858685D01*
X84493558Y-62858685D02*
X84588796Y-63049161D01*
X84588796Y-63049161D02*
X84684034Y-63144400D01*
X84684034Y-63144400D02*
X84874510Y-63239638D01*
X84874510Y-63239638D02*
X85255463Y-63239638D01*
X85255463Y-63239638D02*
X85445939Y-63144400D01*
X85445939Y-63144400D02*
X85541177Y-63049161D01*
X85541177Y-63049161D02*
X85636415Y-62858685D01*
X85636415Y-62858685D02*
X85636415Y-61239638D01*
X86493558Y-63144400D02*
X86684034Y-63239638D01*
X86684034Y-63239638D02*
X87064986Y-63239638D01*
X87064986Y-63239638D02*
X87255463Y-63144400D01*
X87255463Y-63144400D02*
X87350701Y-62953923D01*
X87350701Y-62953923D02*
X87350701Y-62858685D01*
X87350701Y-62858685D02*
X87255463Y-62668209D01*
X87255463Y-62668209D02*
X87064986Y-62572971D01*
X87064986Y-62572971D02*
X86779272Y-62572971D01*
X86779272Y-62572971D02*
X86588796Y-62477733D01*
X86588796Y-62477733D02*
X86493558Y-62287257D01*
X86493558Y-62287257D02*
X86493558Y-62192019D01*
X86493558Y-62192019D02*
X86588796Y-62001542D01*
X86588796Y-62001542D02*
X86779272Y-61906304D01*
X86779272Y-61906304D02*
X87064986Y-61906304D01*
X87064986Y-61906304D02*
X87255463Y-62001542D01*
X88969749Y-63144400D02*
X88779273Y-63239638D01*
X88779273Y-63239638D02*
X88398320Y-63239638D01*
X88398320Y-63239638D02*
X88207844Y-63144400D01*
X88207844Y-63144400D02*
X88112606Y-62953923D01*
X88112606Y-62953923D02*
X88112606Y-62192019D01*
X88112606Y-62192019D02*
X88207844Y-62001542D01*
X88207844Y-62001542D02*
X88398320Y-61906304D01*
X88398320Y-61906304D02*
X88779273Y-61906304D01*
X88779273Y-61906304D02*
X88969749Y-62001542D01*
X88969749Y-62001542D02*
X89064987Y-62192019D01*
X89064987Y-62192019D02*
X89064987Y-62382495D01*
X89064987Y-62382495D02*
X88112606Y-62572971D01*
X91445940Y-63239638D02*
X91445940Y-61239638D01*
X91445940Y-61239638D02*
X92112607Y-62668209D01*
X92112607Y-62668209D02*
X92779273Y-61239638D01*
X92779273Y-61239638D02*
X92779273Y-63239638D01*
X93636416Y-61430114D02*
X93731654Y-61334876D01*
X93731654Y-61334876D02*
X93922130Y-61239638D01*
X93922130Y-61239638D02*
X94398321Y-61239638D01*
X94398321Y-61239638D02*
X94588797Y-61334876D01*
X94588797Y-61334876D02*
X94684035Y-61430114D01*
X94684035Y-61430114D02*
X94779273Y-61620590D01*
X94779273Y-61620590D02*
X94779273Y-61811066D01*
X94779273Y-61811066D02*
X94684035Y-62096780D01*
X94684035Y-62096780D02*
X93541178Y-63239638D01*
X93541178Y-63239638D02*
X94779273Y-63239638D01*
X95636416Y-63049161D02*
X95731654Y-63144400D01*
X95731654Y-63144400D02*
X95636416Y-63239638D01*
X95636416Y-63239638D02*
X95541178Y-63144400D01*
X95541178Y-63144400D02*
X95636416Y-63049161D01*
X95636416Y-63049161D02*
X95636416Y-63239638D01*
X97541178Y-61239638D02*
X96588797Y-61239638D01*
X96588797Y-61239638D02*
X96493559Y-62192019D01*
X96493559Y-62192019D02*
X96588797Y-62096780D01*
X96588797Y-62096780D02*
X96779273Y-62001542D01*
X96779273Y-62001542D02*
X97255464Y-62001542D01*
X97255464Y-62001542D02*
X97445940Y-62096780D01*
X97445940Y-62096780D02*
X97541178Y-62192019D01*
X97541178Y-62192019D02*
X97636416Y-62382495D01*
X97636416Y-62382495D02*
X97636416Y-62858685D01*
X97636416Y-62858685D02*
X97541178Y-63049161D01*
X97541178Y-63049161D02*
X97445940Y-63144400D01*
X97445940Y-63144400D02*
X97255464Y-63239638D01*
X97255464Y-63239638D02*
X96779273Y-63239638D01*
X96779273Y-63239638D02*
X96588797Y-63144400D01*
X96588797Y-63144400D02*
X96493559Y-63049161D01*
X100017369Y-63239638D02*
X100017369Y-61239638D01*
X100017369Y-62192019D02*
X101160226Y-62192019D01*
X101160226Y-63239638D02*
X101160226Y-61239638D01*
X102874512Y-63144400D02*
X102684036Y-63239638D01*
X102684036Y-63239638D02*
X102303083Y-63239638D01*
X102303083Y-63239638D02*
X102112607Y-63144400D01*
X102112607Y-63144400D02*
X102017369Y-62953923D01*
X102017369Y-62953923D02*
X102017369Y-62192019D01*
X102017369Y-62192019D02*
X102112607Y-62001542D01*
X102112607Y-62001542D02*
X102303083Y-61906304D01*
X102303083Y-61906304D02*
X102684036Y-61906304D01*
X102684036Y-61906304D02*
X102874512Y-62001542D01*
X102874512Y-62001542D02*
X102969750Y-62192019D01*
X102969750Y-62192019D02*
X102969750Y-62382495D01*
X102969750Y-62382495D02*
X102017369Y-62572971D01*
X103636417Y-63239638D02*
X104684036Y-61906304D01*
X103636417Y-61906304D02*
X104684036Y-63239638D01*
X107636418Y-62192019D02*
X107922132Y-62287257D01*
X107922132Y-62287257D02*
X108017370Y-62382495D01*
X108017370Y-62382495D02*
X108112608Y-62572971D01*
X108112608Y-62572971D02*
X108112608Y-62858685D01*
X108112608Y-62858685D02*
X108017370Y-63049161D01*
X108017370Y-63049161D02*
X107922132Y-63144400D01*
X107922132Y-63144400D02*
X107731656Y-63239638D01*
X107731656Y-63239638D02*
X106969751Y-63239638D01*
X106969751Y-63239638D02*
X106969751Y-61239638D01*
X106969751Y-61239638D02*
X107636418Y-61239638D01*
X107636418Y-61239638D02*
X107826894Y-61334876D01*
X107826894Y-61334876D02*
X107922132Y-61430114D01*
X107922132Y-61430114D02*
X108017370Y-61620590D01*
X108017370Y-61620590D02*
X108017370Y-61811066D01*
X108017370Y-61811066D02*
X107922132Y-62001542D01*
X107922132Y-62001542D02*
X107826894Y-62096780D01*
X107826894Y-62096780D02*
X107636418Y-62192019D01*
X107636418Y-62192019D02*
X106969751Y-62192019D01*
X108969751Y-63239638D02*
X108969751Y-61906304D01*
X108969751Y-61239638D02*
X108874513Y-61334876D01*
X108874513Y-61334876D02*
X108969751Y-61430114D01*
X108969751Y-61430114D02*
X109064989Y-61334876D01*
X109064989Y-61334876D02*
X108969751Y-61239638D01*
X108969751Y-61239638D02*
X108969751Y-61430114D01*
X109636418Y-61906304D02*
X110398322Y-61906304D01*
X109922132Y-61239638D02*
X109922132Y-62953923D01*
X109922132Y-62953923D02*
X110017370Y-63144400D01*
X110017370Y-63144400D02*
X110207846Y-63239638D01*
X110207846Y-63239638D02*
X110398322Y-63239638D01*
D12*
X131262857Y-61925419D02*
X131262857Y-60925419D01*
X131262857Y-60925419D02*
X131643809Y-60925419D01*
X131643809Y-60925419D02*
X131739047Y-60973038D01*
X131739047Y-60973038D02*
X131786666Y-61020657D01*
X131786666Y-61020657D02*
X131834285Y-61115895D01*
X131834285Y-61115895D02*
X131834285Y-61258752D01*
X131834285Y-61258752D02*
X131786666Y-61353990D01*
X131786666Y-61353990D02*
X131739047Y-61401609D01*
X131739047Y-61401609D02*
X131643809Y-61449228D01*
X131643809Y-61449228D02*
X131262857Y-61449228D01*
X132262857Y-61925419D02*
X132262857Y-61258752D01*
X132262857Y-60925419D02*
X132215238Y-60973038D01*
X132215238Y-60973038D02*
X132262857Y-61020657D01*
X132262857Y-61020657D02*
X132310476Y-60973038D01*
X132310476Y-60973038D02*
X132262857Y-60925419D01*
X132262857Y-60925419D02*
X132262857Y-61020657D01*
X132500952Y-62020657D02*
X133262856Y-62020657D01*
X133500952Y-61925419D02*
X133500952Y-60925419D01*
X133500952Y-60925419D02*
X133881904Y-60925419D01*
X133881904Y-60925419D02*
X133977142Y-60973038D01*
X133977142Y-60973038D02*
X134024761Y-61020657D01*
X134024761Y-61020657D02*
X134072380Y-61115895D01*
X134072380Y-61115895D02*
X134072380Y-61258752D01*
X134072380Y-61258752D02*
X134024761Y-61353990D01*
X134024761Y-61353990D02*
X133977142Y-61401609D01*
X133977142Y-61401609D02*
X133881904Y-61449228D01*
X133881904Y-61449228D02*
X133500952Y-61449228D01*
X134500952Y-61925419D02*
X134500952Y-61258752D01*
X134500952Y-60925419D02*
X134453333Y-60973038D01*
X134453333Y-60973038D02*
X134500952Y-61020657D01*
X134500952Y-61020657D02*
X134548571Y-60973038D01*
X134548571Y-60973038D02*
X134500952Y-60925419D01*
X134500952Y-60925419D02*
X134500952Y-61020657D01*
X135405713Y-61877800D02*
X135310475Y-61925419D01*
X135310475Y-61925419D02*
X135119999Y-61925419D01*
X135119999Y-61925419D02*
X135024761Y-61877800D01*
X135024761Y-61877800D02*
X134977142Y-61830180D01*
X134977142Y-61830180D02*
X134929523Y-61734942D01*
X134929523Y-61734942D02*
X134929523Y-61449228D01*
X134929523Y-61449228D02*
X134977142Y-61353990D01*
X134977142Y-61353990D02*
X135024761Y-61306371D01*
X135024761Y-61306371D02*
X135119999Y-61258752D01*
X135119999Y-61258752D02*
X135310475Y-61258752D01*
X135310475Y-61258752D02*
X135405713Y-61306371D01*
X135977142Y-61925419D02*
X135881904Y-61877800D01*
X135881904Y-61877800D02*
X135834285Y-61830180D01*
X135834285Y-61830180D02*
X135786666Y-61734942D01*
X135786666Y-61734942D02*
X135786666Y-61449228D01*
X135786666Y-61449228D02*
X135834285Y-61353990D01*
X135834285Y-61353990D02*
X135881904Y-61306371D01*
X135881904Y-61306371D02*
X135977142Y-61258752D01*
X135977142Y-61258752D02*
X136119999Y-61258752D01*
X136119999Y-61258752D02*
X136215237Y-61306371D01*
X136215237Y-61306371D02*
X136262856Y-61353990D01*
X136262856Y-61353990D02*
X136310475Y-61449228D01*
X136310475Y-61449228D02*
X136310475Y-61734942D01*
X136310475Y-61734942D02*
X136262856Y-61830180D01*
X136262856Y-61830180D02*
X136215237Y-61877800D01*
X136215237Y-61877800D02*
X136119999Y-61925419D01*
X136119999Y-61925419D02*
X135977142Y-61925419D01*
X136500952Y-62020657D02*
X137262856Y-62020657D01*
X138024761Y-61925419D02*
X137453333Y-61925419D01*
X137739047Y-61925419D02*
X137739047Y-60925419D01*
X137739047Y-60925419D02*
X137643809Y-61068276D01*
X137643809Y-61068276D02*
X137548571Y-61163514D01*
X137548571Y-61163514D02*
X137453333Y-61211133D01*
D13*
X144764819Y-52863238D02*
X144288628Y-53196571D01*
X144764819Y-53434666D02*
X143764819Y-53434666D01*
X143764819Y-53434666D02*
X143764819Y-53053714D01*
X143764819Y-53053714D02*
X143812438Y-52958476D01*
X143812438Y-52958476D02*
X143860057Y-52910857D01*
X143860057Y-52910857D02*
X143955295Y-52863238D01*
X143955295Y-52863238D02*
X144098152Y-52863238D01*
X144098152Y-52863238D02*
X144193390Y-52910857D01*
X144193390Y-52910857D02*
X144241009Y-52958476D01*
X144241009Y-52958476D02*
X144288628Y-53053714D01*
X144288628Y-53053714D02*
X144288628Y-53434666D01*
X144764819Y-52434666D02*
X143764819Y-52434666D01*
X143764819Y-52434666D02*
X143764819Y-52053714D01*
X143764819Y-52053714D02*
X143812438Y-51958476D01*
X143812438Y-51958476D02*
X143860057Y-51910857D01*
X143860057Y-51910857D02*
X143955295Y-51863238D01*
X143955295Y-51863238D02*
X144098152Y-51863238D01*
X144098152Y-51863238D02*
X144193390Y-51910857D01*
X144193390Y-51910857D02*
X144241009Y-51958476D01*
X144241009Y-51958476D02*
X144288628Y-52053714D01*
X144288628Y-52053714D02*
X144288628Y-52434666D01*
X143860057Y-51482285D02*
X143812438Y-51434666D01*
X143812438Y-51434666D02*
X143764819Y-51339428D01*
X143764819Y-51339428D02*
X143764819Y-51101333D01*
X143764819Y-51101333D02*
X143812438Y-51006095D01*
X143812438Y-51006095D02*
X143860057Y-50958476D01*
X143860057Y-50958476D02*
X143955295Y-50910857D01*
X143955295Y-50910857D02*
X144050533Y-50910857D01*
X144050533Y-50910857D02*
X144193390Y-50958476D01*
X144193390Y-50958476D02*
X144764819Y-51529904D01*
X144764819Y-51529904D02*
X144764819Y-50910857D01*
X143764819Y-50291809D02*
X143764819Y-50196571D01*
X143764819Y-50196571D02*
X143812438Y-50101333D01*
X143812438Y-50101333D02*
X143860057Y-50053714D01*
X143860057Y-50053714D02*
X143955295Y-50006095D01*
X143955295Y-50006095D02*
X144145771Y-49958476D01*
X144145771Y-49958476D02*
X144383866Y-49958476D01*
X144383866Y-49958476D02*
X144574342Y-50006095D01*
X144574342Y-50006095D02*
X144669580Y-50053714D01*
X144669580Y-50053714D02*
X144717200Y-50101333D01*
X144717200Y-50101333D02*
X144764819Y-50196571D01*
X144764819Y-50196571D02*
X144764819Y-50291809D01*
X144764819Y-50291809D02*
X144717200Y-50387047D01*
X144717200Y-50387047D02*
X144669580Y-50434666D01*
X144669580Y-50434666D02*
X144574342Y-50482285D01*
X144574342Y-50482285D02*
X144383866Y-50529904D01*
X144383866Y-50529904D02*
X144145771Y-50529904D01*
X144145771Y-50529904D02*
X143955295Y-50482285D01*
X143955295Y-50482285D02*
X143860057Y-50434666D01*
X143860057Y-50434666D02*
X143812438Y-50387047D01*
X143812438Y-50387047D02*
X143764819Y-50291809D01*
X144098152Y-49101333D02*
X144764819Y-49101333D01*
X143717200Y-49339428D02*
X144431485Y-49577523D01*
X144431485Y-49577523D02*
X144431485Y-48958476D01*
X143764819Y-48387047D02*
X143764819Y-48291809D01*
X143764819Y-48291809D02*
X143812438Y-48196571D01*
X143812438Y-48196571D02*
X143860057Y-48148952D01*
X143860057Y-48148952D02*
X143955295Y-48101333D01*
X143955295Y-48101333D02*
X144145771Y-48053714D01*
X144145771Y-48053714D02*
X144383866Y-48053714D01*
X144383866Y-48053714D02*
X144574342Y-48101333D01*
X144574342Y-48101333D02*
X144669580Y-48148952D01*
X144669580Y-48148952D02*
X144717200Y-48196571D01*
X144717200Y-48196571D02*
X144764819Y-48291809D01*
X144764819Y-48291809D02*
X144764819Y-48387047D01*
X144764819Y-48387047D02*
X144717200Y-48482285D01*
X144717200Y-48482285D02*
X144669580Y-48529904D01*
X144669580Y-48529904D02*
X144574342Y-48577523D01*
X144574342Y-48577523D02*
X144383866Y-48625142D01*
X144383866Y-48625142D02*
X144145771Y-48625142D01*
X144145771Y-48625142D02*
X143955295Y-48577523D01*
X143955295Y-48577523D02*
X143860057Y-48529904D01*
X143860057Y-48529904D02*
X143812438Y-48482285D01*
X143812438Y-48482285D02*
X143764819Y-48387047D01*
X144860057Y-47863238D02*
X144860057Y-47101333D01*
X144764819Y-46863237D02*
X143764819Y-46863237D01*
X143764819Y-46863237D02*
X143764819Y-46482285D01*
X143764819Y-46482285D02*
X143812438Y-46387047D01*
X143812438Y-46387047D02*
X143860057Y-46339428D01*
X143860057Y-46339428D02*
X143955295Y-46291809D01*
X143955295Y-46291809D02*
X144098152Y-46291809D01*
X144098152Y-46291809D02*
X144193390Y-46339428D01*
X144193390Y-46339428D02*
X144241009Y-46387047D01*
X144241009Y-46387047D02*
X144288628Y-46482285D01*
X144288628Y-46482285D02*
X144288628Y-46863237D01*
X144764819Y-45863237D02*
X144098152Y-45863237D01*
X143764819Y-45863237D02*
X143812438Y-45910856D01*
X143812438Y-45910856D02*
X143860057Y-45863237D01*
X143860057Y-45863237D02*
X143812438Y-45815618D01*
X143812438Y-45815618D02*
X143764819Y-45863237D01*
X143764819Y-45863237D02*
X143860057Y-45863237D01*
X144717200Y-44958476D02*
X144764819Y-45053714D01*
X144764819Y-45053714D02*
X144764819Y-45244190D01*
X144764819Y-45244190D02*
X144717200Y-45339428D01*
X144717200Y-45339428D02*
X144669580Y-45387047D01*
X144669580Y-45387047D02*
X144574342Y-45434666D01*
X144574342Y-45434666D02*
X144288628Y-45434666D01*
X144288628Y-45434666D02*
X144193390Y-45387047D01*
X144193390Y-45387047D02*
X144145771Y-45339428D01*
X144145771Y-45339428D02*
X144098152Y-45244190D01*
X144098152Y-45244190D02*
X144098152Y-45053714D01*
X144098152Y-45053714D02*
X144145771Y-44958476D01*
X144764819Y-44387047D02*
X144717200Y-44482285D01*
X144717200Y-44482285D02*
X144669580Y-44529904D01*
X144669580Y-44529904D02*
X144574342Y-44577523D01*
X144574342Y-44577523D02*
X144288628Y-44577523D01*
X144288628Y-44577523D02*
X144193390Y-44529904D01*
X144193390Y-44529904D02*
X144145771Y-44482285D01*
X144145771Y-44482285D02*
X144098152Y-44387047D01*
X144098152Y-44387047D02*
X144098152Y-44244190D01*
X144098152Y-44244190D02*
X144145771Y-44148952D01*
X144145771Y-44148952D02*
X144193390Y-44101333D01*
X144193390Y-44101333D02*
X144288628Y-44053714D01*
X144288628Y-44053714D02*
X144574342Y-44053714D01*
X144574342Y-44053714D02*
X144669580Y-44101333D01*
X144669580Y-44101333D02*
X144717200Y-44148952D01*
X144717200Y-44148952D02*
X144764819Y-44244190D01*
X144764819Y-44244190D02*
X144764819Y-44387047D01*
D12*
X167576667Y-66449800D02*
X167719524Y-66497419D01*
X167719524Y-66497419D02*
X167957619Y-66497419D01*
X167957619Y-66497419D02*
X168052857Y-66449800D01*
X168052857Y-66449800D02*
X168100476Y-66402180D01*
X168100476Y-66402180D02*
X168148095Y-66306942D01*
X168148095Y-66306942D02*
X168148095Y-66211704D01*
X168148095Y-66211704D02*
X168100476Y-66116466D01*
X168100476Y-66116466D02*
X168052857Y-66068847D01*
X168052857Y-66068847D02*
X167957619Y-66021228D01*
X167957619Y-66021228D02*
X167767143Y-65973609D01*
X167767143Y-65973609D02*
X167671905Y-65925990D01*
X167671905Y-65925990D02*
X167624286Y-65878371D01*
X167624286Y-65878371D02*
X167576667Y-65783133D01*
X167576667Y-65783133D02*
X167576667Y-65687895D01*
X167576667Y-65687895D02*
X167624286Y-65592657D01*
X167624286Y-65592657D02*
X167671905Y-65545038D01*
X167671905Y-65545038D02*
X167767143Y-65497419D01*
X167767143Y-65497419D02*
X168005238Y-65497419D01*
X168005238Y-65497419D02*
X168148095Y-65545038D01*
X168481429Y-65497419D02*
X168719524Y-66497419D01*
X168719524Y-66497419D02*
X168910000Y-65783133D01*
X168910000Y-65783133D02*
X169100476Y-66497419D01*
X169100476Y-66497419D02*
X169338572Y-65497419D01*
X170195714Y-65497419D02*
X169719524Y-65497419D01*
X169719524Y-65497419D02*
X169671905Y-65973609D01*
X169671905Y-65973609D02*
X169719524Y-65925990D01*
X169719524Y-65925990D02*
X169814762Y-65878371D01*
X169814762Y-65878371D02*
X170052857Y-65878371D01*
X170052857Y-65878371D02*
X170148095Y-65925990D01*
X170148095Y-65925990D02*
X170195714Y-65973609D01*
X170195714Y-65973609D02*
X170243333Y-66068847D01*
X170243333Y-66068847D02*
X170243333Y-66306942D01*
X170243333Y-66306942D02*
X170195714Y-66402180D01*
X170195714Y-66402180D02*
X170148095Y-66449800D01*
X170148095Y-66449800D02*
X170052857Y-66497419D01*
X170052857Y-66497419D02*
X169814762Y-66497419D01*
X169814762Y-66497419D02*
X169719524Y-66449800D01*
X169719524Y-66449800D02*
X169671905Y-66402180D01*
X90900476Y-123599800D02*
X91043333Y-123647419D01*
X91043333Y-123647419D02*
X91281428Y-123647419D01*
X91281428Y-123647419D02*
X91376666Y-123599800D01*
X91376666Y-123599800D02*
X91424285Y-123552180D01*
X91424285Y-123552180D02*
X91471904Y-123456942D01*
X91471904Y-123456942D02*
X91471904Y-123361704D01*
X91471904Y-123361704D02*
X91424285Y-123266466D01*
X91424285Y-123266466D02*
X91376666Y-123218847D01*
X91376666Y-123218847D02*
X91281428Y-123171228D01*
X91281428Y-123171228D02*
X91090952Y-123123609D01*
X91090952Y-123123609D02*
X90995714Y-123075990D01*
X90995714Y-123075990D02*
X90948095Y-123028371D01*
X90948095Y-123028371D02*
X90900476Y-122933133D01*
X90900476Y-122933133D02*
X90900476Y-122837895D01*
X90900476Y-122837895D02*
X90948095Y-122742657D01*
X90948095Y-122742657D02*
X90995714Y-122695038D01*
X90995714Y-122695038D02*
X91090952Y-122647419D01*
X91090952Y-122647419D02*
X91329047Y-122647419D01*
X91329047Y-122647419D02*
X91471904Y-122695038D01*
X91805238Y-122647419D02*
X92043333Y-123647419D01*
X92043333Y-123647419D02*
X92233809Y-122933133D01*
X92233809Y-122933133D02*
X92424285Y-123647419D01*
X92424285Y-123647419D02*
X92662381Y-122647419D01*
X93567142Y-123647419D02*
X92995714Y-123647419D01*
X93281428Y-123647419D02*
X93281428Y-122647419D01*
X93281428Y-122647419D02*
X93186190Y-122790276D01*
X93186190Y-122790276D02*
X93090952Y-122885514D01*
X93090952Y-122885514D02*
X92995714Y-122933133D01*
X94424285Y-122647419D02*
X94233809Y-122647419D01*
X94233809Y-122647419D02*
X94138571Y-122695038D01*
X94138571Y-122695038D02*
X94090952Y-122742657D01*
X94090952Y-122742657D02*
X93995714Y-122885514D01*
X93995714Y-122885514D02*
X93948095Y-123075990D01*
X93948095Y-123075990D02*
X93948095Y-123456942D01*
X93948095Y-123456942D02*
X93995714Y-123552180D01*
X93995714Y-123552180D02*
X94043333Y-123599800D01*
X94043333Y-123599800D02*
X94138571Y-123647419D01*
X94138571Y-123647419D02*
X94329047Y-123647419D01*
X94329047Y-123647419D02*
X94424285Y-123599800D01*
X94424285Y-123599800D02*
X94471904Y-123552180D01*
X94471904Y-123552180D02*
X94519523Y-123456942D01*
X94519523Y-123456942D02*
X94519523Y-123218847D01*
X94519523Y-123218847D02*
X94471904Y-123123609D01*
X94471904Y-123123609D02*
X94424285Y-123075990D01*
X94424285Y-123075990D02*
X94329047Y-123028371D01*
X94329047Y-123028371D02*
X94138571Y-123028371D01*
X94138571Y-123028371D02*
X94043333Y-123075990D01*
X94043333Y-123075990D02*
X93995714Y-123123609D01*
X93995714Y-123123609D02*
X93948095Y-123218847D01*
X110426667Y-66449800D02*
X110569524Y-66497419D01*
X110569524Y-66497419D02*
X110807619Y-66497419D01*
X110807619Y-66497419D02*
X110902857Y-66449800D01*
X110902857Y-66449800D02*
X110950476Y-66402180D01*
X110950476Y-66402180D02*
X110998095Y-66306942D01*
X110998095Y-66306942D02*
X110998095Y-66211704D01*
X110998095Y-66211704D02*
X110950476Y-66116466D01*
X110950476Y-66116466D02*
X110902857Y-66068847D01*
X110902857Y-66068847D02*
X110807619Y-66021228D01*
X110807619Y-66021228D02*
X110617143Y-65973609D01*
X110617143Y-65973609D02*
X110521905Y-65925990D01*
X110521905Y-65925990D02*
X110474286Y-65878371D01*
X110474286Y-65878371D02*
X110426667Y-65783133D01*
X110426667Y-65783133D02*
X110426667Y-65687895D01*
X110426667Y-65687895D02*
X110474286Y-65592657D01*
X110474286Y-65592657D02*
X110521905Y-65545038D01*
X110521905Y-65545038D02*
X110617143Y-65497419D01*
X110617143Y-65497419D02*
X110855238Y-65497419D01*
X110855238Y-65497419D02*
X110998095Y-65545038D01*
X111331429Y-65497419D02*
X111569524Y-66497419D01*
X111569524Y-66497419D02*
X111760000Y-65783133D01*
X111760000Y-65783133D02*
X111950476Y-66497419D01*
X111950476Y-66497419D02*
X112188572Y-65497419D01*
X112521905Y-65592657D02*
X112569524Y-65545038D01*
X112569524Y-65545038D02*
X112664762Y-65497419D01*
X112664762Y-65497419D02*
X112902857Y-65497419D01*
X112902857Y-65497419D02*
X112998095Y-65545038D01*
X112998095Y-65545038D02*
X113045714Y-65592657D01*
X113045714Y-65592657D02*
X113093333Y-65687895D01*
X113093333Y-65687895D02*
X113093333Y-65783133D01*
X113093333Y-65783133D02*
X113045714Y-65925990D01*
X113045714Y-65925990D02*
X112474286Y-66497419D01*
X112474286Y-66497419D02*
X113093333Y-66497419D01*
D13*
X113887524Y-34760819D02*
X114458952Y-34760819D01*
X114173238Y-35760819D02*
X114173238Y-34760819D01*
X114744667Y-35713200D02*
X114887524Y-35760819D01*
X114887524Y-35760819D02*
X115125619Y-35760819D01*
X115125619Y-35760819D02*
X115220857Y-35713200D01*
X115220857Y-35713200D02*
X115268476Y-35665580D01*
X115268476Y-35665580D02*
X115316095Y-35570342D01*
X115316095Y-35570342D02*
X115316095Y-35475104D01*
X115316095Y-35475104D02*
X115268476Y-35379866D01*
X115268476Y-35379866D02*
X115220857Y-35332247D01*
X115220857Y-35332247D02*
X115125619Y-35284628D01*
X115125619Y-35284628D02*
X114935143Y-35237009D01*
X114935143Y-35237009D02*
X114839905Y-35189390D01*
X114839905Y-35189390D02*
X114792286Y-35141771D01*
X114792286Y-35141771D02*
X114744667Y-35046533D01*
X114744667Y-35046533D02*
X114744667Y-34951295D01*
X114744667Y-34951295D02*
X114792286Y-34856057D01*
X114792286Y-34856057D02*
X114839905Y-34808438D01*
X114839905Y-34808438D02*
X114935143Y-34760819D01*
X114935143Y-34760819D02*
X115173238Y-34760819D01*
X115173238Y-34760819D02*
X115316095Y-34808438D01*
X115649429Y-34760819D02*
X115887524Y-35760819D01*
X115887524Y-35760819D02*
X116078000Y-35046533D01*
X116078000Y-35046533D02*
X116268476Y-35760819D01*
X116268476Y-35760819D02*
X116506572Y-34760819D01*
X116649429Y-35856057D02*
X117411333Y-35856057D01*
X118173238Y-35760819D02*
X117601810Y-35760819D01*
X117887524Y-35760819D02*
X117887524Y-34760819D01*
X117887524Y-34760819D02*
X117792286Y-34903676D01*
X117792286Y-34903676D02*
X117697048Y-34998914D01*
X117697048Y-34998914D02*
X117601810Y-35046533D01*
D12*
X167100476Y-85499800D02*
X167243333Y-85547419D01*
X167243333Y-85547419D02*
X167481428Y-85547419D01*
X167481428Y-85547419D02*
X167576666Y-85499800D01*
X167576666Y-85499800D02*
X167624285Y-85452180D01*
X167624285Y-85452180D02*
X167671904Y-85356942D01*
X167671904Y-85356942D02*
X167671904Y-85261704D01*
X167671904Y-85261704D02*
X167624285Y-85166466D01*
X167624285Y-85166466D02*
X167576666Y-85118847D01*
X167576666Y-85118847D02*
X167481428Y-85071228D01*
X167481428Y-85071228D02*
X167290952Y-85023609D01*
X167290952Y-85023609D02*
X167195714Y-84975990D01*
X167195714Y-84975990D02*
X167148095Y-84928371D01*
X167148095Y-84928371D02*
X167100476Y-84833133D01*
X167100476Y-84833133D02*
X167100476Y-84737895D01*
X167100476Y-84737895D02*
X167148095Y-84642657D01*
X167148095Y-84642657D02*
X167195714Y-84595038D01*
X167195714Y-84595038D02*
X167290952Y-84547419D01*
X167290952Y-84547419D02*
X167529047Y-84547419D01*
X167529047Y-84547419D02*
X167671904Y-84595038D01*
X168005238Y-84547419D02*
X168243333Y-85547419D01*
X168243333Y-85547419D02*
X168433809Y-84833133D01*
X168433809Y-84833133D02*
X168624285Y-85547419D01*
X168624285Y-85547419D02*
X168862381Y-84547419D01*
X169767142Y-85547419D02*
X169195714Y-85547419D01*
X169481428Y-85547419D02*
X169481428Y-84547419D01*
X169481428Y-84547419D02*
X169386190Y-84690276D01*
X169386190Y-84690276D02*
X169290952Y-84785514D01*
X169290952Y-84785514D02*
X169195714Y-84833133D01*
X170386190Y-84547419D02*
X170481428Y-84547419D01*
X170481428Y-84547419D02*
X170576666Y-84595038D01*
X170576666Y-84595038D02*
X170624285Y-84642657D01*
X170624285Y-84642657D02*
X170671904Y-84737895D01*
X170671904Y-84737895D02*
X170719523Y-84928371D01*
X170719523Y-84928371D02*
X170719523Y-85166466D01*
X170719523Y-85166466D02*
X170671904Y-85356942D01*
X170671904Y-85356942D02*
X170624285Y-85452180D01*
X170624285Y-85452180D02*
X170576666Y-85499800D01*
X170576666Y-85499800D02*
X170481428Y-85547419D01*
X170481428Y-85547419D02*
X170386190Y-85547419D01*
X170386190Y-85547419D02*
X170290952Y-85499800D01*
X170290952Y-85499800D02*
X170243333Y-85452180D01*
X170243333Y-85452180D02*
X170195714Y-85356942D01*
X170195714Y-85356942D02*
X170148095Y-85166466D01*
X170148095Y-85166466D02*
X170148095Y-84928371D01*
X170148095Y-84928371D02*
X170195714Y-84737895D01*
X170195714Y-84737895D02*
X170243333Y-84642657D01*
X170243333Y-84642657D02*
X170290952Y-84595038D01*
X170290952Y-84595038D02*
X170386190Y-84547419D01*
X129000476Y-104549800D02*
X129143333Y-104597419D01*
X129143333Y-104597419D02*
X129381428Y-104597419D01*
X129381428Y-104597419D02*
X129476666Y-104549800D01*
X129476666Y-104549800D02*
X129524285Y-104502180D01*
X129524285Y-104502180D02*
X129571904Y-104406942D01*
X129571904Y-104406942D02*
X129571904Y-104311704D01*
X129571904Y-104311704D02*
X129524285Y-104216466D01*
X129524285Y-104216466D02*
X129476666Y-104168847D01*
X129476666Y-104168847D02*
X129381428Y-104121228D01*
X129381428Y-104121228D02*
X129190952Y-104073609D01*
X129190952Y-104073609D02*
X129095714Y-104025990D01*
X129095714Y-104025990D02*
X129048095Y-103978371D01*
X129048095Y-103978371D02*
X129000476Y-103883133D01*
X129000476Y-103883133D02*
X129000476Y-103787895D01*
X129000476Y-103787895D02*
X129048095Y-103692657D01*
X129048095Y-103692657D02*
X129095714Y-103645038D01*
X129095714Y-103645038D02*
X129190952Y-103597419D01*
X129190952Y-103597419D02*
X129429047Y-103597419D01*
X129429047Y-103597419D02*
X129571904Y-103645038D01*
X129905238Y-103597419D02*
X130143333Y-104597419D01*
X130143333Y-104597419D02*
X130333809Y-103883133D01*
X130333809Y-103883133D02*
X130524285Y-104597419D01*
X130524285Y-104597419D02*
X130762381Y-103597419D01*
X131667142Y-104597419D02*
X131095714Y-104597419D01*
X131381428Y-104597419D02*
X131381428Y-103597419D01*
X131381428Y-103597419D02*
X131286190Y-103740276D01*
X131286190Y-103740276D02*
X131190952Y-103835514D01*
X131190952Y-103835514D02*
X131095714Y-103883133D01*
X132000476Y-103597419D02*
X132619523Y-103597419D01*
X132619523Y-103597419D02*
X132286190Y-103978371D01*
X132286190Y-103978371D02*
X132429047Y-103978371D01*
X132429047Y-103978371D02*
X132524285Y-104025990D01*
X132524285Y-104025990D02*
X132571904Y-104073609D01*
X132571904Y-104073609D02*
X132619523Y-104168847D01*
X132619523Y-104168847D02*
X132619523Y-104406942D01*
X132619523Y-104406942D02*
X132571904Y-104502180D01*
X132571904Y-104502180D02*
X132524285Y-104549800D01*
X132524285Y-104549800D02*
X132429047Y-104597419D01*
X132429047Y-104597419D02*
X132143333Y-104597419D01*
X132143333Y-104597419D02*
X132048095Y-104549800D01*
X132048095Y-104549800D02*
X132000476Y-104502180D01*
X109950476Y-104549800D02*
X110093333Y-104597419D01*
X110093333Y-104597419D02*
X110331428Y-104597419D01*
X110331428Y-104597419D02*
X110426666Y-104549800D01*
X110426666Y-104549800D02*
X110474285Y-104502180D01*
X110474285Y-104502180D02*
X110521904Y-104406942D01*
X110521904Y-104406942D02*
X110521904Y-104311704D01*
X110521904Y-104311704D02*
X110474285Y-104216466D01*
X110474285Y-104216466D02*
X110426666Y-104168847D01*
X110426666Y-104168847D02*
X110331428Y-104121228D01*
X110331428Y-104121228D02*
X110140952Y-104073609D01*
X110140952Y-104073609D02*
X110045714Y-104025990D01*
X110045714Y-104025990D02*
X109998095Y-103978371D01*
X109998095Y-103978371D02*
X109950476Y-103883133D01*
X109950476Y-103883133D02*
X109950476Y-103787895D01*
X109950476Y-103787895D02*
X109998095Y-103692657D01*
X109998095Y-103692657D02*
X110045714Y-103645038D01*
X110045714Y-103645038D02*
X110140952Y-103597419D01*
X110140952Y-103597419D02*
X110379047Y-103597419D01*
X110379047Y-103597419D02*
X110521904Y-103645038D01*
X110855238Y-103597419D02*
X111093333Y-104597419D01*
X111093333Y-104597419D02*
X111283809Y-103883133D01*
X111283809Y-103883133D02*
X111474285Y-104597419D01*
X111474285Y-104597419D02*
X111712381Y-103597419D01*
X112617142Y-104597419D02*
X112045714Y-104597419D01*
X112331428Y-104597419D02*
X112331428Y-103597419D01*
X112331428Y-103597419D02*
X112236190Y-103740276D01*
X112236190Y-103740276D02*
X112140952Y-103835514D01*
X112140952Y-103835514D02*
X112045714Y-103883133D01*
X112998095Y-103692657D02*
X113045714Y-103645038D01*
X113045714Y-103645038D02*
X113140952Y-103597419D01*
X113140952Y-103597419D02*
X113379047Y-103597419D01*
X113379047Y-103597419D02*
X113474285Y-103645038D01*
X113474285Y-103645038D02*
X113521904Y-103692657D01*
X113521904Y-103692657D02*
X113569523Y-103787895D01*
X113569523Y-103787895D02*
X113569523Y-103883133D01*
X113569523Y-103883133D02*
X113521904Y-104025990D01*
X113521904Y-104025990D02*
X112950476Y-104597419D01*
X112950476Y-104597419D02*
X113569523Y-104597419D01*
X129476667Y-66449800D02*
X129619524Y-66497419D01*
X129619524Y-66497419D02*
X129857619Y-66497419D01*
X129857619Y-66497419D02*
X129952857Y-66449800D01*
X129952857Y-66449800D02*
X130000476Y-66402180D01*
X130000476Y-66402180D02*
X130048095Y-66306942D01*
X130048095Y-66306942D02*
X130048095Y-66211704D01*
X130048095Y-66211704D02*
X130000476Y-66116466D01*
X130000476Y-66116466D02*
X129952857Y-66068847D01*
X129952857Y-66068847D02*
X129857619Y-66021228D01*
X129857619Y-66021228D02*
X129667143Y-65973609D01*
X129667143Y-65973609D02*
X129571905Y-65925990D01*
X129571905Y-65925990D02*
X129524286Y-65878371D01*
X129524286Y-65878371D02*
X129476667Y-65783133D01*
X129476667Y-65783133D02*
X129476667Y-65687895D01*
X129476667Y-65687895D02*
X129524286Y-65592657D01*
X129524286Y-65592657D02*
X129571905Y-65545038D01*
X129571905Y-65545038D02*
X129667143Y-65497419D01*
X129667143Y-65497419D02*
X129905238Y-65497419D01*
X129905238Y-65497419D02*
X130048095Y-65545038D01*
X130381429Y-65497419D02*
X130619524Y-66497419D01*
X130619524Y-66497419D02*
X130810000Y-65783133D01*
X130810000Y-65783133D02*
X131000476Y-66497419D01*
X131000476Y-66497419D02*
X131238572Y-65497419D01*
X131524286Y-65497419D02*
X132143333Y-65497419D01*
X132143333Y-65497419D02*
X131810000Y-65878371D01*
X131810000Y-65878371D02*
X131952857Y-65878371D01*
X131952857Y-65878371D02*
X132048095Y-65925990D01*
X132048095Y-65925990D02*
X132095714Y-65973609D01*
X132095714Y-65973609D02*
X132143333Y-66068847D01*
X132143333Y-66068847D02*
X132143333Y-66306942D01*
X132143333Y-66306942D02*
X132095714Y-66402180D01*
X132095714Y-66402180D02*
X132048095Y-66449800D01*
X132048095Y-66449800D02*
X131952857Y-66497419D01*
X131952857Y-66497419D02*
X131667143Y-66497419D01*
X131667143Y-66497419D02*
X131571905Y-66449800D01*
X131571905Y-66449800D02*
X131524286Y-66402180D01*
X148050476Y-104549800D02*
X148193333Y-104597419D01*
X148193333Y-104597419D02*
X148431428Y-104597419D01*
X148431428Y-104597419D02*
X148526666Y-104549800D01*
X148526666Y-104549800D02*
X148574285Y-104502180D01*
X148574285Y-104502180D02*
X148621904Y-104406942D01*
X148621904Y-104406942D02*
X148621904Y-104311704D01*
X148621904Y-104311704D02*
X148574285Y-104216466D01*
X148574285Y-104216466D02*
X148526666Y-104168847D01*
X148526666Y-104168847D02*
X148431428Y-104121228D01*
X148431428Y-104121228D02*
X148240952Y-104073609D01*
X148240952Y-104073609D02*
X148145714Y-104025990D01*
X148145714Y-104025990D02*
X148098095Y-103978371D01*
X148098095Y-103978371D02*
X148050476Y-103883133D01*
X148050476Y-103883133D02*
X148050476Y-103787895D01*
X148050476Y-103787895D02*
X148098095Y-103692657D01*
X148098095Y-103692657D02*
X148145714Y-103645038D01*
X148145714Y-103645038D02*
X148240952Y-103597419D01*
X148240952Y-103597419D02*
X148479047Y-103597419D01*
X148479047Y-103597419D02*
X148621904Y-103645038D01*
X148955238Y-103597419D02*
X149193333Y-104597419D01*
X149193333Y-104597419D02*
X149383809Y-103883133D01*
X149383809Y-103883133D02*
X149574285Y-104597419D01*
X149574285Y-104597419D02*
X149812381Y-103597419D01*
X150717142Y-104597419D02*
X150145714Y-104597419D01*
X150431428Y-104597419D02*
X150431428Y-103597419D01*
X150431428Y-103597419D02*
X150336190Y-103740276D01*
X150336190Y-103740276D02*
X150240952Y-103835514D01*
X150240952Y-103835514D02*
X150145714Y-103883133D01*
X151574285Y-103930752D02*
X151574285Y-104597419D01*
X151336190Y-103549800D02*
X151098095Y-104264085D01*
X151098095Y-104264085D02*
X151717142Y-104264085D01*
X148526667Y-66449800D02*
X148669524Y-66497419D01*
X148669524Y-66497419D02*
X148907619Y-66497419D01*
X148907619Y-66497419D02*
X149002857Y-66449800D01*
X149002857Y-66449800D02*
X149050476Y-66402180D01*
X149050476Y-66402180D02*
X149098095Y-66306942D01*
X149098095Y-66306942D02*
X149098095Y-66211704D01*
X149098095Y-66211704D02*
X149050476Y-66116466D01*
X149050476Y-66116466D02*
X149002857Y-66068847D01*
X149002857Y-66068847D02*
X148907619Y-66021228D01*
X148907619Y-66021228D02*
X148717143Y-65973609D01*
X148717143Y-65973609D02*
X148621905Y-65925990D01*
X148621905Y-65925990D02*
X148574286Y-65878371D01*
X148574286Y-65878371D02*
X148526667Y-65783133D01*
X148526667Y-65783133D02*
X148526667Y-65687895D01*
X148526667Y-65687895D02*
X148574286Y-65592657D01*
X148574286Y-65592657D02*
X148621905Y-65545038D01*
X148621905Y-65545038D02*
X148717143Y-65497419D01*
X148717143Y-65497419D02*
X148955238Y-65497419D01*
X148955238Y-65497419D02*
X149098095Y-65545038D01*
X149431429Y-65497419D02*
X149669524Y-66497419D01*
X149669524Y-66497419D02*
X149860000Y-65783133D01*
X149860000Y-65783133D02*
X150050476Y-66497419D01*
X150050476Y-66497419D02*
X150288572Y-65497419D01*
X151098095Y-65830752D02*
X151098095Y-66497419D01*
X150860000Y-65449800D02*
X150621905Y-66164085D01*
X150621905Y-66164085D02*
X151240952Y-66164085D01*
X91376667Y-66449800D02*
X91519524Y-66497419D01*
X91519524Y-66497419D02*
X91757619Y-66497419D01*
X91757619Y-66497419D02*
X91852857Y-66449800D01*
X91852857Y-66449800D02*
X91900476Y-66402180D01*
X91900476Y-66402180D02*
X91948095Y-66306942D01*
X91948095Y-66306942D02*
X91948095Y-66211704D01*
X91948095Y-66211704D02*
X91900476Y-66116466D01*
X91900476Y-66116466D02*
X91852857Y-66068847D01*
X91852857Y-66068847D02*
X91757619Y-66021228D01*
X91757619Y-66021228D02*
X91567143Y-65973609D01*
X91567143Y-65973609D02*
X91471905Y-65925990D01*
X91471905Y-65925990D02*
X91424286Y-65878371D01*
X91424286Y-65878371D02*
X91376667Y-65783133D01*
X91376667Y-65783133D02*
X91376667Y-65687895D01*
X91376667Y-65687895D02*
X91424286Y-65592657D01*
X91424286Y-65592657D02*
X91471905Y-65545038D01*
X91471905Y-65545038D02*
X91567143Y-65497419D01*
X91567143Y-65497419D02*
X91805238Y-65497419D01*
X91805238Y-65497419D02*
X91948095Y-65545038D01*
X92281429Y-65497419D02*
X92519524Y-66497419D01*
X92519524Y-66497419D02*
X92710000Y-65783133D01*
X92710000Y-65783133D02*
X92900476Y-66497419D01*
X92900476Y-66497419D02*
X93138572Y-65497419D01*
X94043333Y-66497419D02*
X93471905Y-66497419D01*
X93757619Y-66497419D02*
X93757619Y-65497419D01*
X93757619Y-65497419D02*
X93662381Y-65640276D01*
X93662381Y-65640276D02*
X93567143Y-65735514D01*
X93567143Y-65735514D02*
X93471905Y-65783133D01*
X90900476Y-104549800D02*
X91043333Y-104597419D01*
X91043333Y-104597419D02*
X91281428Y-104597419D01*
X91281428Y-104597419D02*
X91376666Y-104549800D01*
X91376666Y-104549800D02*
X91424285Y-104502180D01*
X91424285Y-104502180D02*
X91471904Y-104406942D01*
X91471904Y-104406942D02*
X91471904Y-104311704D01*
X91471904Y-104311704D02*
X91424285Y-104216466D01*
X91424285Y-104216466D02*
X91376666Y-104168847D01*
X91376666Y-104168847D02*
X91281428Y-104121228D01*
X91281428Y-104121228D02*
X91090952Y-104073609D01*
X91090952Y-104073609D02*
X90995714Y-104025990D01*
X90995714Y-104025990D02*
X90948095Y-103978371D01*
X90948095Y-103978371D02*
X90900476Y-103883133D01*
X90900476Y-103883133D02*
X90900476Y-103787895D01*
X90900476Y-103787895D02*
X90948095Y-103692657D01*
X90948095Y-103692657D02*
X90995714Y-103645038D01*
X90995714Y-103645038D02*
X91090952Y-103597419D01*
X91090952Y-103597419D02*
X91329047Y-103597419D01*
X91329047Y-103597419D02*
X91471904Y-103645038D01*
X91805238Y-103597419D02*
X92043333Y-104597419D01*
X92043333Y-104597419D02*
X92233809Y-103883133D01*
X92233809Y-103883133D02*
X92424285Y-104597419D01*
X92424285Y-104597419D02*
X92662381Y-103597419D01*
X93567142Y-104597419D02*
X92995714Y-104597419D01*
X93281428Y-104597419D02*
X93281428Y-103597419D01*
X93281428Y-103597419D02*
X93186190Y-103740276D01*
X93186190Y-103740276D02*
X93090952Y-103835514D01*
X93090952Y-103835514D02*
X92995714Y-103883133D01*
X94519523Y-104597419D02*
X93948095Y-104597419D01*
X94233809Y-104597419D02*
X94233809Y-103597419D01*
X94233809Y-103597419D02*
X94138571Y-103740276D01*
X94138571Y-103740276D02*
X94043333Y-103835514D01*
X94043333Y-103835514D02*
X93948095Y-103883133D01*
X167100476Y-104549800D02*
X167243333Y-104597419D01*
X167243333Y-104597419D02*
X167481428Y-104597419D01*
X167481428Y-104597419D02*
X167576666Y-104549800D01*
X167576666Y-104549800D02*
X167624285Y-104502180D01*
X167624285Y-104502180D02*
X167671904Y-104406942D01*
X167671904Y-104406942D02*
X167671904Y-104311704D01*
X167671904Y-104311704D02*
X167624285Y-104216466D01*
X167624285Y-104216466D02*
X167576666Y-104168847D01*
X167576666Y-104168847D02*
X167481428Y-104121228D01*
X167481428Y-104121228D02*
X167290952Y-104073609D01*
X167290952Y-104073609D02*
X167195714Y-104025990D01*
X167195714Y-104025990D02*
X167148095Y-103978371D01*
X167148095Y-103978371D02*
X167100476Y-103883133D01*
X167100476Y-103883133D02*
X167100476Y-103787895D01*
X167100476Y-103787895D02*
X167148095Y-103692657D01*
X167148095Y-103692657D02*
X167195714Y-103645038D01*
X167195714Y-103645038D02*
X167290952Y-103597419D01*
X167290952Y-103597419D02*
X167529047Y-103597419D01*
X167529047Y-103597419D02*
X167671904Y-103645038D01*
X168005238Y-103597419D02*
X168243333Y-104597419D01*
X168243333Y-104597419D02*
X168433809Y-103883133D01*
X168433809Y-103883133D02*
X168624285Y-104597419D01*
X168624285Y-104597419D02*
X168862381Y-103597419D01*
X169767142Y-104597419D02*
X169195714Y-104597419D01*
X169481428Y-104597419D02*
X169481428Y-103597419D01*
X169481428Y-103597419D02*
X169386190Y-103740276D01*
X169386190Y-103740276D02*
X169290952Y-103835514D01*
X169290952Y-103835514D02*
X169195714Y-103883133D01*
X170671904Y-103597419D02*
X170195714Y-103597419D01*
X170195714Y-103597419D02*
X170148095Y-104073609D01*
X170148095Y-104073609D02*
X170195714Y-104025990D01*
X170195714Y-104025990D02*
X170290952Y-103978371D01*
X170290952Y-103978371D02*
X170529047Y-103978371D01*
X170529047Y-103978371D02*
X170624285Y-104025990D01*
X170624285Y-104025990D02*
X170671904Y-104073609D01*
X170671904Y-104073609D02*
X170719523Y-104168847D01*
X170719523Y-104168847D02*
X170719523Y-104406942D01*
X170719523Y-104406942D02*
X170671904Y-104502180D01*
X170671904Y-104502180D02*
X170624285Y-104549800D01*
X170624285Y-104549800D02*
X170529047Y-104597419D01*
X170529047Y-104597419D02*
X170290952Y-104597419D01*
X170290952Y-104597419D02*
X170195714Y-104549800D01*
X170195714Y-104549800D02*
X170148095Y-104502180D01*
D13*
X83412178Y-140277594D02*
X83479521Y-140412281D01*
X83479521Y-140412281D02*
X83479521Y-140479624D01*
X83479521Y-140479624D02*
X83445850Y-140580639D01*
X83445850Y-140580639D02*
X83344834Y-140681655D01*
X83344834Y-140681655D02*
X83243819Y-140715326D01*
X83243819Y-140715326D02*
X83176476Y-140715326D01*
X83176476Y-140715326D02*
X83075460Y-140681655D01*
X83075460Y-140681655D02*
X82806086Y-140412281D01*
X82806086Y-140412281D02*
X83513193Y-139705174D01*
X83513193Y-139705174D02*
X83748895Y-139940876D01*
X83748895Y-139940876D02*
X83782567Y-140041891D01*
X83782567Y-140041891D02*
X83782567Y-140109235D01*
X83782567Y-140109235D02*
X83748895Y-140210250D01*
X83748895Y-140210250D02*
X83681552Y-140277594D01*
X83681552Y-140277594D02*
X83580537Y-140311265D01*
X83580537Y-140311265D02*
X83513193Y-140311265D01*
X83513193Y-140311265D02*
X83412178Y-140277594D01*
X83412178Y-140277594D02*
X83176476Y-140041891D01*
X84119285Y-140984700D02*
X83883582Y-140748998D01*
X83513193Y-141119387D02*
X84220300Y-140412281D01*
X84220300Y-140412281D02*
X84557017Y-140748998D01*
X84489674Y-141355090D02*
X84725376Y-141590792D01*
X84456002Y-142062196D02*
X84119285Y-141725479D01*
X84119285Y-141725479D02*
X84826391Y-141018372D01*
X84826391Y-141018372D02*
X85163109Y-141355090D01*
X85230453Y-141893838D02*
X84759048Y-142365242D01*
X85163109Y-141961181D02*
X85230453Y-141961181D01*
X85230453Y-141961181D02*
X85331468Y-141994853D01*
X85331468Y-141994853D02*
X85432483Y-142095868D01*
X85432483Y-142095868D02*
X85466155Y-142196884D01*
X85466155Y-142196884D02*
X85432483Y-142297899D01*
X85432483Y-142297899D02*
X85062094Y-142668288D01*
X85735529Y-143274380D02*
X85634514Y-143240708D01*
X85634514Y-143240708D02*
X85499827Y-143106021D01*
X85499827Y-143106021D02*
X85466155Y-143005006D01*
X85466155Y-143005006D02*
X85466155Y-142937662D01*
X85466155Y-142937662D02*
X85499827Y-142836647D01*
X85499827Y-142836647D02*
X85701857Y-142634616D01*
X85701857Y-142634616D02*
X85802872Y-142600945D01*
X85802872Y-142600945D02*
X85870216Y-142600945D01*
X85870216Y-142600945D02*
X85971231Y-142634616D01*
X85971231Y-142634616D02*
X86105918Y-142769303D01*
X86105918Y-142769303D02*
X86139590Y-142870319D01*
X86105918Y-143712113D02*
X86072247Y-143611097D01*
X86072247Y-143611097D02*
X86072247Y-143543754D01*
X86072247Y-143543754D02*
X86105918Y-143442739D01*
X86105918Y-143442739D02*
X86307949Y-143240708D01*
X86307949Y-143240708D02*
X86408964Y-143207036D01*
X86408964Y-143207036D02*
X86476308Y-143207036D01*
X86476308Y-143207036D02*
X86577323Y-143240708D01*
X86577323Y-143240708D02*
X86678338Y-143341723D01*
X86678338Y-143341723D02*
X86712010Y-143442739D01*
X86712010Y-143442739D02*
X86712010Y-143510082D01*
X86712010Y-143510082D02*
X86678338Y-143611097D01*
X86678338Y-143611097D02*
X86476308Y-143813128D01*
X86476308Y-143813128D02*
X86375292Y-143846800D01*
X86375292Y-143846800D02*
X86307949Y-143846800D01*
X86307949Y-143846800D02*
X86206934Y-143813128D01*
X86206934Y-143813128D02*
X86105918Y-143712113D01*
X86947712Y-144553906D02*
X87654819Y-143846800D01*
X86981384Y-144520235D02*
X86880369Y-144486563D01*
X86880369Y-144486563D02*
X86745682Y-144351876D01*
X86745682Y-144351876D02*
X86712010Y-144250861D01*
X86712010Y-144250861D02*
X86712010Y-144183517D01*
X86712010Y-144183517D02*
X86745682Y-144082502D01*
X86745682Y-144082502D02*
X86947712Y-143880471D01*
X86947712Y-143880471D02*
X87048727Y-143846800D01*
X87048727Y-143846800D02*
X87116071Y-143846800D01*
X87116071Y-143846800D02*
X87217086Y-143880471D01*
X87217086Y-143880471D02*
X87351773Y-144015158D01*
X87351773Y-144015158D02*
X87385445Y-144116174D01*
X87587475Y-145126326D02*
X87486460Y-145092655D01*
X87486460Y-145092655D02*
X87351773Y-144957967D01*
X87351773Y-144957967D02*
X87318101Y-144856952D01*
X87318101Y-144856952D02*
X87351773Y-144755937D01*
X87351773Y-144755937D02*
X87621147Y-144486563D01*
X87621147Y-144486563D02*
X87722162Y-144452891D01*
X87722162Y-144452891D02*
X87823178Y-144486563D01*
X87823178Y-144486563D02*
X87957865Y-144621250D01*
X87957865Y-144621250D02*
X87991537Y-144722265D01*
X87991537Y-144722265D02*
X87957865Y-144823280D01*
X87957865Y-144823280D02*
X87890521Y-144890624D01*
X87890521Y-144890624D02*
X87486460Y-144621250D01*
X87890521Y-145496716D02*
X88361926Y-145025311D01*
X88227239Y-145159998D02*
X88328254Y-145126326D01*
X88328254Y-145126326D02*
X88395598Y-145126326D01*
X88395598Y-145126326D02*
X88496613Y-145159998D01*
X88496613Y-145159998D02*
X88563956Y-145227342D01*
X88092552Y-145833433D02*
X88631300Y-146372181D01*
X89237392Y-146843586D02*
X88833331Y-146439525D01*
X89035361Y-146641556D02*
X89742468Y-145934449D01*
X89742468Y-145934449D02*
X89574109Y-145968121D01*
X89574109Y-145968121D02*
X89439422Y-145968121D01*
X89439422Y-145968121D02*
X89338407Y-145934449D01*
D12*
X91376667Y-85499800D02*
X91519524Y-85547419D01*
X91519524Y-85547419D02*
X91757619Y-85547419D01*
X91757619Y-85547419D02*
X91852857Y-85499800D01*
X91852857Y-85499800D02*
X91900476Y-85452180D01*
X91900476Y-85452180D02*
X91948095Y-85356942D01*
X91948095Y-85356942D02*
X91948095Y-85261704D01*
X91948095Y-85261704D02*
X91900476Y-85166466D01*
X91900476Y-85166466D02*
X91852857Y-85118847D01*
X91852857Y-85118847D02*
X91757619Y-85071228D01*
X91757619Y-85071228D02*
X91567143Y-85023609D01*
X91567143Y-85023609D02*
X91471905Y-84975990D01*
X91471905Y-84975990D02*
X91424286Y-84928371D01*
X91424286Y-84928371D02*
X91376667Y-84833133D01*
X91376667Y-84833133D02*
X91376667Y-84737895D01*
X91376667Y-84737895D02*
X91424286Y-84642657D01*
X91424286Y-84642657D02*
X91471905Y-84595038D01*
X91471905Y-84595038D02*
X91567143Y-84547419D01*
X91567143Y-84547419D02*
X91805238Y-84547419D01*
X91805238Y-84547419D02*
X91948095Y-84595038D01*
X92281429Y-84547419D02*
X92519524Y-85547419D01*
X92519524Y-85547419D02*
X92710000Y-84833133D01*
X92710000Y-84833133D02*
X92900476Y-85547419D01*
X92900476Y-85547419D02*
X93138572Y-84547419D01*
X93948095Y-84547419D02*
X93757619Y-84547419D01*
X93757619Y-84547419D02*
X93662381Y-84595038D01*
X93662381Y-84595038D02*
X93614762Y-84642657D01*
X93614762Y-84642657D02*
X93519524Y-84785514D01*
X93519524Y-84785514D02*
X93471905Y-84975990D01*
X93471905Y-84975990D02*
X93471905Y-85356942D01*
X93471905Y-85356942D02*
X93519524Y-85452180D01*
X93519524Y-85452180D02*
X93567143Y-85499800D01*
X93567143Y-85499800D02*
X93662381Y-85547419D01*
X93662381Y-85547419D02*
X93852857Y-85547419D01*
X93852857Y-85547419D02*
X93948095Y-85499800D01*
X93948095Y-85499800D02*
X93995714Y-85452180D01*
X93995714Y-85452180D02*
X94043333Y-85356942D01*
X94043333Y-85356942D02*
X94043333Y-85118847D01*
X94043333Y-85118847D02*
X93995714Y-85023609D01*
X93995714Y-85023609D02*
X93948095Y-84975990D01*
X93948095Y-84975990D02*
X93852857Y-84928371D01*
X93852857Y-84928371D02*
X93662381Y-84928371D01*
X93662381Y-84928371D02*
X93567143Y-84975990D01*
X93567143Y-84975990D02*
X93519524Y-85023609D01*
X93519524Y-85023609D02*
X93471905Y-85118847D01*
X129000476Y-123599800D02*
X129143333Y-123647419D01*
X129143333Y-123647419D02*
X129381428Y-123647419D01*
X129381428Y-123647419D02*
X129476666Y-123599800D01*
X129476666Y-123599800D02*
X129524285Y-123552180D01*
X129524285Y-123552180D02*
X129571904Y-123456942D01*
X129571904Y-123456942D02*
X129571904Y-123361704D01*
X129571904Y-123361704D02*
X129524285Y-123266466D01*
X129524285Y-123266466D02*
X129476666Y-123218847D01*
X129476666Y-123218847D02*
X129381428Y-123171228D01*
X129381428Y-123171228D02*
X129190952Y-123123609D01*
X129190952Y-123123609D02*
X129095714Y-123075990D01*
X129095714Y-123075990D02*
X129048095Y-123028371D01*
X129048095Y-123028371D02*
X129000476Y-122933133D01*
X129000476Y-122933133D02*
X129000476Y-122837895D01*
X129000476Y-122837895D02*
X129048095Y-122742657D01*
X129048095Y-122742657D02*
X129095714Y-122695038D01*
X129095714Y-122695038D02*
X129190952Y-122647419D01*
X129190952Y-122647419D02*
X129429047Y-122647419D01*
X129429047Y-122647419D02*
X129571904Y-122695038D01*
X129905238Y-122647419D02*
X130143333Y-123647419D01*
X130143333Y-123647419D02*
X130333809Y-122933133D01*
X130333809Y-122933133D02*
X130524285Y-123647419D01*
X130524285Y-123647419D02*
X130762381Y-122647419D01*
X131667142Y-123647419D02*
X131095714Y-123647419D01*
X131381428Y-123647419D02*
X131381428Y-122647419D01*
X131381428Y-122647419D02*
X131286190Y-122790276D01*
X131286190Y-122790276D02*
X131190952Y-122885514D01*
X131190952Y-122885514D02*
X131095714Y-122933133D01*
X132238571Y-123075990D02*
X132143333Y-123028371D01*
X132143333Y-123028371D02*
X132095714Y-122980752D01*
X132095714Y-122980752D02*
X132048095Y-122885514D01*
X132048095Y-122885514D02*
X132048095Y-122837895D01*
X132048095Y-122837895D02*
X132095714Y-122742657D01*
X132095714Y-122742657D02*
X132143333Y-122695038D01*
X132143333Y-122695038D02*
X132238571Y-122647419D01*
X132238571Y-122647419D02*
X132429047Y-122647419D01*
X132429047Y-122647419D02*
X132524285Y-122695038D01*
X132524285Y-122695038D02*
X132571904Y-122742657D01*
X132571904Y-122742657D02*
X132619523Y-122837895D01*
X132619523Y-122837895D02*
X132619523Y-122885514D01*
X132619523Y-122885514D02*
X132571904Y-122980752D01*
X132571904Y-122980752D02*
X132524285Y-123028371D01*
X132524285Y-123028371D02*
X132429047Y-123075990D01*
X132429047Y-123075990D02*
X132238571Y-123075990D01*
X132238571Y-123075990D02*
X132143333Y-123123609D01*
X132143333Y-123123609D02*
X132095714Y-123171228D01*
X132095714Y-123171228D02*
X132048095Y-123266466D01*
X132048095Y-123266466D02*
X132048095Y-123456942D01*
X132048095Y-123456942D02*
X132095714Y-123552180D01*
X132095714Y-123552180D02*
X132143333Y-123599800D01*
X132143333Y-123599800D02*
X132238571Y-123647419D01*
X132238571Y-123647419D02*
X132429047Y-123647419D01*
X132429047Y-123647419D02*
X132524285Y-123599800D01*
X132524285Y-123599800D02*
X132571904Y-123552180D01*
X132571904Y-123552180D02*
X132619523Y-123456942D01*
X132619523Y-123456942D02*
X132619523Y-123266466D01*
X132619523Y-123266466D02*
X132571904Y-123171228D01*
X132571904Y-123171228D02*
X132524285Y-123123609D01*
X132524285Y-123123609D02*
X132429047Y-123075990D01*
D13*
X179901594Y-146203821D02*
X180036281Y-146136478D01*
X180036281Y-146136478D02*
X180103624Y-146136478D01*
X180103624Y-146136478D02*
X180204639Y-146170149D01*
X180204639Y-146170149D02*
X180305655Y-146271165D01*
X180305655Y-146271165D02*
X180339326Y-146372180D01*
X180339326Y-146372180D02*
X180339326Y-146439523D01*
X180339326Y-146439523D02*
X180305655Y-146540539D01*
X180305655Y-146540539D02*
X180036281Y-146809913D01*
X180036281Y-146809913D02*
X179329174Y-146102806D01*
X179329174Y-146102806D02*
X179564876Y-145867104D01*
X179564876Y-145867104D02*
X179665891Y-145833432D01*
X179665891Y-145833432D02*
X179733235Y-145833432D01*
X179733235Y-145833432D02*
X179834250Y-145867104D01*
X179834250Y-145867104D02*
X179901594Y-145934447D01*
X179901594Y-145934447D02*
X179935265Y-146035462D01*
X179935265Y-146035462D02*
X179935265Y-146102806D01*
X179935265Y-146102806D02*
X179901594Y-146203821D01*
X179901594Y-146203821D02*
X179665891Y-146439523D01*
X180608700Y-145496714D02*
X180372998Y-145732417D01*
X180743387Y-146102806D02*
X180036281Y-145395699D01*
X180036281Y-145395699D02*
X180372998Y-145058982D01*
X180979090Y-145126325D02*
X181214792Y-144890623D01*
X181686196Y-145159997D02*
X181349479Y-145496714D01*
X181349479Y-145496714D02*
X180642372Y-144789608D01*
X180642372Y-144789608D02*
X180979090Y-144452890D01*
X181517838Y-144385546D02*
X181989242Y-144856951D01*
X181585181Y-144452890D02*
X181585181Y-144385546D01*
X181585181Y-144385546D02*
X181618853Y-144284531D01*
X181618853Y-144284531D02*
X181719868Y-144183516D01*
X181719868Y-144183516D02*
X181820884Y-144149844D01*
X181820884Y-144149844D02*
X181921899Y-144183516D01*
X181921899Y-144183516D02*
X182292288Y-144553905D01*
X182898380Y-143880470D02*
X182864708Y-143981485D01*
X182864708Y-143981485D02*
X182730021Y-144116172D01*
X182730021Y-144116172D02*
X182629006Y-144149844D01*
X182629006Y-144149844D02*
X182561662Y-144149844D01*
X182561662Y-144149844D02*
X182460647Y-144116172D01*
X182460647Y-144116172D02*
X182258616Y-143914142D01*
X182258616Y-143914142D02*
X182224945Y-143813127D01*
X182224945Y-143813127D02*
X182224945Y-143745783D01*
X182224945Y-143745783D02*
X182258616Y-143644768D01*
X182258616Y-143644768D02*
X182393303Y-143510081D01*
X182393303Y-143510081D02*
X182494319Y-143476409D01*
X183336113Y-143510081D02*
X183235097Y-143543752D01*
X183235097Y-143543752D02*
X183167754Y-143543752D01*
X183167754Y-143543752D02*
X183066739Y-143510081D01*
X183066739Y-143510081D02*
X182864708Y-143308050D01*
X182864708Y-143308050D02*
X182831036Y-143207035D01*
X182831036Y-143207035D02*
X182831036Y-143139691D01*
X182831036Y-143139691D02*
X182864708Y-143038676D01*
X182864708Y-143038676D02*
X182965723Y-142937661D01*
X182965723Y-142937661D02*
X183066739Y-142903989D01*
X183066739Y-142903989D02*
X183134082Y-142903989D01*
X183134082Y-142903989D02*
X183235097Y-142937661D01*
X183235097Y-142937661D02*
X183437128Y-143139691D01*
X183437128Y-143139691D02*
X183470800Y-143240707D01*
X183470800Y-143240707D02*
X183470800Y-143308050D01*
X183470800Y-143308050D02*
X183437128Y-143409065D01*
X183437128Y-143409065D02*
X183336113Y-143510081D01*
X184177906Y-142668287D02*
X183470800Y-141961180D01*
X184144235Y-142634615D02*
X184110563Y-142735630D01*
X184110563Y-142735630D02*
X183975876Y-142870317D01*
X183975876Y-142870317D02*
X183874861Y-142903989D01*
X183874861Y-142903989D02*
X183807517Y-142903989D01*
X183807517Y-142903989D02*
X183706502Y-142870317D01*
X183706502Y-142870317D02*
X183504471Y-142668287D01*
X183504471Y-142668287D02*
X183470800Y-142567272D01*
X183470800Y-142567272D02*
X183470800Y-142499928D01*
X183470800Y-142499928D02*
X183504471Y-142398913D01*
X183504471Y-142398913D02*
X183639158Y-142264226D01*
X183639158Y-142264226D02*
X183740174Y-142230554D01*
X184750326Y-142028524D02*
X184716655Y-142129539D01*
X184716655Y-142129539D02*
X184581967Y-142264226D01*
X184581967Y-142264226D02*
X184480952Y-142297898D01*
X184480952Y-142297898D02*
X184379937Y-142264226D01*
X184379937Y-142264226D02*
X184110563Y-141994852D01*
X184110563Y-141994852D02*
X184076891Y-141893837D01*
X184076891Y-141893837D02*
X184110563Y-141792821D01*
X184110563Y-141792821D02*
X184245250Y-141658134D01*
X184245250Y-141658134D02*
X184346265Y-141624462D01*
X184346265Y-141624462D02*
X184447280Y-141658134D01*
X184447280Y-141658134D02*
X184514624Y-141725478D01*
X184514624Y-141725478D02*
X184245250Y-142129539D01*
X185120716Y-141725478D02*
X184649311Y-141254073D01*
X184783998Y-141388760D02*
X184750326Y-141287745D01*
X184750326Y-141287745D02*
X184750326Y-141220401D01*
X184750326Y-141220401D02*
X184783998Y-141119386D01*
X184783998Y-141119386D02*
X184851342Y-141052043D01*
X185457433Y-141523447D02*
X185996181Y-140984699D01*
X185423762Y-140142905D02*
X185423762Y-140075561D01*
X185423762Y-140075561D02*
X185457434Y-139974546D01*
X185457434Y-139974546D02*
X185625792Y-139806187D01*
X185625792Y-139806187D02*
X185726808Y-139772516D01*
X185726808Y-139772516D02*
X185794151Y-139772516D01*
X185794151Y-139772516D02*
X185895166Y-139806187D01*
X185895166Y-139806187D02*
X185962510Y-139873531D01*
X185962510Y-139873531D02*
X186029853Y-140008218D01*
X186029853Y-140008218D02*
X186029853Y-140816340D01*
X186029853Y-140816340D02*
X186467586Y-140378607D01*
D12*
X148526667Y-85499800D02*
X148669524Y-85547419D01*
X148669524Y-85547419D02*
X148907619Y-85547419D01*
X148907619Y-85547419D02*
X149002857Y-85499800D01*
X149002857Y-85499800D02*
X149050476Y-85452180D01*
X149050476Y-85452180D02*
X149098095Y-85356942D01*
X149098095Y-85356942D02*
X149098095Y-85261704D01*
X149098095Y-85261704D02*
X149050476Y-85166466D01*
X149050476Y-85166466D02*
X149002857Y-85118847D01*
X149002857Y-85118847D02*
X148907619Y-85071228D01*
X148907619Y-85071228D02*
X148717143Y-85023609D01*
X148717143Y-85023609D02*
X148621905Y-84975990D01*
X148621905Y-84975990D02*
X148574286Y-84928371D01*
X148574286Y-84928371D02*
X148526667Y-84833133D01*
X148526667Y-84833133D02*
X148526667Y-84737895D01*
X148526667Y-84737895D02*
X148574286Y-84642657D01*
X148574286Y-84642657D02*
X148621905Y-84595038D01*
X148621905Y-84595038D02*
X148717143Y-84547419D01*
X148717143Y-84547419D02*
X148955238Y-84547419D01*
X148955238Y-84547419D02*
X149098095Y-84595038D01*
X149431429Y-84547419D02*
X149669524Y-85547419D01*
X149669524Y-85547419D02*
X149860000Y-84833133D01*
X149860000Y-84833133D02*
X150050476Y-85547419D01*
X150050476Y-85547419D02*
X150288572Y-84547419D01*
X150717143Y-85547419D02*
X150907619Y-85547419D01*
X150907619Y-85547419D02*
X151002857Y-85499800D01*
X151002857Y-85499800D02*
X151050476Y-85452180D01*
X151050476Y-85452180D02*
X151145714Y-85309323D01*
X151145714Y-85309323D02*
X151193333Y-85118847D01*
X151193333Y-85118847D02*
X151193333Y-84737895D01*
X151193333Y-84737895D02*
X151145714Y-84642657D01*
X151145714Y-84642657D02*
X151098095Y-84595038D01*
X151098095Y-84595038D02*
X151002857Y-84547419D01*
X151002857Y-84547419D02*
X150812381Y-84547419D01*
X150812381Y-84547419D02*
X150717143Y-84595038D01*
X150717143Y-84595038D02*
X150669524Y-84642657D01*
X150669524Y-84642657D02*
X150621905Y-84737895D01*
X150621905Y-84737895D02*
X150621905Y-84975990D01*
X150621905Y-84975990D02*
X150669524Y-85071228D01*
X150669524Y-85071228D02*
X150717143Y-85118847D01*
X150717143Y-85118847D02*
X150812381Y-85166466D01*
X150812381Y-85166466D02*
X151002857Y-85166466D01*
X151002857Y-85166466D02*
X151098095Y-85118847D01*
X151098095Y-85118847D02*
X151145714Y-85071228D01*
X151145714Y-85071228D02*
X151193333Y-84975990D01*
X109950476Y-123599800D02*
X110093333Y-123647419D01*
X110093333Y-123647419D02*
X110331428Y-123647419D01*
X110331428Y-123647419D02*
X110426666Y-123599800D01*
X110426666Y-123599800D02*
X110474285Y-123552180D01*
X110474285Y-123552180D02*
X110521904Y-123456942D01*
X110521904Y-123456942D02*
X110521904Y-123361704D01*
X110521904Y-123361704D02*
X110474285Y-123266466D01*
X110474285Y-123266466D02*
X110426666Y-123218847D01*
X110426666Y-123218847D02*
X110331428Y-123171228D01*
X110331428Y-123171228D02*
X110140952Y-123123609D01*
X110140952Y-123123609D02*
X110045714Y-123075990D01*
X110045714Y-123075990D02*
X109998095Y-123028371D01*
X109998095Y-123028371D02*
X109950476Y-122933133D01*
X109950476Y-122933133D02*
X109950476Y-122837895D01*
X109950476Y-122837895D02*
X109998095Y-122742657D01*
X109998095Y-122742657D02*
X110045714Y-122695038D01*
X110045714Y-122695038D02*
X110140952Y-122647419D01*
X110140952Y-122647419D02*
X110379047Y-122647419D01*
X110379047Y-122647419D02*
X110521904Y-122695038D01*
X110855238Y-122647419D02*
X111093333Y-123647419D01*
X111093333Y-123647419D02*
X111283809Y-122933133D01*
X111283809Y-122933133D02*
X111474285Y-123647419D01*
X111474285Y-123647419D02*
X111712381Y-122647419D01*
X112617142Y-123647419D02*
X112045714Y-123647419D01*
X112331428Y-123647419D02*
X112331428Y-122647419D01*
X112331428Y-122647419D02*
X112236190Y-122790276D01*
X112236190Y-122790276D02*
X112140952Y-122885514D01*
X112140952Y-122885514D02*
X112045714Y-122933133D01*
X112950476Y-122647419D02*
X113617142Y-122647419D01*
X113617142Y-122647419D02*
X113188571Y-123647419D01*
X167100476Y-123599800D02*
X167243333Y-123647419D01*
X167243333Y-123647419D02*
X167481428Y-123647419D01*
X167481428Y-123647419D02*
X167576666Y-123599800D01*
X167576666Y-123599800D02*
X167624285Y-123552180D01*
X167624285Y-123552180D02*
X167671904Y-123456942D01*
X167671904Y-123456942D02*
X167671904Y-123361704D01*
X167671904Y-123361704D02*
X167624285Y-123266466D01*
X167624285Y-123266466D02*
X167576666Y-123218847D01*
X167576666Y-123218847D02*
X167481428Y-123171228D01*
X167481428Y-123171228D02*
X167290952Y-123123609D01*
X167290952Y-123123609D02*
X167195714Y-123075990D01*
X167195714Y-123075990D02*
X167148095Y-123028371D01*
X167148095Y-123028371D02*
X167100476Y-122933133D01*
X167100476Y-122933133D02*
X167100476Y-122837895D01*
X167100476Y-122837895D02*
X167148095Y-122742657D01*
X167148095Y-122742657D02*
X167195714Y-122695038D01*
X167195714Y-122695038D02*
X167290952Y-122647419D01*
X167290952Y-122647419D02*
X167529047Y-122647419D01*
X167529047Y-122647419D02*
X167671904Y-122695038D01*
X168005238Y-122647419D02*
X168243333Y-123647419D01*
X168243333Y-123647419D02*
X168433809Y-122933133D01*
X168433809Y-122933133D02*
X168624285Y-123647419D01*
X168624285Y-123647419D02*
X168862381Y-122647419D01*
X169195714Y-122742657D02*
X169243333Y-122695038D01*
X169243333Y-122695038D02*
X169338571Y-122647419D01*
X169338571Y-122647419D02*
X169576666Y-122647419D01*
X169576666Y-122647419D02*
X169671904Y-122695038D01*
X169671904Y-122695038D02*
X169719523Y-122742657D01*
X169719523Y-122742657D02*
X169767142Y-122837895D01*
X169767142Y-122837895D02*
X169767142Y-122933133D01*
X169767142Y-122933133D02*
X169719523Y-123075990D01*
X169719523Y-123075990D02*
X169148095Y-123647419D01*
X169148095Y-123647419D02*
X169767142Y-123647419D01*
X170386190Y-122647419D02*
X170481428Y-122647419D01*
X170481428Y-122647419D02*
X170576666Y-122695038D01*
X170576666Y-122695038D02*
X170624285Y-122742657D01*
X170624285Y-122742657D02*
X170671904Y-122837895D01*
X170671904Y-122837895D02*
X170719523Y-123028371D01*
X170719523Y-123028371D02*
X170719523Y-123266466D01*
X170719523Y-123266466D02*
X170671904Y-123456942D01*
X170671904Y-123456942D02*
X170624285Y-123552180D01*
X170624285Y-123552180D02*
X170576666Y-123599800D01*
X170576666Y-123599800D02*
X170481428Y-123647419D01*
X170481428Y-123647419D02*
X170386190Y-123647419D01*
X170386190Y-123647419D02*
X170290952Y-123599800D01*
X170290952Y-123599800D02*
X170243333Y-123552180D01*
X170243333Y-123552180D02*
X170195714Y-123456942D01*
X170195714Y-123456942D02*
X170148095Y-123266466D01*
X170148095Y-123266466D02*
X170148095Y-123028371D01*
X170148095Y-123028371D02*
X170195714Y-122837895D01*
X170195714Y-122837895D02*
X170243333Y-122742657D01*
X170243333Y-122742657D02*
X170290952Y-122695038D01*
X170290952Y-122695038D02*
X170386190Y-122647419D01*
X129476667Y-85499800D02*
X129619524Y-85547419D01*
X129619524Y-85547419D02*
X129857619Y-85547419D01*
X129857619Y-85547419D02*
X129952857Y-85499800D01*
X129952857Y-85499800D02*
X130000476Y-85452180D01*
X130000476Y-85452180D02*
X130048095Y-85356942D01*
X130048095Y-85356942D02*
X130048095Y-85261704D01*
X130048095Y-85261704D02*
X130000476Y-85166466D01*
X130000476Y-85166466D02*
X129952857Y-85118847D01*
X129952857Y-85118847D02*
X129857619Y-85071228D01*
X129857619Y-85071228D02*
X129667143Y-85023609D01*
X129667143Y-85023609D02*
X129571905Y-84975990D01*
X129571905Y-84975990D02*
X129524286Y-84928371D01*
X129524286Y-84928371D02*
X129476667Y-84833133D01*
X129476667Y-84833133D02*
X129476667Y-84737895D01*
X129476667Y-84737895D02*
X129524286Y-84642657D01*
X129524286Y-84642657D02*
X129571905Y-84595038D01*
X129571905Y-84595038D02*
X129667143Y-84547419D01*
X129667143Y-84547419D02*
X129905238Y-84547419D01*
X129905238Y-84547419D02*
X130048095Y-84595038D01*
X130381429Y-84547419D02*
X130619524Y-85547419D01*
X130619524Y-85547419D02*
X130810000Y-84833133D01*
X130810000Y-84833133D02*
X131000476Y-85547419D01*
X131000476Y-85547419D02*
X131238572Y-84547419D01*
X131762381Y-84975990D02*
X131667143Y-84928371D01*
X131667143Y-84928371D02*
X131619524Y-84880752D01*
X131619524Y-84880752D02*
X131571905Y-84785514D01*
X131571905Y-84785514D02*
X131571905Y-84737895D01*
X131571905Y-84737895D02*
X131619524Y-84642657D01*
X131619524Y-84642657D02*
X131667143Y-84595038D01*
X131667143Y-84595038D02*
X131762381Y-84547419D01*
X131762381Y-84547419D02*
X131952857Y-84547419D01*
X131952857Y-84547419D02*
X132048095Y-84595038D01*
X132048095Y-84595038D02*
X132095714Y-84642657D01*
X132095714Y-84642657D02*
X132143333Y-84737895D01*
X132143333Y-84737895D02*
X132143333Y-84785514D01*
X132143333Y-84785514D02*
X132095714Y-84880752D01*
X132095714Y-84880752D02*
X132048095Y-84928371D01*
X132048095Y-84928371D02*
X131952857Y-84975990D01*
X131952857Y-84975990D02*
X131762381Y-84975990D01*
X131762381Y-84975990D02*
X131667143Y-85023609D01*
X131667143Y-85023609D02*
X131619524Y-85071228D01*
X131619524Y-85071228D02*
X131571905Y-85166466D01*
X131571905Y-85166466D02*
X131571905Y-85356942D01*
X131571905Y-85356942D02*
X131619524Y-85452180D01*
X131619524Y-85452180D02*
X131667143Y-85499800D01*
X131667143Y-85499800D02*
X131762381Y-85547419D01*
X131762381Y-85547419D02*
X131952857Y-85547419D01*
X131952857Y-85547419D02*
X132048095Y-85499800D01*
X132048095Y-85499800D02*
X132095714Y-85452180D01*
X132095714Y-85452180D02*
X132143333Y-85356942D01*
X132143333Y-85356942D02*
X132143333Y-85166466D01*
X132143333Y-85166466D02*
X132095714Y-85071228D01*
X132095714Y-85071228D02*
X132048095Y-85023609D01*
X132048095Y-85023609D02*
X131952857Y-84975990D01*
D13*
X126612285Y-35713200D02*
X126755142Y-35760819D01*
X126755142Y-35760819D02*
X126993237Y-35760819D01*
X126993237Y-35760819D02*
X127088475Y-35713200D01*
X127088475Y-35713200D02*
X127136094Y-35665580D01*
X127136094Y-35665580D02*
X127183713Y-35570342D01*
X127183713Y-35570342D02*
X127183713Y-35475104D01*
X127183713Y-35475104D02*
X127136094Y-35379866D01*
X127136094Y-35379866D02*
X127088475Y-35332247D01*
X127088475Y-35332247D02*
X126993237Y-35284628D01*
X126993237Y-35284628D02*
X126802761Y-35237009D01*
X126802761Y-35237009D02*
X126707523Y-35189390D01*
X126707523Y-35189390D02*
X126659904Y-35141771D01*
X126659904Y-35141771D02*
X126612285Y-35046533D01*
X126612285Y-35046533D02*
X126612285Y-34951295D01*
X126612285Y-34951295D02*
X126659904Y-34856057D01*
X126659904Y-34856057D02*
X126707523Y-34808438D01*
X126707523Y-34808438D02*
X126802761Y-34760819D01*
X126802761Y-34760819D02*
X127040856Y-34760819D01*
X127040856Y-34760819D02*
X127183713Y-34808438D01*
X127612285Y-35760819D02*
X127612285Y-34760819D01*
X127612285Y-34760819D02*
X127993237Y-34760819D01*
X127993237Y-34760819D02*
X128088475Y-34808438D01*
X128088475Y-34808438D02*
X128136094Y-34856057D01*
X128136094Y-34856057D02*
X128183713Y-34951295D01*
X128183713Y-34951295D02*
X128183713Y-35094152D01*
X128183713Y-35094152D02*
X128136094Y-35189390D01*
X128136094Y-35189390D02*
X128088475Y-35237009D01*
X128088475Y-35237009D02*
X127993237Y-35284628D01*
X127993237Y-35284628D02*
X127612285Y-35284628D01*
X128612285Y-35760819D02*
X128612285Y-34760819D01*
X128850380Y-35856057D02*
X129612284Y-35856057D01*
X129802761Y-35713200D02*
X129945618Y-35760819D01*
X129945618Y-35760819D02*
X130183713Y-35760819D01*
X130183713Y-35760819D02*
X130278951Y-35713200D01*
X130278951Y-35713200D02*
X130326570Y-35665580D01*
X130326570Y-35665580D02*
X130374189Y-35570342D01*
X130374189Y-35570342D02*
X130374189Y-35475104D01*
X130374189Y-35475104D02*
X130326570Y-35379866D01*
X130326570Y-35379866D02*
X130278951Y-35332247D01*
X130278951Y-35332247D02*
X130183713Y-35284628D01*
X130183713Y-35284628D02*
X129993237Y-35237009D01*
X129993237Y-35237009D02*
X129897999Y-35189390D01*
X129897999Y-35189390D02*
X129850380Y-35141771D01*
X129850380Y-35141771D02*
X129802761Y-35046533D01*
X129802761Y-35046533D02*
X129802761Y-34951295D01*
X129802761Y-34951295D02*
X129850380Y-34856057D01*
X129850380Y-34856057D02*
X129897999Y-34808438D01*
X129897999Y-34808438D02*
X129993237Y-34760819D01*
X129993237Y-34760819D02*
X130231332Y-34760819D01*
X130231332Y-34760819D02*
X130374189Y-34808438D01*
X131231332Y-35713200D02*
X131136094Y-35760819D01*
X131136094Y-35760819D02*
X130945618Y-35760819D01*
X130945618Y-35760819D02*
X130850380Y-35713200D01*
X130850380Y-35713200D02*
X130802761Y-35665580D01*
X130802761Y-35665580D02*
X130755142Y-35570342D01*
X130755142Y-35570342D02*
X130755142Y-35284628D01*
X130755142Y-35284628D02*
X130802761Y-35189390D01*
X130802761Y-35189390D02*
X130850380Y-35141771D01*
X130850380Y-35141771D02*
X130945618Y-35094152D01*
X130945618Y-35094152D02*
X131136094Y-35094152D01*
X131136094Y-35094152D02*
X131231332Y-35141771D01*
X131659904Y-35760819D02*
X131659904Y-35094152D01*
X131659904Y-35284628D02*
X131707523Y-35189390D01*
X131707523Y-35189390D02*
X131755142Y-35141771D01*
X131755142Y-35141771D02*
X131850380Y-35094152D01*
X131850380Y-35094152D02*
X131945618Y-35094152D01*
X132659904Y-35713200D02*
X132564666Y-35760819D01*
X132564666Y-35760819D02*
X132374190Y-35760819D01*
X132374190Y-35760819D02*
X132278952Y-35713200D01*
X132278952Y-35713200D02*
X132231333Y-35617961D01*
X132231333Y-35617961D02*
X132231333Y-35237009D01*
X132231333Y-35237009D02*
X132278952Y-35141771D01*
X132278952Y-35141771D02*
X132374190Y-35094152D01*
X132374190Y-35094152D02*
X132564666Y-35094152D01*
X132564666Y-35094152D02*
X132659904Y-35141771D01*
X132659904Y-35141771D02*
X132707523Y-35237009D01*
X132707523Y-35237009D02*
X132707523Y-35332247D01*
X132707523Y-35332247D02*
X132231333Y-35427485D01*
X133517047Y-35713200D02*
X133421809Y-35760819D01*
X133421809Y-35760819D02*
X133231333Y-35760819D01*
X133231333Y-35760819D02*
X133136095Y-35713200D01*
X133136095Y-35713200D02*
X133088476Y-35617961D01*
X133088476Y-35617961D02*
X133088476Y-35237009D01*
X133088476Y-35237009D02*
X133136095Y-35141771D01*
X133136095Y-35141771D02*
X133231333Y-35094152D01*
X133231333Y-35094152D02*
X133421809Y-35094152D01*
X133421809Y-35094152D02*
X133517047Y-35141771D01*
X133517047Y-35141771D02*
X133564666Y-35237009D01*
X133564666Y-35237009D02*
X133564666Y-35332247D01*
X133564666Y-35332247D02*
X133088476Y-35427485D01*
X133993238Y-35094152D02*
X133993238Y-35760819D01*
X133993238Y-35189390D02*
X134040857Y-35141771D01*
X134040857Y-35141771D02*
X134136095Y-35094152D01*
X134136095Y-35094152D02*
X134278952Y-35094152D01*
X134278952Y-35094152D02*
X134374190Y-35141771D01*
X134374190Y-35141771D02*
X134421809Y-35237009D01*
X134421809Y-35237009D02*
X134421809Y-35760819D01*
X134659905Y-35856057D02*
X135421809Y-35856057D01*
X136183714Y-35760819D02*
X135612286Y-35760819D01*
X135898000Y-35760819D02*
X135898000Y-34760819D01*
X135898000Y-34760819D02*
X135802762Y-34903676D01*
X135802762Y-34903676D02*
X135707524Y-34998914D01*
X135707524Y-34998914D02*
X135612286Y-35046533D01*
D12*
X148050476Y-123599800D02*
X148193333Y-123647419D01*
X148193333Y-123647419D02*
X148431428Y-123647419D01*
X148431428Y-123647419D02*
X148526666Y-123599800D01*
X148526666Y-123599800D02*
X148574285Y-123552180D01*
X148574285Y-123552180D02*
X148621904Y-123456942D01*
X148621904Y-123456942D02*
X148621904Y-123361704D01*
X148621904Y-123361704D02*
X148574285Y-123266466D01*
X148574285Y-123266466D02*
X148526666Y-123218847D01*
X148526666Y-123218847D02*
X148431428Y-123171228D01*
X148431428Y-123171228D02*
X148240952Y-123123609D01*
X148240952Y-123123609D02*
X148145714Y-123075990D01*
X148145714Y-123075990D02*
X148098095Y-123028371D01*
X148098095Y-123028371D02*
X148050476Y-122933133D01*
X148050476Y-122933133D02*
X148050476Y-122837895D01*
X148050476Y-122837895D02*
X148098095Y-122742657D01*
X148098095Y-122742657D02*
X148145714Y-122695038D01*
X148145714Y-122695038D02*
X148240952Y-122647419D01*
X148240952Y-122647419D02*
X148479047Y-122647419D01*
X148479047Y-122647419D02*
X148621904Y-122695038D01*
X148955238Y-122647419D02*
X149193333Y-123647419D01*
X149193333Y-123647419D02*
X149383809Y-122933133D01*
X149383809Y-122933133D02*
X149574285Y-123647419D01*
X149574285Y-123647419D02*
X149812381Y-122647419D01*
X150717142Y-123647419D02*
X150145714Y-123647419D01*
X150431428Y-123647419D02*
X150431428Y-122647419D01*
X150431428Y-122647419D02*
X150336190Y-122790276D01*
X150336190Y-122790276D02*
X150240952Y-122885514D01*
X150240952Y-122885514D02*
X150145714Y-122933133D01*
X151193333Y-123647419D02*
X151383809Y-123647419D01*
X151383809Y-123647419D02*
X151479047Y-123599800D01*
X151479047Y-123599800D02*
X151526666Y-123552180D01*
X151526666Y-123552180D02*
X151621904Y-123409323D01*
X151621904Y-123409323D02*
X151669523Y-123218847D01*
X151669523Y-123218847D02*
X151669523Y-122837895D01*
X151669523Y-122837895D02*
X151621904Y-122742657D01*
X151621904Y-122742657D02*
X151574285Y-122695038D01*
X151574285Y-122695038D02*
X151479047Y-122647419D01*
X151479047Y-122647419D02*
X151288571Y-122647419D01*
X151288571Y-122647419D02*
X151193333Y-122695038D01*
X151193333Y-122695038D02*
X151145714Y-122742657D01*
X151145714Y-122742657D02*
X151098095Y-122837895D01*
X151098095Y-122837895D02*
X151098095Y-123075990D01*
X151098095Y-123075990D02*
X151145714Y-123171228D01*
X151145714Y-123171228D02*
X151193333Y-123218847D01*
X151193333Y-123218847D02*
X151288571Y-123266466D01*
X151288571Y-123266466D02*
X151479047Y-123266466D01*
X151479047Y-123266466D02*
X151574285Y-123218847D01*
X151574285Y-123218847D02*
X151621904Y-123171228D01*
X151621904Y-123171228D02*
X151669523Y-123075990D01*
D13*
X145166094Y-34760819D02*
X145499427Y-35760819D01*
X145499427Y-35760819D02*
X145832760Y-34760819D01*
X146308951Y-35760819D02*
X146213713Y-35713200D01*
X146213713Y-35713200D02*
X146166094Y-35665580D01*
X146166094Y-35665580D02*
X146118475Y-35570342D01*
X146118475Y-35570342D02*
X146118475Y-35284628D01*
X146118475Y-35284628D02*
X146166094Y-35189390D01*
X146166094Y-35189390D02*
X146213713Y-35141771D01*
X146213713Y-35141771D02*
X146308951Y-35094152D01*
X146308951Y-35094152D02*
X146451808Y-35094152D01*
X146451808Y-35094152D02*
X146547046Y-35141771D01*
X146547046Y-35141771D02*
X146594665Y-35189390D01*
X146594665Y-35189390D02*
X146642284Y-35284628D01*
X146642284Y-35284628D02*
X146642284Y-35570342D01*
X146642284Y-35570342D02*
X146594665Y-35665580D01*
X146594665Y-35665580D02*
X146547046Y-35713200D01*
X146547046Y-35713200D02*
X146451808Y-35760819D01*
X146451808Y-35760819D02*
X146308951Y-35760819D01*
X147213713Y-35760819D02*
X147118475Y-35713200D01*
X147118475Y-35713200D02*
X147070856Y-35617961D01*
X147070856Y-35617961D02*
X147070856Y-34760819D01*
X147356571Y-35856057D02*
X148118475Y-35856057D01*
X148356571Y-35237009D02*
X148689904Y-35237009D01*
X148832761Y-35760819D02*
X148356571Y-35760819D01*
X148356571Y-35760819D02*
X148356571Y-34760819D01*
X148356571Y-34760819D02*
X148832761Y-34760819D01*
X149261333Y-35094152D02*
X149261333Y-35760819D01*
X149261333Y-35189390D02*
X149308952Y-35141771D01*
X149308952Y-35141771D02*
X149404190Y-35094152D01*
X149404190Y-35094152D02*
X149547047Y-35094152D01*
X149547047Y-35094152D02*
X149642285Y-35141771D01*
X149642285Y-35141771D02*
X149689904Y-35237009D01*
X149689904Y-35237009D02*
X149689904Y-35760819D01*
X150594666Y-35713200D02*
X150499428Y-35760819D01*
X150499428Y-35760819D02*
X150308952Y-35760819D01*
X150308952Y-35760819D02*
X150213714Y-35713200D01*
X150213714Y-35713200D02*
X150166095Y-35665580D01*
X150166095Y-35665580D02*
X150118476Y-35570342D01*
X150118476Y-35570342D02*
X150118476Y-35284628D01*
X150118476Y-35284628D02*
X150166095Y-35189390D01*
X150166095Y-35189390D02*
X150213714Y-35141771D01*
X150213714Y-35141771D02*
X150308952Y-35094152D01*
X150308952Y-35094152D02*
X150499428Y-35094152D01*
X150499428Y-35094152D02*
X150594666Y-35141771D01*
X151166095Y-35760819D02*
X151070857Y-35713200D01*
X151070857Y-35713200D02*
X151023238Y-35665580D01*
X151023238Y-35665580D02*
X150975619Y-35570342D01*
X150975619Y-35570342D02*
X150975619Y-35284628D01*
X150975619Y-35284628D02*
X151023238Y-35189390D01*
X151023238Y-35189390D02*
X151070857Y-35141771D01*
X151070857Y-35141771D02*
X151166095Y-35094152D01*
X151166095Y-35094152D02*
X151308952Y-35094152D01*
X151308952Y-35094152D02*
X151404190Y-35141771D01*
X151404190Y-35141771D02*
X151451809Y-35189390D01*
X151451809Y-35189390D02*
X151499428Y-35284628D01*
X151499428Y-35284628D02*
X151499428Y-35570342D01*
X151499428Y-35570342D02*
X151451809Y-35665580D01*
X151451809Y-35665580D02*
X151404190Y-35713200D01*
X151404190Y-35713200D02*
X151308952Y-35760819D01*
X151308952Y-35760819D02*
X151166095Y-35760819D01*
X152356571Y-35760819D02*
X152356571Y-34760819D01*
X152356571Y-35713200D02*
X152261333Y-35760819D01*
X152261333Y-35760819D02*
X152070857Y-35760819D01*
X152070857Y-35760819D02*
X151975619Y-35713200D01*
X151975619Y-35713200D02*
X151928000Y-35665580D01*
X151928000Y-35665580D02*
X151880381Y-35570342D01*
X151880381Y-35570342D02*
X151880381Y-35284628D01*
X151880381Y-35284628D02*
X151928000Y-35189390D01*
X151928000Y-35189390D02*
X151975619Y-35141771D01*
X151975619Y-35141771D02*
X152070857Y-35094152D01*
X152070857Y-35094152D02*
X152261333Y-35094152D01*
X152261333Y-35094152D02*
X152356571Y-35141771D01*
X153213714Y-35713200D02*
X153118476Y-35760819D01*
X153118476Y-35760819D02*
X152928000Y-35760819D01*
X152928000Y-35760819D02*
X152832762Y-35713200D01*
X152832762Y-35713200D02*
X152785143Y-35617961D01*
X152785143Y-35617961D02*
X152785143Y-35237009D01*
X152785143Y-35237009D02*
X152832762Y-35141771D01*
X152832762Y-35141771D02*
X152928000Y-35094152D01*
X152928000Y-35094152D02*
X153118476Y-35094152D01*
X153118476Y-35094152D02*
X153213714Y-35141771D01*
X153213714Y-35141771D02*
X153261333Y-35237009D01*
X153261333Y-35237009D02*
X153261333Y-35332247D01*
X153261333Y-35332247D02*
X152785143Y-35427485D01*
X153689905Y-35760819D02*
X153689905Y-35094152D01*
X153689905Y-35284628D02*
X153737524Y-35189390D01*
X153737524Y-35189390D02*
X153785143Y-35141771D01*
X153785143Y-35141771D02*
X153880381Y-35094152D01*
X153880381Y-35094152D02*
X153975619Y-35094152D01*
X154070858Y-35856057D02*
X154832762Y-35856057D01*
X155594667Y-35760819D02*
X155023239Y-35760819D01*
X155308953Y-35760819D02*
X155308953Y-34760819D01*
X155308953Y-34760819D02*
X155213715Y-34903676D01*
X155213715Y-34903676D02*
X155118477Y-34998914D01*
X155118477Y-34998914D02*
X155023239Y-35046533D01*
D12*
X110426667Y-85499800D02*
X110569524Y-85547419D01*
X110569524Y-85547419D02*
X110807619Y-85547419D01*
X110807619Y-85547419D02*
X110902857Y-85499800D01*
X110902857Y-85499800D02*
X110950476Y-85452180D01*
X110950476Y-85452180D02*
X110998095Y-85356942D01*
X110998095Y-85356942D02*
X110998095Y-85261704D01*
X110998095Y-85261704D02*
X110950476Y-85166466D01*
X110950476Y-85166466D02*
X110902857Y-85118847D01*
X110902857Y-85118847D02*
X110807619Y-85071228D01*
X110807619Y-85071228D02*
X110617143Y-85023609D01*
X110617143Y-85023609D02*
X110521905Y-84975990D01*
X110521905Y-84975990D02*
X110474286Y-84928371D01*
X110474286Y-84928371D02*
X110426667Y-84833133D01*
X110426667Y-84833133D02*
X110426667Y-84737895D01*
X110426667Y-84737895D02*
X110474286Y-84642657D01*
X110474286Y-84642657D02*
X110521905Y-84595038D01*
X110521905Y-84595038D02*
X110617143Y-84547419D01*
X110617143Y-84547419D02*
X110855238Y-84547419D01*
X110855238Y-84547419D02*
X110998095Y-84595038D01*
X111331429Y-84547419D02*
X111569524Y-85547419D01*
X111569524Y-85547419D02*
X111760000Y-84833133D01*
X111760000Y-84833133D02*
X111950476Y-85547419D01*
X111950476Y-85547419D02*
X112188572Y-84547419D01*
X112474286Y-84547419D02*
X113140952Y-84547419D01*
X113140952Y-84547419D02*
X112712381Y-85547419D01*
%TO.C,Pi_Pico_1*%
D14*
X111015000Y-55018000D02*
G75*
G02*
X109965000Y-55018000I-525000J0D01*
G01*
X109965000Y-55018000D02*
G75*
G02*
X111015000Y-55018000I525000J0D01*
G01*
D12*
X160120000Y-59268000D02*
X160120000Y-38268000D01*
X109120000Y-59268000D02*
X109120000Y-38268000D01*
%TO.C,SW5*%
X164846000Y-64389000D02*
X180594000Y-64389000D01*
X164846000Y-72390000D02*
X164846000Y-64389000D01*
X164846000Y-72390000D02*
X164846000Y-80391000D01*
X180594000Y-72390000D02*
X180594000Y-64389000D01*
X180594000Y-72390000D02*
X180594000Y-80391000D01*
X180594000Y-80391000D02*
X164846000Y-80391000D01*
%TO.C,SW16*%
X88646000Y-121539000D02*
X104394000Y-121539000D01*
X88646000Y-129540000D02*
X88646000Y-121539000D01*
X88646000Y-129540000D02*
X88646000Y-137541000D01*
X104394000Y-129540000D02*
X104394000Y-121539000D01*
X104394000Y-129540000D02*
X104394000Y-137541000D01*
X104394000Y-137541000D02*
X88646000Y-137541000D01*
%TO.C,SW2*%
X107696000Y-64389000D02*
X123444000Y-64389000D01*
X107696000Y-72390000D02*
X107696000Y-64389000D01*
X107696000Y-72390000D02*
X107696000Y-80391000D01*
X123444000Y-72390000D02*
X123444000Y-64389000D01*
X123444000Y-72390000D02*
X123444000Y-80391000D01*
X123444000Y-80391000D02*
X107696000Y-80391000D01*
D15*
%TO.C,TSW_1*%
X112248000Y-23786000D02*
X112248000Y-35506000D01*
X112248000Y-35506000D02*
X113668000Y-35506000D01*
X113668000Y-35506000D02*
X113668000Y-31006000D01*
X114558000Y-24396000D02*
X114558000Y-29896000D01*
X114558000Y-29896000D02*
X115058000Y-29896000D01*
X115058000Y-24396000D02*
X114558000Y-24396000D01*
X115058000Y-29896000D02*
X115058000Y-24396000D01*
X116058000Y-23786000D02*
X112248000Y-23786000D01*
X116058000Y-23786000D02*
X119868000Y-23786000D01*
X117008000Y-33596000D02*
X117308000Y-32996000D01*
X117058000Y-24396000D02*
X117058000Y-29896000D01*
X117058000Y-29896000D02*
X117558000Y-29896000D01*
X117308000Y-32996000D02*
X117608000Y-33596000D01*
X117558000Y-24396000D02*
X117058000Y-24396000D01*
X117558000Y-29896000D02*
X117558000Y-24396000D01*
X117608000Y-33596000D02*
X117008000Y-33596000D01*
X118448000Y-35506000D02*
X118448000Y-31006000D01*
X119868000Y-23786000D02*
X119868000Y-35506000D01*
X119868000Y-35506000D02*
X118448000Y-35506000D01*
D12*
%TO.C,SW10*%
X164846000Y-83439000D02*
X180594000Y-83439000D01*
X164846000Y-91440000D02*
X164846000Y-83439000D01*
X164846000Y-91440000D02*
X164846000Y-99441000D01*
X180594000Y-91440000D02*
X180594000Y-83439000D01*
X180594000Y-91440000D02*
X180594000Y-99441000D01*
X180594000Y-99441000D02*
X164846000Y-99441000D01*
%TO.C,SW13*%
X126746000Y-102489000D02*
X142494000Y-102489000D01*
X126746000Y-110490000D02*
X126746000Y-102489000D01*
X126746000Y-110490000D02*
X126746000Y-118491000D01*
X142494000Y-110490000D02*
X142494000Y-102489000D01*
X142494000Y-110490000D02*
X142494000Y-118491000D01*
X142494000Y-118491000D02*
X126746000Y-118491000D01*
%TO.C,SW12*%
X107696000Y-102489000D02*
X123444000Y-102489000D01*
X107696000Y-110490000D02*
X107696000Y-102489000D01*
X107696000Y-110490000D02*
X107696000Y-118491000D01*
X123444000Y-110490000D02*
X123444000Y-102489000D01*
X123444000Y-110490000D02*
X123444000Y-118491000D01*
X123444000Y-118491000D02*
X107696000Y-118491000D01*
%TO.C,SW3*%
X126746000Y-64389000D02*
X142494000Y-64389000D01*
X126746000Y-72390000D02*
X126746000Y-64389000D01*
X126746000Y-72390000D02*
X126746000Y-80391000D01*
X142494000Y-72390000D02*
X142494000Y-64389000D01*
X142494000Y-72390000D02*
X142494000Y-80391000D01*
X142494000Y-80391000D02*
X126746000Y-80391000D01*
%TO.C,SW14*%
X145796000Y-102489000D02*
X161544000Y-102489000D01*
X145796000Y-110490000D02*
X145796000Y-102489000D01*
X145796000Y-110490000D02*
X145796000Y-118491000D01*
X161544000Y-110490000D02*
X161544000Y-102489000D01*
X161544000Y-110490000D02*
X161544000Y-118491000D01*
X161544000Y-118491000D02*
X145796000Y-118491000D01*
%TO.C,SW4*%
X145796000Y-64389000D02*
X161544000Y-64389000D01*
X145796000Y-72390000D02*
X145796000Y-64389000D01*
X145796000Y-72390000D02*
X145796000Y-80391000D01*
X161544000Y-72390000D02*
X161544000Y-64389000D01*
X161544000Y-72390000D02*
X161544000Y-80391000D01*
X161544000Y-80391000D02*
X145796000Y-80391000D01*
%TO.C,SW1*%
X88646000Y-64389000D02*
X104394000Y-64389000D01*
X88646000Y-72390000D02*
X88646000Y-64389000D01*
X88646000Y-72390000D02*
X88646000Y-80391000D01*
X104394000Y-72390000D02*
X104394000Y-64389000D01*
X104394000Y-72390000D02*
X104394000Y-80391000D01*
X104394000Y-80391000D02*
X88646000Y-80391000D01*
%TO.C,SW11*%
X88646000Y-102489000D02*
X104394000Y-102489000D01*
X88646000Y-110490000D02*
X88646000Y-102489000D01*
X88646000Y-110490000D02*
X88646000Y-118491000D01*
X104394000Y-110490000D02*
X104394000Y-102489000D01*
X104394000Y-110490000D02*
X104394000Y-118491000D01*
X104394000Y-118491000D02*
X88646000Y-118491000D01*
%TO.C,SW15*%
X164846000Y-102489000D02*
X180594000Y-102489000D01*
X164846000Y-110490000D02*
X164846000Y-102489000D01*
X164846000Y-110490000D02*
X164846000Y-118491000D01*
X180594000Y-110490000D02*
X180594000Y-102489000D01*
X180594000Y-110490000D02*
X180594000Y-118491000D01*
X180594000Y-118491000D02*
X164846000Y-118491000D01*
D15*
%TO.C,BFEncoder_1*%
X72806628Y-147885686D02*
X81093919Y-139598395D01*
X74871380Y-149087768D02*
X75224933Y-149441321D01*
X75224933Y-149441321D02*
X79114020Y-145552234D01*
X76639146Y-150855535D02*
X76992700Y-151209088D01*
X76992700Y-151209088D02*
X80881787Y-147320001D01*
X77268471Y-152347530D02*
X72806628Y-147885686D01*
X77268471Y-152347530D02*
X81730315Y-156809374D01*
X78406913Y-152623302D02*
X78760466Y-152976856D01*
X78760466Y-152976856D02*
X82649554Y-149087768D01*
X78760467Y-145198680D02*
X74871380Y-149087768D01*
X79114020Y-145552234D02*
X78760467Y-145198680D01*
X80174680Y-154391069D02*
X80528233Y-154744623D01*
X80528233Y-154744623D02*
X84417321Y-150855535D01*
X80528234Y-146966447D02*
X76639146Y-150855535D01*
X80881787Y-147320001D02*
X80528234Y-146966447D01*
X81093919Y-139598395D02*
X82098011Y-140602486D01*
X81129275Y-143183426D02*
X81341407Y-142547030D01*
X81341407Y-142547030D02*
X81765671Y-142971294D01*
X81730315Y-156809374D02*
X90017607Y-148522082D01*
X81765671Y-142971294D02*
X81129275Y-143183426D01*
X82098011Y-140602486D02*
X78916030Y-143784467D01*
X82296001Y-148734214D02*
X78406913Y-152623302D01*
X82649554Y-149087768D02*
X82296001Y-148734214D01*
X84063768Y-150501981D02*
X80174680Y-154391069D01*
X84417321Y-150855535D02*
X84063768Y-150501981D01*
X89013515Y-147517991D02*
X85831535Y-150699971D01*
X90017607Y-148522082D02*
X89013515Y-147517991D01*
D12*
%TO.C,SW6*%
X88646000Y-83439000D02*
X104394000Y-83439000D01*
X88646000Y-91440000D02*
X88646000Y-83439000D01*
X88646000Y-91440000D02*
X88646000Y-99441000D01*
X104394000Y-91440000D02*
X104394000Y-83439000D01*
X104394000Y-91440000D02*
X104394000Y-99441000D01*
X104394000Y-99441000D02*
X88646000Y-99441000D01*
%TO.C,SW18*%
X126746000Y-121539000D02*
X142494000Y-121539000D01*
X126746000Y-129540000D02*
X126746000Y-121539000D01*
X126746000Y-129540000D02*
X126746000Y-137541000D01*
X142494000Y-129540000D02*
X142494000Y-121539000D01*
X142494000Y-129540000D02*
X142494000Y-137541000D01*
X142494000Y-137541000D02*
X126746000Y-137541000D01*
D15*
%TO.C,BFEncoder_2*%
X179222395Y-148522081D02*
X180226486Y-147517989D01*
X180226486Y-147517989D02*
X183408467Y-150699970D01*
X182171030Y-148274593D02*
X182595294Y-147850329D01*
X182595294Y-147850329D02*
X182807426Y-148486725D01*
X182807426Y-148486725D02*
X182171030Y-148274593D01*
X184822680Y-150855533D02*
X188711768Y-154744620D01*
X185176234Y-150501980D02*
X184822680Y-150855533D01*
X186590447Y-149087766D02*
X190479535Y-152976854D01*
X186944001Y-148734213D02*
X186590447Y-149087766D01*
X187141991Y-140602485D02*
X190323971Y-143784465D01*
X187509686Y-156809372D02*
X179222395Y-148522081D01*
X188146082Y-139598393D02*
X187141991Y-140602485D01*
X188358214Y-147319999D02*
X192247302Y-151209087D01*
X188711768Y-146966446D02*
X188358214Y-147319999D01*
X188711768Y-154744620D02*
X189065321Y-154391067D01*
X189065321Y-154391067D02*
X185176234Y-150501980D01*
X190125981Y-145552232D02*
X194015069Y-149441320D01*
X190479535Y-145198679D02*
X190125981Y-145552232D01*
X190479535Y-152976854D02*
X190833088Y-152623300D01*
X190833088Y-152623300D02*
X186944001Y-148734213D01*
X191971530Y-152347529D02*
X187509686Y-156809372D01*
X191971530Y-152347529D02*
X196433374Y-147885685D01*
X192247302Y-151209087D02*
X192600856Y-150855534D01*
X192600856Y-150855534D02*
X188711768Y-146966446D01*
X194015069Y-149441320D02*
X194368623Y-149087767D01*
X194368623Y-149087767D02*
X190479535Y-145198679D01*
X196433374Y-147885685D02*
X188146082Y-139598393D01*
D12*
%TO.C,SW9*%
X145796000Y-83439000D02*
X161544000Y-83439000D01*
X145796000Y-91440000D02*
X145796000Y-83439000D01*
X145796000Y-91440000D02*
X145796000Y-99441000D01*
X161544000Y-91440000D02*
X161544000Y-83439000D01*
X161544000Y-91440000D02*
X161544000Y-99441000D01*
X161544000Y-99441000D02*
X145796000Y-99441000D01*
%TO.C,SW17*%
X107696000Y-121539000D02*
X123444000Y-121539000D01*
X107696000Y-129540000D02*
X107696000Y-121539000D01*
X107696000Y-129540000D02*
X107696000Y-137541000D01*
X123444000Y-129540000D02*
X123444000Y-121539000D01*
X123444000Y-129540000D02*
X123444000Y-137541000D01*
X123444000Y-137541000D02*
X107696000Y-137541000D01*
%TO.C,SW20*%
X164846000Y-121539000D02*
X180594000Y-121539000D01*
X164846000Y-129540000D02*
X164846000Y-121539000D01*
X164846000Y-129540000D02*
X164846000Y-137541000D01*
X180594000Y-129540000D02*
X180594000Y-121539000D01*
X180594000Y-129540000D02*
X180594000Y-137541000D01*
X180594000Y-137541000D02*
X164846000Y-137541000D01*
%TO.C,SW8*%
X126746000Y-83439000D02*
X142494000Y-83439000D01*
X126746000Y-91440000D02*
X126746000Y-83439000D01*
X126746000Y-91440000D02*
X126746000Y-99441000D01*
X142494000Y-91440000D02*
X142494000Y-83439000D01*
X142494000Y-91440000D02*
X142494000Y-99441000D01*
X142494000Y-99441000D02*
X126746000Y-99441000D01*
D15*
%TO.C,SPI_Screen_1*%
X122568000Y-23786000D02*
X122568000Y-35506000D01*
X122568000Y-35506000D02*
X123988000Y-35506000D01*
X123988000Y-35506000D02*
X123988000Y-31006000D01*
X124878000Y-24396000D02*
X124878000Y-29896000D01*
X124878000Y-29896000D02*
X125378000Y-29896000D01*
X125378000Y-24396000D02*
X124878000Y-24396000D01*
X125378000Y-29896000D02*
X125378000Y-24396000D01*
X127378000Y-24396000D02*
X127378000Y-29896000D01*
X127378000Y-29896000D02*
X127878000Y-29896000D01*
X127878000Y-24396000D02*
X127378000Y-24396000D01*
X127878000Y-29896000D02*
X127878000Y-24396000D01*
X129878000Y-24396000D02*
X129878000Y-29896000D01*
X129878000Y-29896000D02*
X130378000Y-29896000D01*
X130378000Y-24396000D02*
X129878000Y-24396000D01*
X130378000Y-29896000D02*
X130378000Y-24396000D01*
X131378000Y-23786000D02*
X122568000Y-23786000D01*
X131378000Y-23786000D02*
X140188000Y-23786000D01*
X132378000Y-24396000D02*
X132378000Y-29896000D01*
X132378000Y-29896000D02*
X132878000Y-29896000D01*
X132878000Y-24396000D02*
X132378000Y-24396000D01*
X132878000Y-29896000D02*
X132878000Y-24396000D01*
X134878000Y-24396000D02*
X134878000Y-29896000D01*
X134878000Y-29896000D02*
X135378000Y-29896000D01*
X135378000Y-24396000D02*
X134878000Y-24396000D01*
X135378000Y-29896000D02*
X135378000Y-24396000D01*
X137328000Y-33596000D02*
X137628000Y-32996000D01*
X137378000Y-24396000D02*
X137378000Y-29896000D01*
X137378000Y-29896000D02*
X137878000Y-29896000D01*
X137628000Y-32996000D02*
X137928000Y-33596000D01*
X137878000Y-24396000D02*
X137378000Y-24396000D01*
X137878000Y-29896000D02*
X137878000Y-24396000D01*
X137928000Y-33596000D02*
X137328000Y-33596000D01*
X138768000Y-35506000D02*
X138768000Y-31006000D01*
X140188000Y-23786000D02*
X140188000Y-35506000D01*
X140188000Y-35506000D02*
X138768000Y-35506000D01*
D12*
%TO.C,SW19*%
X145796000Y-121539000D02*
X161544000Y-121539000D01*
X145796000Y-129540000D02*
X145796000Y-121539000D01*
X145796000Y-129540000D02*
X145796000Y-137541000D01*
X161544000Y-129540000D02*
X161544000Y-121539000D01*
X161544000Y-129540000D02*
X161544000Y-137541000D01*
X161544000Y-137541000D02*
X145796000Y-137541000D01*
D15*
%TO.C,Vol_Encoder_1*%
X142848000Y-23786000D02*
X142848000Y-35506000D01*
X142848000Y-35506000D02*
X144268000Y-35506000D01*
X144268000Y-35506000D02*
X144268000Y-31006000D01*
X145158000Y-24396000D02*
X145158000Y-29896000D01*
X145158000Y-29896000D02*
X145658000Y-29896000D01*
X145658000Y-24396000D02*
X145158000Y-24396000D01*
X145658000Y-29896000D02*
X145658000Y-24396000D01*
X147658000Y-24396000D02*
X147658000Y-29896000D01*
X147658000Y-29896000D02*
X148158000Y-29896000D01*
X148158000Y-24396000D02*
X147658000Y-24396000D01*
X148158000Y-29896000D02*
X148158000Y-24396000D01*
X150158000Y-24396000D02*
X150158000Y-29896000D01*
X150158000Y-29896000D02*
X150658000Y-29896000D01*
X150408000Y-23786000D02*
X142848000Y-23786000D01*
X150408000Y-23786000D02*
X157968000Y-23786000D01*
X150658000Y-24396000D02*
X150158000Y-24396000D01*
X150658000Y-29896000D02*
X150658000Y-24396000D01*
X152658000Y-24396000D02*
X152658000Y-29896000D01*
X152658000Y-29896000D02*
X153158000Y-29896000D01*
X153158000Y-24396000D02*
X152658000Y-24396000D01*
X153158000Y-29896000D02*
X153158000Y-24396000D01*
X155108000Y-33596000D02*
X155408000Y-32996000D01*
X155158000Y-24396000D02*
X155158000Y-29896000D01*
X155158000Y-29896000D02*
X155658000Y-29896000D01*
X155408000Y-32996000D02*
X155708000Y-33596000D01*
X155658000Y-24396000D02*
X155158000Y-24396000D01*
X155658000Y-29896000D02*
X155658000Y-24396000D01*
X155708000Y-33596000D02*
X155108000Y-33596000D01*
X156548000Y-35506000D02*
X156548000Y-31006000D01*
X157968000Y-23786000D02*
X157968000Y-35506000D01*
X157968000Y-35506000D02*
X156548000Y-35506000D01*
D12*
%TO.C,SW7*%
X107696000Y-83439000D02*
X123444000Y-83439000D01*
X107696000Y-91440000D02*
X107696000Y-83439000D01*
X107696000Y-91440000D02*
X107696000Y-99441000D01*
X123444000Y-91440000D02*
X123444000Y-83439000D01*
X123444000Y-91440000D02*
X123444000Y-99441000D01*
X123444000Y-99441000D02*
X107696000Y-99441000D01*
%TD*%
M02*
